<svg width="60" height="82" viewBox="0 0 60 82" fill="none" xmlns="http://www.w3.org/2000/svg">
<path d="M30 56C45.464 56 58 43.464 58 28C58 12.536 45.464 0 30 0C14.536 0 2 12.536 2 28C2 43.464 14.536 56 30 56Z" fill="#F7F7F7"/>
<mask id="mask0_161_5233" style="mask-type:alpha" maskUnits="userSpaceOnUse" x="2" y="0" width="56" height="56">
<path d="M30 56C45.464 56 58 43.464 58 28C58 12.536 45.464 0 30 0C14.536 0 2 12.536 2 28C2 43.464 14.536 56 30 56Z" fill="#EFEFEF"/>
</mask>
<g mask="url(#mask0_161_5233)">
<path d="M12.7333 14.2333C10.3999 15.8667 12.7333 22.2444 14.1333 23.7222C15.611 25.2 20.8999 17.2667 20.8999 17.2667C20.8999 17.2667 15.611 12.2111 12.7333 14.2333Z" fill="white"/>
<path d="M47.1889 14.1557C49.5222 15.789 47.1889 22.1668 45.7889 23.6446C44.3111 25.1224 39.0222 17.189 39.0222 17.189C39.0222 17.189 44.3111 12.1335 47.1889 14.1557Z" fill="white"/>
<path d="M23.311 37.8C14.6777 40.7555 13.1999 51.9555 13.5888 57.1667H46.4888C47.0332 45.2667 41.8999 39.2778 39.1777 37.8C37.4666 36.5555 31.8666 34.7667 23.311 37.8Z" fill="#707070"/>
<path d="M46.4887 57.5558H13.511C13.2776 57.5558 13.0443 57.4003 13.0443 57.1669C12.6554 51.6447 14.3665 40.3669 23.0776 37.4114C26.8887 36.0892 30.5443 35.5447 33.811 35.8558C37.1554 36.1669 38.9443 37.1781 39.411 37.4892C42.2887 39.1225 47.4999 45.2669 46.8776 57.2447C46.8776 57.3225 46.7221 57.5558 46.4887 57.5558ZM13.9776 56.6225H46.0221C46.411 45.3447 41.5887 39.5892 38.9443 38.1114C38.9443 38.1114 38.9443 38.1114 38.8665 38.1114C37.1554 36.8669 31.711 35.3114 23.3887 38.1892C15.3776 40.9892 13.7443 51.2558 13.9776 56.6225Z" fill="#707070"/>
<path d="M13.8222 57.5555C13.5889 57.5555 13.3556 57.3999 13.3556 57.1666C12.9667 51.6444 14.6778 40.3666 23.3889 37.3333C27.2 36.011 30.8556 35.4666 34.1222 35.7777C37.5445 36.0888 39.2556 37.0999 39.7222 37.411C42.6 39.0444 47.8111 45.1888 47.1889 57.1666C47.1889 57.3999 46.9556 57.6333 46.7222 57.6333C46.4889 57.6333 46.2556 57.3999 46.2556 57.1666C46.8 45.5777 41.9 39.7444 39.1778 38.2666C39.1778 38.2666 39.1778 38.2666 39.1 38.2666C37.3889 37.0221 31.9445 35.4666 23.6222 38.3444C15.3778 41.1444 13.8222 51.9555 14.2111 57.2444C14.2889 57.3221 14.1334 57.5555 13.8222 57.5555C13.9 57.5555 13.9 57.5555 13.8222 57.5555Z" fill="#515151"/>
<path d="M14.8333 25.1999C14.8333 25.1999 14.7555 25.1999 14.8333 25.1999C14.6777 25.1999 14.5221 25.1221 14.5221 25.0443C12.7333 22.5555 11.9555 20.3777 11.6444 18.9777C11.5666 18.7443 11.7221 18.511 11.9555 18.4332C12.1888 18.3555 12.4221 18.511 12.4999 18.7443C12.811 19.9888 13.4333 21.9332 14.911 24.111L21.1333 17.9666C17.7888 14.3888 14.211 13.4555 13.0444 14.3888C12.5777 14.7777 12.2666 15.6332 12.2666 16.7999C12.2666 17.0332 12.0333 17.2666 11.7999 17.2666C11.5666 17.2666 11.3333 17.0332 11.3333 16.7999C11.3333 15.3999 11.7221 14.311 12.4221 13.7666C14.1333 12.3666 18.3333 13.6888 21.9888 17.7332C22.1444 17.8888 22.1444 18.1999 21.9888 18.3555L15.1444 25.1999C15.0666 25.1221 14.911 25.1999 14.8333 25.1999Z" fill="#515151"/>
<path d="M14.9111 16.4889C15.6111 15.9445 17.4 16.5667 18.9555 18.3556C18.4111 18.7445 17.8666 19.1333 17.3222 19.6778C16.7 20.2222 16.2333 20.7667 15.7666 21.2333C14.2889 19.2111 14.2111 17.0333 14.9111 16.4889Z" fill="#515151"/>
<path d="M45.1665 25.2003C45.0887 25.2003 44.9332 25.1225 44.8554 25.0448L38.011 18.2003C37.8554 18.0448 37.8554 17.8114 38.011 17.5781C41.6665 13.5337 45.8665 12.2892 47.5776 13.6114C48.2776 14.1559 48.6665 15.2448 48.6665 16.6448C48.6665 16.8781 48.511 17.1114 48.1998 17.1114C47.9665 17.1114 47.7332 16.9559 47.7332 16.6448C47.7332 15.5559 47.4221 14.6225 46.9554 14.2337C45.7887 13.3003 42.211 14.2337 38.8665 17.8114L45.0887 23.9559C46.5665 21.7781 47.2665 19.9114 47.4998 18.5892C47.5776 18.3559 47.811 18.2003 48.0443 18.2781C48.2776 18.3559 48.4332 18.5892 48.3554 18.8225C48.0443 20.2225 47.2665 22.4781 45.4776 24.8892C45.4776 25.1225 45.3221 25.1225 45.1665 25.2003C45.1665 25.2003 45.2443 25.2003 45.1665 25.2003Z" fill="#515151"/>
<path d="M45.0889 16.4889C44.3889 15.9445 42.6 16.5667 41.0444 18.3556C41.5889 18.7445 42.1333 19.1333 42.6778 19.6778C43.3 20.2222 43.7667 20.7667 44.2333 21.2333C45.7111 19.2111 45.7889 17.0333 45.0889 16.4889Z" fill="#515151"/>
<path d="M47.4221 27.6112C47.4221 31.1112 45.5554 34.3778 42.4443 36.7889C39.3332 39.2001 34.9776 40.6778 30.0776 40.7556C25.2554 40.8334 20.8221 39.3556 17.711 37.0223C14.5221 34.6889 12.6554 31.5001 12.5776 27.9223C12.5776 24.4223 14.4443 21.1556 17.5554 18.7445C20.6665 16.3334 25.0221 14.8556 29.9221 14.7778C34.7443 14.7001 39.1776 16.1778 42.2887 18.5112C45.4776 20.8445 47.4221 24.1112 47.4221 27.6112Z" fill="#BCBCBC"/>
<path d="M28.4444 15.4779C28.3666 15.4779 28.2889 15.4779 28.2111 15.4001C27.9778 15.2446 27.9 14.9334 28.0555 14.7001C28.5222 13.9223 29.5333 12.989 30.1555 12.5223C30.3889 12.3668 30.7 12.4446 30.8555 12.6779C31.0111 12.9112 30.9333 13.2223 30.7 13.3779C30.1555 13.7668 29.2222 14.6223 28.8333 15.2446C28.7555 15.4001 28.6 15.4779 28.4444 15.4779Z" fill="#515151"/>
<path d="M30.3889 15.4001C30.3111 15.4001 30.1556 15.3223 30.0778 15.2445C29.8445 15.089 29.8445 14.7779 30 14.5445C30.5445 13.8445 31.7111 13.0667 32.4111 12.6779C32.6445 12.5223 32.9556 12.6779 33.1111 12.9112C33.2667 13.1445 33.1111 13.4556 32.8778 13.6112C32.2556 13.9223 31.2445 14.6223 30.7778 15.1667C30.7 15.3223 30.5445 15.4001 30.3889 15.4001Z" fill="#515151"/>
<path d="M29.9222 41.1445C25.1778 41.1445 20.7444 39.7445 17.4 37.2556C13.9777 34.7667 12.1111 31.3445 12.1111 27.7667C12.1111 24.189 13.9 20.7667 17.2444 18.2001C19.5 16.2556 23.3889 14.7001 27.1222 14.389C27.4333 14.389 27.6666 14.5445 27.6666 14.8556C27.6666 15.1667 27.5111 15.4001 27.2 15.4001C23.7 15.7112 19.9666 17.189 17.8666 18.9778C14.7555 21.389 13.0444 24.5001 13.1222 27.689C13.1222 30.9556 14.9111 34.0667 18.0222 36.3223C21.2889 38.7334 25.5666 39.9778 30.1555 39.9778C34.7444 39.9778 39.0222 38.5778 42.2111 36.089C45.3222 33.6778 47.0333 30.5667 46.9555 27.3778C46.9555 24.1112 45.1666 21.0001 42.0555 18.7445C39.5666 16.8778 35.5222 15.4001 32.3333 15.2445C32.0222 15.2445 31.8666 15.0112 31.8666 14.7001C31.8666 14.389 32.1 14.2334 32.4111 14.2334C35.8333 14.4667 40.0333 16.0223 42.6777 17.9667C46.1 20.4556 47.9666 23.8778 47.9666 27.4556C47.9666 31.0334 46.1777 34.4556 42.8333 37.0223C39.3333 39.6667 34.9 41.1445 30.0777 41.1445C30 41.1445 29.9222 41.1445 29.9222 41.1445Z" fill="#515151"/>
<path d="M36.0665 30.0224C35.7554 29.1668 34.1998 29.4002 32.4109 29.6335C31.6331 29.7113 30.7776 29.8668 30.2331 29.7891C29.8443 29.7891 29.4554 29.7113 29.0665 29.7113C25.722 29.478 23.2331 29.2446 22.6887 31.1113C22.5331 31.6557 22.6887 32.0446 22.8443 32.2002C23.2331 32.6668 24.0887 32.8224 25.1776 32.8224C26.3443 32.8224 27.822 32.5891 29.2998 32.3557C29.5331 32.2779 29.7665 32.278 29.922 32.278C30.3109 32.2002 31.0887 32.3557 31.8665 32.5113C33.2665 32.7446 34.6665 32.978 35.2887 32.5891C36.222 31.9668 36.4554 31.0335 36.0665 30.0224Z" fill="white"/>
<path d="M29.6889 30.2558C30.3889 30.2558 31.0111 29.8669 30.9334 29.478C30.9334 29.0891 30.3889 28.7002 29.6111 28.7002C28.9111 28.7002 28.2889 29.0891 28.3667 29.478C28.4445 29.8669 28.9889 30.2558 29.6889 30.2558Z" fill="#515151"/>
<path d="M33.0332 27.689C32.9555 27.689 32.8777 27.689 32.8777 27.6112L31.5555 26.9112C31.3999 26.8334 31.3221 26.6001 31.3999 26.3667C31.4777 26.2112 31.711 26.1334 31.9443 26.2112L33.1888 26.9112C33.3443 26.989 33.4221 27.2223 33.3443 27.4556C33.2666 27.6112 33.111 27.689 33.0332 27.689Z" fill="#515151"/>
<path d="M25.8 27.6892C25.6445 27.6892 25.5667 27.6114 25.4889 27.5336C25.4111 27.3781 25.4111 27.1447 25.6445 26.9892L26.8889 26.2892C27.0445 26.2114 27.2778 26.2114 27.4333 26.4447C27.5111 26.6003 27.5111 26.8336 27.2778 26.9892L26.0333 27.6892C25.9556 27.6892 25.8778 27.6892 25.8 27.6892Z" fill="#515151"/>
<path d="M41.1222 51.1778C40.0333 51.1 38.7111 51.0223 37.7777 51.1778C37.1555 51.2556 37.7777 54.2889 35.9111 54.1334C34.1222 53.9778 34.3555 52.1889 34.3555 51.1C32.4888 51.0223 30.7 50.7889 30.7 47.6C30.7 42.9334 36.4555 43.7112 41.1222 44.0223" fill="white"/>
<path d="M36.0665 54.6777C35.9887 54.6777 35.9109 54.6777 35.9109 54.6777C33.8887 54.5222 33.8887 52.6555 33.8887 51.5666C32.2554 51.4111 30.2332 51.0222 30.2332 47.5999C30.2332 46.3555 30.622 45.3444 31.3998 44.6444C33.1887 42.9333 36.6887 43.1666 40.1109 43.3999C40.4998 43.3999 40.8109 43.4777 41.1998 43.4777C41.5109 43.4777 41.6665 43.711 41.6665 44.0222C41.6665 44.3333 41.4332 44.4888 41.122 44.4888C40.7332 44.4888 40.422 44.411 40.0332 44.411C36.9998 44.1777 33.5776 44.0222 32.0998 45.4222C31.5554 45.9666 31.2443 46.6666 31.2443 47.5999C31.2443 50.3222 32.4109 50.4777 34.4332 50.6333C34.6665 50.6333 34.8998 50.8666 34.8998 51.0999C34.8998 51.1777 34.8998 51.3333 34.8998 51.4888C34.8998 52.9666 35.0554 53.5888 35.9887 53.6666C36.6109 53.7444 36.7665 53.2777 36.9998 52.1111C37.0776 51.4888 37.2332 50.8666 37.7776 50.711C38.7109 50.5555 39.9554 50.6333 41.1998 50.6333C41.5109 50.6333 41.6665 50.8666 41.6665 51.1777C41.6665 51.4888 41.4332 51.6444 41.122 51.6444C40.3443 51.5666 38.9443 51.5666 38.0887 51.6444C38.0109 51.7999 38.0109 52.0333 38.0109 52.1888C37.8554 53.1222 37.5443 54.6777 36.0665 54.6777Z" fill="#515151"/>
</g>
<path d="M13.271 73.943V73.02H15.702V74.346H17.054V68.262H15.702V69.848H13.271V68.782H11.958V70.316H9.18903V68.782H7.86303V73.943H13.271ZM13.271 70.875H15.702V71.98H13.271V70.875ZM11.958 71.343V72.877H9.18903V71.343H11.958ZM17.444 78.805H10.749V77.804H17.054V74.866H9.41003V75.919H15.728V76.816H9.42303V79.858H17.444V78.805ZM29.533 77.518H24.866V75.516H28.532V74.437H21.499V72.799H28.272V69.081H20.16V70.16H26.946V71.733H20.186V75.516H23.527V77.518H18.899V78.623H29.533V77.518ZM40.491 68.262H39.217V79.988H40.491V68.262ZM36.89 68.483V70.979H35.265C35.0657 70.3983 34.7797 69.952 34.407 69.64C34.0343 69.328 33.601 69.172 33.107 69.172C32.7343 69.172 32.392 69.2673 32.08 69.458C31.768 69.6487 31.4993 69.926 31.274 70.29C31.0573 70.6453 30.8883 71.083 30.767 71.603C30.6457 72.1143 30.585 72.695 30.585 73.345C30.585 73.9863 30.6457 74.567 30.767 75.087C30.8883 75.5983 31.0573 76.036 31.274 76.4C31.4993 76.7553 31.768 77.0283 32.08 77.219C32.392 77.4097 32.7343 77.505 33.107 77.505C33.601 77.505 34.0343 77.3447 34.407 77.024C34.7797 76.7033 35.07 76.257 35.278 75.685H36.89V79.442H38.138V68.483H36.89ZM33.107 76.244C32.691 76.244 32.366 75.997 32.132 75.503C31.9067 75.009 31.794 74.2897 31.794 73.345C31.794 72.4003 31.9067 71.681 32.132 71.187C32.366 70.6843 32.691 70.433 33.107 70.433C33.523 70.433 33.8437 70.6843 34.069 71.187C34.303 71.681 34.42 72.4003 34.42 73.345C34.42 74.2897 34.303 75.009 34.069 75.503C33.8437 75.997 33.523 76.244 33.107 76.244ZM36.89 74.593H35.538C35.5727 74.3937 35.5943 74.1943 35.603 73.995C35.6203 73.787 35.629 73.5703 35.629 73.345C35.629 73.1197 35.6203 72.903 35.603 72.695C35.5943 72.487 35.5727 72.2833 35.538 72.084H36.89V74.593ZM52.671 77.466H50.162V74.411C50.63 74.1423 50.994 73.8043 51.254 73.397C51.5227 72.9897 51.657 72.526 51.657 72.006C51.657 71.538 51.5487 71.1177 51.332 70.745C51.1153 70.3637 50.8163 70.0387 50.435 69.77C50.0537 69.5013 49.5987 69.2977 49.07 69.159C48.5413 69.0117 47.965 68.938 47.341 68.938C46.717 68.938 46.1407 69.0117 45.612 69.159C45.0833 69.2977 44.624 69.5013 44.234 69.77C43.8527 70.0387 43.5537 70.3637 43.337 70.745C43.129 71.1177 43.025 71.538 43.025 72.006C43.025 72.526 43.155 72.994 43.415 73.41C43.6837 73.8173 44.052 74.151 44.52 74.411V77.466H42.037V78.558H52.671V77.466ZM47.341 69.991C47.783 69.991 48.186 70.0387 48.55 70.134C48.9227 70.2293 49.239 70.3637 49.499 70.537C49.7677 70.7103 49.9757 70.9227 50.123 71.174C50.2703 71.4167 50.344 71.694 50.344 72.006C50.344 72.318 50.2703 72.5997 50.123 72.851C49.9757 73.1023 49.7677 73.3147 49.499 73.488C49.239 73.6613 48.9227 73.7957 48.55 73.891C48.186 73.9863 47.783 74.034 47.341 74.034C46.899 74.034 46.4917 73.9863 46.119 73.891C45.7463 73.7957 45.4257 73.6613 45.157 73.488C44.897 73.3147 44.6933 73.1023 44.546 72.851C44.3987 72.5997 44.325 72.318 44.325 72.006C44.325 71.694 44.3987 71.4167 44.546 71.174C44.6933 70.9227 44.897 70.7103 45.157 70.537C45.4257 70.3637 45.7463 70.2293 46.119 70.134C46.4917 70.0387 46.899 69.991 47.341 69.991ZM45.859 77.466V74.918C46.3183 75.022 46.8123 75.074 47.341 75.074C47.601 75.074 47.8567 75.061 48.108 75.035C48.3593 75.009 48.5977 74.9657 48.823 74.905V77.466H45.859Z" fill="#ACACAC"/>
</svg>
