<svg width="56" height="56" viewBox="0 0 56 56" fill="none" xmlns="http://www.w3.org/2000/svg">
<circle cx="28" cy="28" r="28" fill="#FFF7E0"/>
<mask id="mask0_929_5820" style="mask-type:alpha" maskUnits="userSpaceOnUse" x="0" y="0" width="56" height="56">
<circle cx="28" cy="28" r="28" fill="#EFEFEF"/>
</mask>
<g mask="url(#mask0_929_5820)">
<g clip-path="url(#clip0_929_5820)">
<path d="M10.7227 14.2097C8.36229 15.8559 10.6905 22.2001 12.132 23.6951C13.5736 25.19 18.9359 17.2591 18.9359 17.2591C18.9359 17.2591 13.6355 12.1768 10.7227 14.2097Z" fill="white"/>
<path d="M45.2027 14.1725C47.5631 15.8187 45.2349 22.1629 43.7934 23.6578C42.3519 25.1528 36.9895 17.2219 36.9895 17.2219C36.9895 17.2219 42.2899 12.1396 45.2027 14.1725Z" fill="white"/>
<path d="M21.2815 37.7642C12.6819 40.7219 11.2033 51.8856 11.5376 57.0969H44.4597C45.0418 45.172 39.8503 39.2369 37.1803 37.7618C35.4639 36.5296 29.8786 34.8016 21.279 37.7618L21.2815 37.7642Z" fill="#776F66"/>
<path d="M44.4597 57.5431H11.5376C11.3023 57.5431 11.1091 57.3597 11.0917 57.1266C10.7351 51.6006 12.3772 40.355 21.1328 37.3403C24.9719 36.0189 28.5757 35.4809 31.8451 35.7462C35.2285 36.0189 36.9425 37.0503 37.4155 37.3849C40.2738 38.9815 45.4851 45.1398 44.9005 57.1192C44.8881 57.3572 44.6925 57.5431 44.4547 57.5431H44.4597ZM11.9611 56.6506H44.0336C44.4597 45.358 39.6174 39.6187 36.9672 38.1535C36.9524 38.1461 36.9375 38.1361 36.9226 38.1262C35.2062 36.8941 29.7572 35.3198 21.4276 38.1857C13.3902 40.9525 11.7258 51.2336 11.9636 56.6531L11.9611 56.6506Z" fill="#776F66"/>
<path d="M11.8546 57.5555C11.6168 57.5555 11.4162 57.3696 11.3989 57.1291C11.0422 51.6005 12.6843 40.3476 21.4474 37.3329C25.2865 36.0115 28.8927 35.4735 32.1646 35.7388C35.5505 36.0115 37.2644 37.0428 37.74 37.38C40.6007 38.9791 45.8169 45.1398 45.2299 57.1241C45.2176 57.377 44.9922 57.5654 44.7519 57.558C44.4993 57.5456 44.3061 57.3324 44.3185 57.0795C44.8832 45.5117 39.9592 39.6509 37.2743 38.1659C37.2595 38.156 37.2446 38.1485 37.2298 38.1361C35.5133 36.904 30.0692 35.3322 21.7421 38.1981C13.4992 41.0343 11.966 51.784 12.3079 57.0721C12.3252 57.3225 12.1345 57.5407 11.8818 57.558C11.8719 57.558 11.862 57.558 11.8521 57.558L11.8546 57.5555Z" fill="#515151"/>
<path d="M12.8157 25.1652C12.8157 25.1652 12.7934 25.1652 12.7835 25.1652C12.6572 25.1553 12.5432 25.0933 12.4689 24.9916C10.6485 22.5397 9.89302 20.3357 9.58094 18.9176C9.52892 18.6846 9.67753 18.4516 9.91035 18.402C10.1432 18.3499 10.376 18.4987 10.4255 18.7317C10.7029 19.9887 11.3494 21.9051 12.8677 24.0644L19.0722 17.9012C15.7334 14.3287 12.137 13.4114 10.9704 14.356C10.4875 14.7477 10.2076 15.6154 10.2001 16.7384C10.2001 16.9764 10.0045 17.1698 9.7667 17.1698H9.76422C9.52397 17.1673 9.33325 16.9715 9.33325 16.731C9.34316 15.3278 9.72955 14.2444 10.4255 13.6816C12.1197 12.3082 16.3699 13.5651 19.9985 17.6285C20.1521 17.7995 20.1446 18.0623 19.9812 18.226L13.1203 25.0387C13.0386 25.1205 12.9296 25.1652 12.8157 25.1652Z" fill="#515151"/>
<path d="M12.9346 16.498C13.6183 15.9625 15.4561 16.5625 16.9496 18.3921C16.4418 18.7491 15.8895 19.1755 15.3223 19.6862C14.713 20.2317 14.1978 20.7696 13.7619 21.2704C12.2709 19.1854 12.2287 17.0533 12.9346 16.5005V16.498Z" fill="#515151"/>
<path d="M43.1867 25.1652C43.0728 25.1652 42.9638 25.1205 42.8821 25.0387L36.0237 18.226C35.8603 18.0623 35.8528 17.802 36.0064 17.6285C39.63 13.5651 43.8803 12.3082 45.5769 13.6816C46.2704 14.2444 46.6593 15.3278 46.6692 16.731C46.6692 16.9715 46.4785 17.1649 46.2382 17.1673H46.2357C45.9979 17.1673 45.8048 16.974 45.8023 16.736C45.7948 15.6129 45.515 14.7452 45.032 14.3535C43.8679 13.4089 40.269 14.3262 36.9303 17.9012L43.1347 24.0644C44.6505 21.9026 45.2995 19.9862 45.5769 18.7317C45.6289 18.4987 45.8592 18.3474 46.0921 18.402C46.3249 18.454 46.4735 18.6846 46.4215 18.9176C46.1094 20.3357 45.3564 22.5397 43.536 24.9892C43.4617 25.0908 43.3453 25.1528 43.2214 25.1627C43.2115 25.1627 43.1991 25.1627 43.1892 25.1627L43.1867 25.1652Z" fill="#515151"/>
<path d="M43.0679 16.498C42.3843 15.9625 40.5465 16.5625 39.053 18.3921C39.5607 18.7491 40.1131 19.1755 40.6803 19.6862C41.2896 20.2317 41.8047 20.7696 42.2407 21.2704C43.7317 19.1854 43.7738 17.0533 43.0679 16.5005V16.498Z" fill="#515151"/>
<path d="M45.4156 27.5873C45.4404 31.0954 43.5778 34.3381 40.4471 36.738C37.3164 39.1354 32.9547 40.6551 28.1026 40.6948C23.2504 40.7344 18.8664 39.2866 15.7035 36.9413C12.5381 34.5935 10.631 31.3805 10.6062 27.8749C10.5814 24.3669 12.444 21.1241 15.5747 18.7243C18.7055 16.3269 23.0672 14.8072 27.9193 14.7675C32.7714 14.7279 37.1554 16.1757 40.3183 18.521C43.4837 20.8688 45.3909 24.0818 45.4156 27.5873Z" fill="#EEB070"/>
<path d="M26.4234 15.4542C26.3318 15.4542 26.2377 15.4294 26.1535 15.3749C25.9206 15.2261 25.8538 14.9162 26.0024 14.6856C26.4854 13.9345 27.4909 12.9651 28.13 12.5312C28.3578 12.3751 28.6674 12.437 28.8235 12.6651C28.977 12.8932 28.9176 13.2031 28.6897 13.3593C28.1473 13.7287 27.2408 14.6063 26.842 15.2261C26.7479 15.3749 26.5869 15.4542 26.421 15.4542H26.4234Z" fill="#515151"/>
<path d="M28.4247 15.4195C28.3108 15.4195 28.1944 15.3798 28.1003 15.298C27.8922 15.1195 27.8674 14.8022 28.0482 14.5939C28.6303 13.9171 29.7622 13.0965 30.4532 12.7568C30.7009 12.6354 31.0006 12.737 31.122 12.9849C31.2434 13.2328 31.1418 13.5328 30.8941 13.6543C30.3046 13.9444 29.2867 14.6881 28.8062 15.2459C28.7071 15.36 28.5684 15.4195 28.4272 15.4195H28.4247Z" fill="#515151"/>
<path d="M27.8847 41.1756C23.1713 41.1756 18.7402 39.8121 15.3866 37.323C11.9958 34.8091 10.1134 31.4473 10.0862 27.86C10.0614 24.2776 11.8893 20.891 15.238 18.3201C17.482 16.3491 21.3484 14.8393 25.0958 14.4749C25.3732 14.4451 25.6135 14.6484 25.6407 14.9236C25.668 15.1988 25.4673 15.4418 25.1924 15.469C21.6877 15.8112 17.9477 17.264 15.8845 19.0812C15.8745 19.0886 15.8671 19.0961 15.8572 19.1035C12.7562 21.4786 11.0621 24.5875 11.0844 27.8525C11.1066 31.1176 12.8454 34.1967 15.9811 36.5222C19.2108 38.9171 23.5007 40.2087 28.0779 40.1765C32.6502 40.1393 36.9276 38.7708 40.1228 36.3214C43.2238 33.9463 44.9179 30.8375 44.8956 27.5724C44.8733 24.3073 43.1346 21.2282 39.9989 18.9027C37.4948 17.0458 33.4948 15.593 30.2724 15.3674C29.9975 15.3476 29.7894 15.1096 29.8092 14.8344C29.829 14.5592 30.0643 14.3559 30.3417 14.3708C33.7375 14.6088 37.9506 16.1409 40.5934 18.0994C43.9866 20.6158 45.8665 23.9751 45.8938 27.5625C45.9186 31.1498 44.0857 34.5413 40.7296 37.1123C37.3636 39.6906 32.8731 41.1335 28.0878 41.1731C28.0209 41.1731 27.9541 41.1731 27.8872 41.1731L27.8847 41.1756Z" fill="#515151"/>
<path d="M34.0695 29.9847C33.7202 29.1591 32.1821 29.3649 30.3988 29.6004C29.5889 29.707 28.7542 29.8186 28.2316 29.7814C27.8204 29.7516 27.4216 29.7194 27.0377 29.6896C23.6668 29.4244 21.2296 29.2335 20.6425 31.1152C20.4741 31.6581 20.6475 32.0126 20.8234 32.2134C21.2271 32.677 22.0742 32.8481 23.164 32.8481C24.3479 32.8481 25.8191 32.6473 27.3151 32.3994C27.5752 32.3572 27.7808 32.3225 27.9145 32.3052C28.2984 32.2531 29.1009 32.3919 29.8787 32.5258C31.3053 32.7713 32.6552 32.9993 33.2868 32.5779C34.2032 31.9655 34.493 30.9962 34.0695 29.9847Z" fill="white"/>
<path d="M27.716 30.2271C28.4273 30.2217 29.0013 29.8709 28.998 29.4437C28.9947 29.0166 28.4155 28.6747 27.7042 28.6802C26.9929 28.6856 26.4189 29.0364 26.4222 29.4635C26.4255 29.8907 27.0047 30.2326 27.716 30.2271Z" fill="#515151"/>
<path d="M31.003 27.6691C30.9411 27.6691 30.8767 27.6542 30.8197 27.6195L29.564 26.9005C29.3857 26.7989 29.3237 26.5708 29.4253 26.3923C29.5268 26.2138 29.7547 26.1518 29.933 26.2535L31.1888 26.9724C31.3671 27.0741 31.4291 27.3022 31.3275 27.4807C31.2582 27.5997 31.1343 27.6691 31.0055 27.6691H31.003Z" fill="#515151"/>
<path d="M23.83 27.6691C23.7012 27.6691 23.5749 27.6021 23.5081 27.4807C23.4065 27.3022 23.4684 27.0741 23.6468 26.9724L24.9025 26.2535C25.0808 26.1518 25.3062 26.2138 25.4103 26.3923C25.5118 26.5708 25.4499 26.7989 25.2716 26.9005L24.0158 27.6195C23.9588 27.6517 23.8944 27.6691 23.8325 27.6691H23.83Z" fill="#515151"/>
<path d="M39.1295 51.2038C38.067 51.1468 36.7319 51.0848 35.8205 51.2361C35.2013 51.3402 35.8056 54.3202 33.9381 54.1665C32.1201 54.0177 32.3678 52.1955 32.3678 51.1072C30.5101 51.003 28.7243 50.8345 28.7268 47.5818C28.7318 42.9482 34.4533 43.7068 39.1295 43.9746" fill="white"/>
<path d="M34.0843 54.6723C34.0224 54.6723 33.9605 54.6698 33.8961 54.6648C31.875 54.4987 31.8354 52.6641 31.8576 51.5758C30.1932 51.4568 28.2216 51.0353 28.2241 47.5794C28.2241 46.3422 28.608 45.3555 29.361 44.649C31.1641 42.9582 34.6688 43.1838 38.0572 43.4019C38.4287 43.4267 38.7953 43.449 39.1569 43.4714C39.4343 43.4862 39.6448 43.7242 39.6299 44.0019C39.6151 44.2796 39.3847 44.4928 39.0999 44.4754C38.7358 44.4556 38.3668 44.4308 37.9928 44.406C34.9636 44.2101 31.5332 43.9895 30.0471 45.3828C29.4972 45.8985 29.2297 46.6174 29.2272 47.5794C29.2248 50.2891 30.4285 50.4924 32.3951 50.6015C32.6601 50.6163 32.8682 50.837 32.8682 51.1023C32.8682 51.2163 32.8657 51.3403 32.8632 51.4692C32.831 52.9195 32.9846 53.5814 33.9778 53.6608C34.6045 53.7104 34.7828 53.2443 34.9586 52.1063C35.0602 51.4518 35.1568 50.8345 35.7364 50.7353C36.6652 50.5792 37.9358 50.6312 39.1544 50.6957C39.4318 50.7106 39.6423 50.9461 39.6275 51.2237C39.6126 51.5014 39.3724 51.7097 39.0999 51.6973C38.285 51.6526 36.9525 51.5832 36.0534 51.6997C36.0138 51.8361 35.9791 52.0716 35.9494 52.2576C35.8181 53.1104 35.5754 54.6648 34.0843 54.6648V54.6723Z" fill="#515151"/>
</g>
</g>
<defs>
<clipPath id="clip0_929_5820">
<rect width="37.3333" height="45.1111" fill="white" transform="translate(9.33325 12.4445)"/>
</clipPath>
</defs>
</svg>
