<svg width="56" height="56" viewBox="0 0 56 56" fill="none" xmlns="http://www.w3.org/2000/svg">
<path d="M28 56C43.464 56 56 43.464 56 28C56 12.536 43.464 0 28 0C12.536 0 0 12.536 0 28C0 43.464 12.536 56 28 56Z" fill="#F7F7F7"/>
<mask id="mask0_929_5924" style="mask-type:alpha" maskUnits="userSpaceOnUse" x="0" y="0" width="56" height="56">
<path d="M28 56C43.464 56 56 43.464 56 28C56 12.536 43.464 0 28 0C12.536 0 0 12.536 0 28C0 43.464 12.536 56 28 56Z" fill="#EFEFEF"/>
</mask>
<g mask="url(#mask0_929_5924)">
<path d="M10.7333 14.2333C8.39992 15.8667 10.7333 22.2444 12.1333 23.7222C13.611 25.2 18.8999 17.2667 18.8999 17.2667C18.8999 17.2667 13.611 12.2111 10.7333 14.2333Z" fill="white"/>
<path d="M45.1889 14.1556C47.5222 15.7889 45.1889 22.1667 43.7889 23.6445C42.3111 25.1222 37.0222 17.1889 37.0222 17.1889C37.0222 17.1889 42.3111 12.1333 45.1889 14.1556Z" fill="white"/>
<path d="M21.311 37.8C12.6777 40.7555 11.1999 51.9555 11.5888 57.1667H44.4888C45.0332 45.2667 39.8999 39.2778 37.1777 37.8C35.4666 36.5555 29.8666 34.7667 21.311 37.8Z" fill="#707070"/>
<path d="M44.4887 57.5555H11.511C11.2776 57.5555 11.0443 57.4 11.0443 57.1666C10.6554 51.6444 12.3665 40.3666 21.0776 37.4111C24.8887 36.0889 28.5443 35.5444 31.811 35.8555C35.1554 36.1666 36.9443 37.1777 37.411 37.4889C40.2887 39.1222 45.4999 45.2666 44.8776 57.2444C44.8776 57.3222 44.7221 57.5555 44.4887 57.5555ZM11.9776 56.6222H44.0221C44.411 45.3444 39.5887 39.5889 36.9443 38.1111C36.9443 38.1111 36.9443 38.1111 36.8665 38.1111C35.1554 36.8666 29.711 35.3111 21.3887 38.1889C13.3776 40.9889 11.7443 51.2555 11.9776 56.6222Z" fill="#707070"/>
<path d="M11.8222 57.5555C11.5889 57.5555 11.3556 57.4 11.3556 57.1667C10.9667 51.6444 12.6778 40.3667 21.3889 37.3333C25.2 36.0111 28.8556 35.4667 32.1222 35.7778C35.5445 36.0889 37.2556 37.1 37.7222 37.4111C40.6 39.0444 45.8111 45.1889 45.1889 57.1667C45.1889 57.4 44.9556 57.6333 44.7222 57.6333C44.4889 57.6333 44.2556 57.4 44.2556 57.1667C44.8 45.5778 39.9 39.7444 37.1778 38.2667C37.1778 38.2667 37.1778 38.2667 37.1 38.2667C35.3889 37.0222 29.9445 35.4667 21.6222 38.3444C13.3778 41.1444 11.8222 51.9555 12.2111 57.2444C12.2889 57.3222 12.1334 57.5555 11.8222 57.5555C11.9 57.5555 11.9 57.5555 11.8222 57.5555Z" fill="#515151"/>
<path d="M12.8333 25.2C12.8333 25.2 12.7555 25.2 12.8333 25.2C12.6777 25.2 12.5221 25.1222 12.5221 25.0445C10.7333 22.5556 9.95547 20.3778 9.64436 18.9778C9.56658 18.7445 9.72214 18.5111 9.95547 18.4334C10.1888 18.3556 10.4221 18.5111 10.4999 18.7445C10.811 19.9889 11.4333 21.9334 12.911 24.1111L19.1333 17.9667C15.7888 14.3889 12.211 13.4556 11.0444 14.3889C10.5777 14.7778 10.2666 15.6334 10.2666 16.8C10.2666 17.0334 10.0333 17.2667 9.79992 17.2667C9.56659 17.2667 9.33325 17.0334 9.33325 16.8C9.33325 15.4 9.72214 14.3111 10.4221 13.7667C12.1333 12.3667 16.3333 13.6889 19.9888 17.7334C20.1444 17.8889 20.1444 18.2 19.9888 18.3556L13.1444 25.2C13.0666 25.1222 12.911 25.2 12.8333 25.2Z" fill="#515151"/>
<path d="M12.9111 16.4889C13.6111 15.9445 15.4 16.5667 16.9555 18.3556C16.4111 18.7445 15.8666 19.1333 15.3222 19.6778C14.7 20.2222 14.2333 20.7667 13.7666 21.2333C12.2889 19.2111 12.2111 17.0333 12.9111 16.4889Z" fill="#515151"/>
<path d="M43.1665 25.2C43.0887 25.2 42.9332 25.1222 42.8554 25.0445L36.011 18.2C35.8554 18.0445 35.8554 17.8111 36.011 17.5778C39.6665 13.5333 43.8665 12.2889 45.5776 13.6111C46.2776 14.1556 46.6665 15.2445 46.6665 16.6445C46.6665 16.8778 46.511 17.1111 46.1998 17.1111C45.9665 17.1111 45.7332 16.9556 45.7332 16.6445C45.7332 15.5556 45.4221 14.6222 44.9554 14.2333C43.7887 13.3 40.211 14.2333 36.8665 17.8111L43.0887 23.9556C44.5665 21.7778 45.2665 19.9111 45.4998 18.5889C45.5776 18.3556 45.811 18.2 46.0443 18.2778C46.2776 18.3556 46.4332 18.5889 46.3554 18.8222C46.0443 20.2222 45.2665 22.4778 43.4776 24.8889C43.4776 25.1222 43.3221 25.1222 43.1665 25.2C43.2443 25.2 43.1665 25.2 43.1665 25.2Z" fill="#515151"/>
<path d="M43.0889 16.4889C42.3889 15.9445 40.6 16.5667 39.0444 18.3556C39.5889 18.7445 40.1333 19.1333 40.6778 19.6778C41.3 20.2222 41.7667 20.7667 42.2333 21.2333C43.7111 19.2111 43.7889 17.0333 43.0889 16.4889Z" fill="#515151"/>
<path d="M45.4221 27.6111C45.4221 31.1111 43.5554 34.3778 40.4443 36.7889C37.3332 39.2 32.9776 40.6778 28.0776 40.7555C23.2554 40.8333 18.8221 39.3555 15.711 37.0222C12.5221 34.6889 10.6554 31.5 10.5776 27.9222C10.5776 24.4222 12.4443 21.1555 15.5554 18.7444C18.6665 16.3333 23.0221 14.8555 27.9221 14.7778C32.7443 14.7 37.1776 16.1778 40.2887 18.5111C43.4776 20.8444 45.4221 24.1111 45.4221 27.6111Z" fill="#BCBCBC"/>
<path d="M26.4444 15.4778C26.3666 15.4778 26.2889 15.4778 26.2111 15.4C25.9778 15.2444 25.9 14.9333 26.0555 14.7C26.5222 13.9222 27.5333 12.9889 28.1555 12.5222C28.3889 12.3667 28.7 12.4444 28.8555 12.6778C29.0111 12.9111 28.9333 13.2222 28.7 13.3778C28.1555 13.7667 27.2222 14.6222 26.8333 15.2444C26.7555 15.4 26.6 15.4778 26.4444 15.4778Z" fill="#515151"/>
<path d="M28.3889 15.4C28.3111 15.4 28.1556 15.3222 28.0778 15.2445C27.8445 15.0889 27.8445 14.7778 28 14.5445C28.5445 13.8445 29.7111 13.0667 30.4111 12.6778C30.6445 12.5222 30.9556 12.6778 31.1111 12.9111C31.2667 13.1445 31.1111 13.4556 30.8778 13.6111C30.2556 13.9222 29.2445 14.6222 28.7778 15.1667C28.7 15.3222 28.5445 15.4 28.3889 15.4Z" fill="#515151"/>
<path d="M27.9222 41.1445C23.1778 41.1445 18.7444 39.7445 15.4 37.2556C11.9777 34.7667 10.1111 31.3444 10.1111 27.7667C10.1111 24.1889 11.9 20.7667 15.2444 18.2C17.5 16.2556 21.3889 14.7 25.1222 14.3889C25.4333 14.3889 25.6666 14.5444 25.6666 14.8556C25.6666 15.1667 25.5111 15.4 25.2 15.4C21.7 15.7111 17.9666 17.1889 15.8666 18.9778C12.7555 21.3889 11.0444 24.5 11.1222 27.6889C11.1222 30.9556 12.9111 34.0667 16.0222 36.3222C19.2889 38.7333 23.5666 39.9778 28.1555 39.9778C32.7444 39.9778 37.0222 38.5778 40.2111 36.0889C43.3222 33.6778 45.0333 30.5667 44.9555 27.3778C44.9555 24.1111 43.1666 21 40.0555 18.7444C37.5666 16.8778 33.5222 15.4 30.3333 15.2444C30.0222 15.2444 29.8666 15.0111 29.8666 14.7C29.8666 14.3889 30.1 14.2333 30.4111 14.2333C33.8333 14.4667 38.0333 16.0222 40.6777 17.9667C44.1 20.4556 45.9666 23.8778 45.9666 27.4556C45.9666 31.0333 44.1777 34.4556 40.8333 37.0222C37.3333 39.6667 32.9 41.1445 28.0777 41.1445C28 41.1445 27.9222 41.1445 27.9222 41.1445Z" fill="#515151"/>
<path d="M34.0665 30.0222C33.7554 29.1667 32.1998 29.4 30.4109 29.6333C29.6331 29.7111 28.7776 29.8667 28.2331 29.7889C27.8443 29.7889 27.4554 29.7111 27.0665 29.7111C23.722 29.4778 21.2331 29.2444 20.6887 31.1111C20.5331 31.6555 20.6887 32.0444 20.8443 32.2C21.2331 32.6667 22.0887 32.8222 23.1776 32.8222C24.3443 32.8222 25.822 32.5889 27.2998 32.3555C27.5331 32.2778 27.7665 32.2778 27.922 32.2778C28.3109 32.2 29.0887 32.3555 29.8665 32.5111C31.2665 32.7444 32.6665 32.9778 33.2887 32.5889C34.222 31.9667 34.4554 31.0333 34.0665 30.0222Z" fill="white"/>
<path d="M27.6889 30.2556C28.3889 30.2556 29.0111 29.8667 28.9334 29.4778C28.9334 29.0889 28.3889 28.7 27.6111 28.7C26.9111 28.7 26.2889 29.0889 26.3667 29.4778C26.4445 29.8667 26.9889 30.2556 27.6889 30.2556Z" fill="#515151"/>
<path d="M31.0332 27.6889C30.9555 27.6889 30.8777 27.6889 30.8777 27.6111L29.5555 26.9111C29.3999 26.8333 29.3221 26.6 29.3999 26.3667C29.4777 26.2111 29.711 26.1333 29.9443 26.2111L31.1888 26.9111C31.3443 26.9889 31.4221 27.2222 31.3443 27.4556C31.2666 27.6111 31.111 27.6889 31.0332 27.6889Z" fill="#515151"/>
<path d="M23.8 27.6889C23.6445 27.6889 23.5667 27.6111 23.4889 27.5333C23.4111 27.3778 23.4111 27.1444 23.6445 26.9889L24.8889 26.2889C25.0445 26.2111 25.2778 26.2111 25.4333 26.4444C25.5111 26.6 25.5111 26.8333 25.2778 26.9889L24.0333 27.6889C23.9556 27.6889 23.8778 27.6889 23.8 27.6889Z" fill="#515151"/>
<path d="M39.1222 51.1778C38.0333 51.1 36.7111 51.0223 35.7777 51.1778C35.1555 51.2556 35.7777 54.2889 33.9111 54.1334C32.1222 53.9778 32.3555 52.1889 32.3555 51.1C30.4888 51.0223 28.7 50.7889 28.7 47.6C28.7 42.9334 34.4555 43.7112 39.1222 44.0223" fill="white"/>
<path d="M34.0665 54.6777C33.9887 54.6777 33.9109 54.6777 33.9109 54.6777C31.8887 54.5222 31.8887 52.6555 31.8887 51.5666C30.2554 51.4111 28.2332 51.0222 28.2332 47.5999C28.2332 46.3555 28.622 45.3444 29.3998 44.6444C31.1887 42.9333 34.6887 43.1666 38.1109 43.3999C38.4998 43.3999 38.8109 43.4777 39.1998 43.4777C39.5109 43.4777 39.6665 43.711 39.6665 44.0222C39.6665 44.3333 39.4332 44.4888 39.122 44.4888C38.7332 44.4888 38.422 44.411 38.0332 44.411C34.9998 44.1777 31.5776 44.0222 30.0998 45.4222C29.5554 45.9666 29.2443 46.6666 29.2443 47.5999C29.2443 50.3222 30.4109 50.4777 32.4332 50.6333C32.6665 50.6333 32.8998 50.8666 32.8998 51.0999C32.8998 51.1777 32.8998 51.3333 32.8998 51.4888C32.8998 52.9666 33.0554 53.5888 33.9887 53.6666C34.6109 53.7444 34.7665 53.2777 34.9998 52.1111C35.0776 51.4888 35.2332 50.8666 35.7776 50.711C36.7109 50.5555 37.9554 50.6333 39.1998 50.6333C39.5109 50.6333 39.6665 50.8666 39.6665 51.1777C39.6665 51.4888 39.4332 51.6444 39.122 51.6444C38.3443 51.5666 36.9443 51.5666 36.0887 51.6444C36.0109 51.7999 36.0109 52.0333 36.0109 52.1888C35.8554 53.1222 35.5443 54.6777 34.0665 54.6777Z" fill="#515151"/>
</g>
</svg>
