<svg width="40" height="40" viewBox="0 0 40 40" fill="none" xmlns="http://www.w3.org/2000/svg">
<circle cx="20" cy="20" r="20" fill="#F7F7F7"/>
<path d="M15.29 14C16.3946 14 17.29 13.1046 17.29 12C17.29 10.8954 16.3946 10 15.29 10C14.1855 10 13.29 10.8954 13.29 12C13.29 13.1046 14.1855 14 15.29 14Z" fill="#5CA5E9"/>
<path d="M16.27 15H14.31C12.92 15 11.79 16.13 11.79 17.52V21.57C11.79 22.56 12.38 23.41 13.23 23.79C13.26 23.81 13.29 23.84 13.29 23.88V28C13.29 29.1 14.19 30 15.29 30C16.39 30 17.29 29.1 17.29 28V23.88C17.29 23.88 17.31 23.81 17.35 23.79C18.2 23.41 18.79 22.56 18.79 21.57V17.52C18.79 16.13 17.66 15 16.27 15Z" fill="#5CA5E9"/>
<path d="M24.2102 14C25.3148 14 26.2102 13.1046 26.2102 12C26.2102 10.8954 25.3148 10 24.2102 10C23.1056 10 22.2102 10.8954 22.2102 12C22.2102 13.1046 23.1056 14 24.2102 14Z" fill="#ED746D"/>
<path d="M28.1101 22.32L26.1701 16.44C25.8901 15.58 25.1001 15 24.2101 15C23.3201 15 22.5301 15.58 22.2501 16.44L20.3101 22.32C20.0401 23.15 20.6501 24 21.5301 24H22.1201C22.1801 24 22.2201 24.05 22.2201 24.1V27.99C22.2201 29.09 23.1201 29.99 24.2201 29.99C25.3201 29.99 26.2201 29.09 26.2201 27.99V24.1C26.2201 24.04 26.2701 24 26.3201 24H26.9101C27.7801 24 28.4001 23.15 28.1301 22.32H28.1101Z" fill="#ED746D"/>
</svg>
