<svg width="20" height="20" viewBox="0 0 20 20" fill="none" xmlns="http://www.w3.org/2000/svg">
<path d="M7.20003 7.75844L7.77503 7.18344C8.2417 6.71677 8.30003 5.99177 7.90836 5.45844L6.28336 3.21677C5.7417 2.4751 4.6667 2.38344 4.0167 3.03344L3.93336 3.11677C1.53336 5.51677 2.0667 9.66677 5.9917 13.5834C9.9167 17.5001 14.5584 18.5251 16.9584 16.1334C17.0167 16.0751 17.0667 16.0251 17.1167 15.9668C17.7084 15.3084 17.6 14.2918 16.8917 13.7584L14.6084 12.1834C14.075 11.7834 13.3334 11.8418 12.8667 12.3084L12.2917 12.8834C11.875 13.3001 11.225 13.4001 10.7084 13.1084C10.1917 12.8168 9.45003 12.3168 8.60003 11.4668C7.75003 10.6168 7.25003 9.88344 6.95836 9.34177C6.6667 8.8001 6.77503 8.18344 7.1917 7.76677L7.20003 7.75844Z" fill="#ACACAC"/>
</svg>
