<svg width="24" height="24" viewBox="0 0 24 24" fill="none" xmlns="http://www.w3.org/2000/svg">
<g clip-path="url(#clip0_388_5144)">
<path d="M4.92849 4.92893C1.02526 8.83216 1.02526 15.1678 4.92849 19.0711C8.83172 22.9743 15.1674 22.9743 19.0706 19.0711C22.9739 15.1678 22.9739 8.83216 19.0706 4.92893C15.1674 1.0257 8.83172 1.0257 4.92849 4.92893ZM15.5351 9.87868L13.4138 12L15.5351 14.1213C15.924 14.5102 15.924 15.1466 15.5351 15.5355C15.1462 15.9244 14.5098 15.9244 14.1209 15.5355L11.9996 13.4142L9.87824 15.5355C9.48933 15.9244 8.85293 15.9244 8.46402 15.5355C8.07511 15.1466 8.07511 14.5102 8.46402 14.1213L10.5853 12L8.46402 9.87868C8.07511 9.48977 8.07511 8.85338 8.46402 8.46447C8.85293 8.07556 9.48933 8.07556 9.87824 8.46447L11.9996 10.5858L14.1209 8.46447C14.5098 8.07556 15.1462 8.07556 15.5351 8.46447C15.924 8.85338 15.924 9.48977 15.5351 9.87868Z" fill="#D1D1D1"/>
</g>
<defs>
<clipPath id="clip0_388_5144">
<rect width="24" height="24" fill="white"/>
</clipPath>
</defs>
</svg>
