<svg width="20" height="20" viewBox="0 0 20 20" fill="none" xmlns="http://www.w3.org/2000/svg">
<path d="M9.99996 3.1665C11.3515 3.1665 12.6726 3.56727 13.7964 4.31813C14.9201 5.06898 15.7959 6.13621 16.3131 7.38483C16.8303 8.63346 16.9657 10.0074 16.702 11.333C16.4383 12.6585 15.7875 13.8761 14.8319 14.8317C13.8762 15.7874 12.6586 16.4382 11.3331 16.7019C10.0075 16.9655 8.63359 16.8302 7.38496 16.313C6.13633 15.7958 5.06911 14.92 4.31825 13.7962C3.5674 12.6725 3.16663 11.3513 3.16663 9.99984C3.16883 8.1882 3.88948 6.4514 5.1705 5.17038C6.45152 3.88936 8.18833 3.16871 9.99996 3.1665ZM9.99996 1.6665C8.35179 1.6665 6.74062 2.15525 5.37021 3.07092C3.9998 3.9866 2.9317 5.28809 2.30097 6.81081C1.67024 8.33353 1.50521 10.0091 1.82675 11.6256C2.1483 13.2421 2.94197 14.727 4.10741 15.8924C5.27284 17.0578 6.7577 17.8515 8.37421 18.173C9.99072 18.4946 11.6663 18.3296 13.189 17.6988C14.7117 17.0681 16.0132 16 16.9289 14.6296C17.8446 13.2592 18.3333 11.648 18.3333 9.99984C18.3333 8.90549 18.1177 7.82186 17.699 6.81081C17.2802 5.79976 16.6663 4.8811 15.8925 4.10728C15.1187 3.33346 14.2 2.71963 13.189 2.30084C12.1779 1.88205 11.0943 1.6665 9.99996 1.6665Z" fill="#ACACAC"/>
<path d="M13.4083 12.8252C13.2728 12.8269 13.1396 12.7893 13.025 12.7168L9.60833 10.6335C9.49922 10.5676 9.40892 10.4747 9.34616 10.3638C9.28339 10.2529 9.25027 10.1276 9.25 10.0002V5.8335C9.25 5.63458 9.32902 5.44382 9.46967 5.30317C9.61032 5.16251 9.80109 5.0835 10 5.0835C10.1989 5.0835 10.3897 5.16251 10.5303 5.30317C10.671 5.44382 10.75 5.63458 10.75 5.8335V9.57516L13.8 11.4418C13.9365 11.5284 14.0413 11.6566 14.099 11.8076C14.1567 11.9585 14.164 12.1241 14.12 12.2795C14.076 12.435 13.9829 12.5721 13.8547 12.6704C13.7265 12.7687 13.5699 12.823 13.4083 12.8252Z" fill="#ACACAC"/>
</svg>
