<svg width="40" height="40" viewBox="0 0 40 40" fill="none" xmlns="http://www.w3.org/2000/svg">
<path d="M21.2702 19.9999L33.1302 8.13991C33.4802 7.78991 33.4802 7.21991 33.1302 6.86991C32.7802 6.51991 32.2102 6.51991 31.8602 6.86991L20.0002 18.7299L8.14016 6.85991C7.79016 6.50991 7.22016 6.50991 6.87016 6.85991C6.52016 7.20991 6.52016 7.77991 6.87016 8.12991L18.7302 19.9899L6.86016 31.8599C6.51016 32.2099 6.51016 32.7799 6.86016 33.1299C7.04016 33.3099 7.27016 33.3899 7.50016 33.3899C7.73016 33.3899 7.96016 33.2999 8.14016 33.1299L20.0002 21.2699L31.8602 33.1299C32.0402 33.3099 32.2702 33.3899 32.5002 33.3899C32.7302 33.3899 32.9602 33.2999 33.1402 33.1299C33.4902 32.7799 33.4902 32.2099 33.1402 31.8599L21.2802 19.9999H21.2702Z" fill="white"/>
</svg>
