<svg width="24" height="24" viewBox="0 0 14 14" fill="none" xmlns="http://www.w3.org/2000/svg">
<path d="M11.5297 0.25H5.61219C4.38969 0.25 3.39219 1.2475 3.39219 2.47V3.4H2.46219C1.23969 3.4 0.242188 4.3975 0.242188 5.62V11.5375C0.242188 12.76 1.23969 13.7575 2.46219 13.7575H8.37969C9.60219 13.7575 10.5997 12.76 10.5997 11.5375V10.6075H11.5297C12.7522 10.6075 13.7497 9.61 13.7497 8.3875V2.47C13.7497 1.2475 12.7522 0.25 11.5297 0.25ZM9.24969 11.53C9.24969 12.01 8.85969 12.4 8.37969 12.4H2.46969C1.98969 12.4 1.59969 12.01 1.59969 11.53V5.6125C1.59969 5.1325 1.98969 4.7425 2.46969 4.7425H8.38719C8.86719 4.7425 9.25719 5.1325 9.25719 5.6125V11.53H9.24969ZM12.3997 8.38C12.3997 8.86 12.0097 9.25 11.5297 9.25H10.5997V5.62C10.5997 4.3975 9.60219 3.4 8.37969 3.4H4.74969V2.47C4.74969 1.99 5.13969 1.6 5.61969 1.6H11.5372C12.0172 1.6 12.4072 1.99 12.4072 2.47V8.3875L12.3997 8.38Z" fill="#8B8B8B"/>
</svg>
