<svg width="14" height="13" viewBox="0 0 14 13" fill="none" xmlns="http://www.w3.org/2000/svg">
<path d="M2.25334 4.3335H1.74668C0.966114 4.3335 0.333344 4.96627 0.333344 5.74683V10.9202C0.333344 11.7007 0.966114 12.3335 1.74668 12.3335H2.25334C3.03391 12.3335 3.66668 11.7007 3.66668 10.9202V5.74683C3.66668 4.96627 3.03391 4.3335 2.25334 4.3335Z" fill="#FC7521"/>
<path d="M6.42668 12.3335C5.27334 12.3335 4.33334 11.3869 4.33334 10.2202V5.50686C4.33334 5.0002 4.48001 4.5002 4.76001 4.07353L6.72668 1.05353C7.41334 0.273529 8.69334 0.760195 8.69334 1.80686L8.76001 4.0202C8.76668 4.33353 9.02668 4.58686 9.34001 4.58686H12.1733C13.0933 4.56019 13.8067 5.40019 13.64 6.32019L12.7133 10.6669C12.5067 11.6402 11.6533 12.3402 10.6667 12.3402H6.42001L6.42668 12.3335Z" fill="#FC7521"/>
</svg>
