<svg width="16" height="16" viewBox="0 0 16 16" fill="none" xmlns="http://www.w3.org/2000/svg">
<g clip-path="url(#clip0_793_4558)">
<path d="M3.25301 5.3335H2.74634C1.96578 5.3335 1.33301 5.96627 1.33301 6.74683V11.9202C1.33301 12.7007 1.96578 13.3335 2.74634 13.3335H3.25301C4.03357 13.3335 4.66634 12.7007 4.66634 11.9202V6.74683C4.66634 5.96627 4.03357 5.3335 3.25301 5.3335Z" fill="#FC7521"/>
<path d="M7.42634 13.3335C6.27301 13.3335 5.33301 12.3869 5.33301 11.2202V6.50686C5.33301 6.0002 5.47967 5.5002 5.75967 5.07353L7.72634 2.05353C8.41301 1.27353 9.69301 1.7602 9.69301 2.80686L9.75967 5.0202C9.76634 5.33353 10.0263 5.58686 10.3397 5.58686H13.173C14.093 5.56019 14.8063 6.40019 14.6397 7.32019L13.713 11.6669C13.5063 12.6402 12.653 13.3402 11.6663 13.3402H7.41967L7.42634 13.3335Z" fill="#FC7521"/>
</g>
<defs>
<clipPath id="clip0_793_4558">
<rect width="16" height="16" fill="white"/>
</clipPath>
</defs>
</svg>
