<svg width="16" height="16" viewBox="0 0 16 16" fill="none" xmlns="http://www.w3.org/2000/svg">
<path d="M7.99993 11.2998C7.62438 11.2965 7.26518 11.1457 6.99993 10.8798L2.35993 6.28979C2.20393 6.11708 2.12004 5.89116 2.12549 5.65849C2.13095 5.42582 2.22535 5.20408 2.38928 5.03888C2.55321 4.87367 2.7742 4.77755 3.00682 4.77028C3.23944 4.76301 3.46601 4.84514 3.63993 4.99979L7.99993 9.34979L12.3599 4.99979C12.4402 4.90081 12.5404 4.8198 12.654 4.762C12.7676 4.70421 12.8921 4.67093 13.0194 4.66431C13.1467 4.6577 13.274 4.67789 13.3929 4.7236C13.5119 4.7693 13.62 4.83949 13.7101 4.92962C13.8002 5.01975 13.8704 5.1278 13.9161 5.24679C13.9618 5.36577 13.982 5.49303 13.9754 5.62032C13.9688 5.74761 13.9355 5.87209 13.8777 5.98569C13.8199 6.0993 13.7389 6.1995 13.6399 6.27979L8.99993 10.8798C8.7353 11.1466 8.37571 11.2976 7.99993 11.2998Z" fill="#8B8B8B"/>
</svg>
