<svg width="52" height="77" viewBox="0 0 52 77" fill="none" xmlns="http://www.w3.org/2000/svg">
<path d="M25.9071 14C26.5651 14 27.0984 13.4956 27.0984 12.8735C27.0984 12.2514 26.5651 11.7471 25.9071 11.7471C25.2492 11.7471 24.7158 12.2514 24.7158 12.8735C24.7158 13.4956 25.2492 14 25.9071 14Z" fill="#515151"/>
<path d="M25.7359 10.1785C25.2497 10.1785 24.8526 9.80655 24.8489 9.34685C24.8415 8.66607 24.8304 8.13618 24.8192 7.72561C24.7858 6.25176 24.7673 5.578 25.9252 5.36394C26.6712 5.22709 27.2575 4.813 27.5433 4.22347C27.8068 3.68656 27.7734 3.06895 27.4579 2.53556C27.0423 1.83723 26.2629 1.63721 25.6802 1.68283C25.1347 1.72494 24.463 1.99865 24.218 2.63732C24.051 3.07246 23.5426 3.29354 23.0824 3.13562C22.6222 2.97771 22.3847 2.49696 22.5554 2.06182C23.0044 0.903795 24.1475 0.117742 25.5392 0.0124672C26.9903 -0.0998261 28.3152 0.552879 29.0055 1.7109C29.6068 2.72154 29.6624 3.89009 29.1577 4.92179C28.6715 5.91839 27.7437 6.64128 26.5821 6.93605C26.5821 7.13256 26.5895 7.39926 26.5969 7.6835C26.6081 8.10109 26.6192 8.63449 26.6266 9.32579C26.6303 9.789 26.2369 10.168 25.7471 10.1715H25.7396L25.7359 10.1785Z" fill="#515151"/>
<g clip-path="url(#clip0_478_11817)">
<path d="M2.09727 22.0356C-1.21707 24.3264 2.05206 33.1548 4.07613 35.2351C6.10021 37.3154 13.6296 26.2791 13.6296 26.2791C13.6296 26.2791 6.18716 19.2067 2.09727 22.0356Z" fill="white"/>
<path d="M4.88978 37.2775C4.88978 37.2775 4.85848 37.2775 4.84457 37.2775C4.6672 37.2637 4.50722 37.1775 4.40289 37.036C1.84323 33.6241 0.785982 30.557 0.34778 28.5871C0.274746 28.2628 0.483414 27.9385 0.810326 27.8661C1.13724 27.7936 1.46415 28.0006 1.53719 28.3249C1.9267 30.0741 2.8344 32.7409 4.96629 35.7492L13.6782 27.1727C8.98662 22.1978 3.93686 20.9214 2.29882 22.2358C1.62065 22.7809 1.22766 23.9884 1.21723 25.5512C1.21723 25.8824 0.942483 26.1515 0.608614 26.1515H0.605136C0.26779 26.148 0 25.8755 0 25.5443C0.0139112 23.5882 0.556447 22.0805 1.53371 21.2974C3.91252 19.3861 9.88389 21.1352 14.9754 26.7897C15.191 27.0278 15.1806 27.3934 14.951 27.6211L5.31755 37.105C5.20278 37.2189 5.04976 37.281 4.88978 37.281V37.2775Z" fill="#515151"/>
<path d="M5.05687 25.2165C6.01674 24.4713 8.59726 25.3062 10.6944 27.8522C9.98143 28.349 9.20588 28.9424 8.40946 29.6531C7.55392 30.4121 6.83054 31.1607 6.21845 31.8576C4.12482 28.9562 4.0657 25.9893 5.05687 25.2199V25.2165Z" fill="#515151"/>
<path d="M48.713 21.4282C52.0274 23.719 48.7582 32.5474 46.7342 34.6277C44.7101 36.708 37.1807 25.6716 37.1807 25.6716C37.1807 25.6716 44.6231 18.5992 48.713 21.4282Z" fill="white"/>
<path d="M45.8475 36.7253C45.6875 36.7253 45.5345 36.6632 45.4197 36.5494L35.7897 27.0689C35.5602 26.8412 35.5497 26.479 35.7654 26.2375C40.8569 20.583 46.8248 18.8339 49.2036 20.7451C50.1808 21.5283 50.7234 23.0359 50.7373 24.9886C50.7373 25.3232 50.4695 25.5958 50.1321 25.5958H50.1287C49.7948 25.5958 49.5235 25.3267 49.5201 24.9955C49.5096 23.4327 49.1166 22.2252 48.4385 21.6801C46.8004 20.3657 41.7507 21.6421 37.0626 26.617L45.7745 35.1935C47.9029 32.1852 48.8141 29.5184 49.2036 27.7692C49.2766 27.4449 49.6 27.2379 49.9304 27.3104C50.2573 27.3828 50.466 27.7037 50.393 28.0314C49.9548 30.0048 48.8975 33.0718 46.3413 36.4804C46.237 36.6218 46.0736 36.708 45.8997 36.7218C45.8858 36.7218 45.8684 36.7218 45.8545 36.7218L45.8475 36.7253Z" fill="#515151"/>
<path d="M45.6805 24.6608C44.7206 23.9156 42.1401 24.7505 40.043 27.2966C40.7559 27.7934 41.5315 28.3868 42.3279 29.0974C43.1834 29.8564 43.9068 30.6051 44.5189 31.302C46.6125 28.4006 46.6716 25.4336 45.6805 24.6643V24.6608Z" fill="#515151"/>
<path d="M9.69978 57.6597C4.91086 62.7001 1.64521 71.77 0.612305 75.6787L51.2629 76.3411C50.2891 64.8459 44.0569 56.811 41.066 54.2339C34.3295 58.0357 26.2158 58.3255 22.9989 57.9909C23.7953 56.4005 22.665 55.5587 22.0007 55.3379C19.695 55.6035 18.8951 56.9973 18.7873 57.6597L16.1267 57.2181C11.3622 54.1235 10.4753 54.8963 9.03553 54.6755C7.88437 54.4995 8.99727 56.5902 9.69978 57.6597Z" fill="#766F65"/>
<path d="M0.675169 76.3309C0.654302 76.3309 0.636913 76.3309 0.616046 76.3309C0.243922 76.2999 -0.0308238 75.9756 0.000476399 75.6064C0.549968 69.2654 6.53873 61.1857 9.62701 57.7978C9.87742 57.5218 10.3052 57.5011 10.5799 57.7495C10.8547 57.9979 10.879 58.4223 10.6286 58.6948C7.64467 61.9688 1.86457 69.7381 1.34638 75.7203C1.31508 76.0687 1.01947 76.3309 0.675169 76.3309Z" fill="#515151"/>
<path d="M51.3255 77.0001C50.9812 77.0001 50.6856 76.7379 50.6543 76.393C49.6318 65.26 43.7439 57.8012 40.7704 55.4138C40.4817 55.1827 40.4365 54.7583 40.6695 54.472C40.9025 54.1857 41.3303 54.1408 41.619 54.3719C44.742 56.8835 50.9325 64.6907 51.9967 76.2688C52.0315 76.6379 51.7567 76.9622 51.3846 76.9967C51.3637 76.9967 51.3429 76.9967 51.322 76.9967L51.3255 77.0001Z" fill="#515151"/>
<path d="M29.6864 24.1502C34.4684 24.8229 38.7322 26.5651 42.0117 29.0146C46.279 32.1954 48.8456 36.5355 48.8456 41.2619C48.8456 45.9883 46.279 50.3249 42.0117 53.5092C37.7445 56.6901 31.8183 58.6807 25.2453 58.6807C18.6722 58.6807 12.7426 56.6901 8.47883 53.5092C4.21157 50.3249 1.64844 45.9849 1.64844 41.2619C1.64844 36.5389 4.21505 32.1989 8.4823 29.0146C12.134 26.2891 17.0029 24.44 22.4526 23.9639" fill="#EEB070"/>
<path d="M25.3153 59.3503C18.8118 59.3503 12.6978 57.4701 8.10018 54.0512C3.50254 50.6323 0.970703 46.0887 0.970703 41.2588C0.970703 36.4288 3.50254 31.8853 8.10018 28.4698C11.9571 25.6029 17.0555 23.7675 22.453 23.2949C22.8113 23.2638 23.1243 23.5364 23.1556 23.9055C23.1869 24.2747 22.9191 24.599 22.5643 24.63C17.3998 25.0785 12.5309 26.8311 8.86182 29.5565C4.60848 32.7132 2.26792 36.8704 2.26792 41.2588C2.26792 45.6471 4.60848 49.8043 8.85834 52.9644C13.2369 56.2177 19.0831 58.0082 25.3153 58.0082C31.5475 58.0082 37.3937 56.2177 41.7722 52.9644C46.0221 49.8043 48.3626 45.6505 48.3626 41.2622C48.3626 36.8739 46.0221 32.7167 41.7722 29.56C38.4648 27.1036 34.288 25.4615 29.6869 24.8163C29.3321 24.768 29.0817 24.4299 29.1304 24.0608C29.1791 23.6951 29.506 23.4398 29.8608 23.4881C34.6705 24.1643 39.0491 25.8858 42.5304 28.4698C47.128 31.8853 49.6598 36.4288 49.6598 41.2588C49.6598 46.0887 47.128 50.6323 42.5304 54.0477C37.9327 57.4632 31.8188 59.3468 25.3153 59.3468V59.3503Z" fill="#515151"/>
<path d="M23.7249 61.4305C22.4138 60.7439 20.7723 59.8711 19.788 59.0397C19.1203 58.4739 21.1409 55.9347 19.1968 54.7169C17.4127 53.5991 15.9868 55.7277 15.2252 56.497C12.9264 55.2999 9.8485 52.1501 8.23828 54.0959C6.7324 55.914 9.5981 57.7942 10.4954 58.5429C10.8258 58.8189 10.2067 59.5157 9.98761 60.185C8.9095 63.4245 12.2517 67.0608 18.23 69.4205" fill="white"/>
<path d="M18.8286 70.6314C18.7451 70.6314 18.6582 70.6176 18.5747 70.5831C11.8035 67.968 8.23872 63.8971 9.49073 60.2125C9.58811 59.9228 9.73765 59.6468 9.86633 59.4053C9.91502 59.319 9.97414 59.2052 10.0194 59.112C9.97762 59.0775 9.93241 59.043 9.88372 59.0085C8.9308 58.2771 7.33797 57.0558 7.17452 55.5551C7.10496 54.8996 7.30667 54.2855 7.77618 53.7267C9.43856 51.7636 12.0052 53.4679 14.064 54.8375C14.5753 55.1756 15.0656 55.5034 15.5247 55.769L15.5317 55.7587C16.3663 54.841 18.1087 52.9297 20.2128 54.2165C21.9343 55.2722 21.4613 57.0421 21.1796 58.1012C21.1205 58.322 21.037 58.6394 21.0231 58.805C22.063 59.6295 23.8471 60.5403 24.9287 61.0957C25.273 61.2717 25.4086 61.6926 25.2312 62.0376C25.0539 62.3791 24.6296 62.5137 24.2818 62.3377C22.6994 61.527 21.0648 60.6645 20.0111 59.7917C19.4059 59.288 19.6146 58.5014 19.8163 57.7424C20.1189 56.6039 20.2475 55.8794 19.472 55.4033C18.5434 54.8341 17.7366 55.4171 16.575 56.6902C16.422 56.8592 16.2829 57.011 16.1577 57.1317C15.942 57.3456 15.6116 57.3974 15.3404 57.2559C14.6796 56.9213 13.998 56.4659 13.278 55.9864C11.1844 54.596 9.64027 53.6818 8.85081 54.6133C8.55868 54.9583 8.55172 55.2239 8.56911 55.393C8.66649 56.3003 10.0159 57.3353 10.7393 57.8907C10.8888 58.008 11.0244 58.1081 11.1322 58.1978C11.8069 58.7498 11.3653 59.5674 11.1009 60.0539C10.9897 60.2574 10.8784 60.4678 10.8158 60.6472C9.83851 63.521 13.1563 66.9882 19.0755 69.2721C19.4372 69.4136 19.6181 69.8172 19.4755 70.176C19.3677 70.452 19.0999 70.621 18.8182 70.621L18.8286 70.6314Z" fill="#515151"/>
<path d="M27.2037 38.3571C26.7168 37.2117 24.5605 37.4946 22.0669 37.8258C20.9332 37.9741 19.7612 38.1294 19.0343 38.0776C18.457 38.0362 17.9005 37.9948 17.365 37.95C12.6456 37.5843 9.23736 37.3186 8.4166 39.9268C8.18011 40.6789 8.42355 41.1722 8.67048 41.4517C9.23388 42.0934 10.4198 42.3314 11.9466 42.3314C13.6055 42.3314 15.6608 42.052 17.7545 41.7104C18.1162 41.6518 18.4083 41.6035 18.5926 41.5793C19.1317 41.5103 20.255 41.7001 21.3436 41.8829C23.3398 42.221 25.2283 42.5419 26.1116 41.9554C27.3915 41.1067 27.8018 39.7612 27.2037 38.3571Z" fill="white"/>
<path d="M17.8967 38.816C18.8287 38.816 19.5834 38.3675 19.5834 37.812C19.5834 37.2566 18.8287 36.8081 17.8967 36.8081C16.9646 36.8081 16.21 37.2566 16.21 37.812C16.21 38.3675 16.9646 38.816 17.8967 38.816Z" fill="#515151"/>
<path d="M24.4176 24.5435C24.2924 24.5435 24.1672 24.509 24.0524 24.4365C23.7394 24.2364 23.649 23.8224 23.8507 23.5119C24.5254 22.4735 25.9304 21.1315 26.8207 20.5312C27.1302 20.3242 27.5476 20.4035 27.7597 20.7106C27.9684 21.0176 27.8884 21.4316 27.5789 21.6421C26.8172 22.1561 25.5444 23.3739 24.9879 24.2399C24.8592 24.44 24.6401 24.5469 24.421 24.5469L24.4176 24.5435Z" fill="#515151"/>
<path d="M27.3842 24.6884C27.2277 24.6884 27.0712 24.6367 26.946 24.5263C26.6643 24.2848 26.633 23.8639 26.873 23.581C27.6868 22.6426 29.2657 21.511 30.2325 21.0384C30.5664 20.8762 30.9698 21.0108 31.1368 21.342C31.3002 21.6732 31.1646 22.0734 30.8307 22.239C30.003 22.6426 28.5736 23.6741 27.8989 24.4538C27.7668 24.6091 27.5755 24.6884 27.3877 24.6884H27.3842Z" fill="#515151"/>
<path d="M13.5112 32.8233C12.8052 32.8302 12.2348 33.4029 12.2383 34.1032C12.2383 34.4448 12.3774 34.7622 12.6209 35.0002C12.8608 35.2348 13.1808 35.3659 13.5216 35.3659H13.532C14.238 35.359 14.8084 34.7863 14.8049 34.086C14.8049 33.7444 14.6658 33.427 14.4224 33.189C14.1789 32.951 13.8555 32.8199 13.5112 32.8233Z" fill="#515151"/>
<path d="M22.9113 32.8232H22.9008C22.1948 32.8301 21.6245 33.4028 21.6279 34.1066C21.6279 34.4447 21.7671 34.7656 22.0105 35.0036C22.2505 35.2382 22.5704 35.3693 22.9113 35.3693H22.9217C23.2625 35.3693 23.5859 35.2313 23.8259 34.9898C24.0659 34.7483 24.198 34.4275 24.1946 34.0859C24.1876 33.389 23.6138 32.8232 22.9113 32.8232Z" fill="#515151"/>
</g>
<defs>
<clipPath id="clip0_478_11817">
<rect width="52" height="57" fill="white" transform="translate(0 20)"/>
</clipPath>
</defs>
</svg>
