<svg width="16" height="16" viewBox="0 0 16 16" fill="none" xmlns="http://www.w3.org/2000/svg">
<g clip-path="url(#clip0_949_22448)">
<rect width="16" height="16" rx="4" fill="white"/>
<path d="M12.632 4.37996V4.17329C12.632 3.49996 12.0854 2.95996 11.4187 2.95996H3.54536C2.87203 2.95996 2.33203 3.50663 2.33203 4.17329V8.51996C2.33203 11.3666 4.64536 13.6666 7.49203 13.66C10.1787 13.66 12.412 11.5866 12.6187 8.90663H12.632C13.8854 8.90663 14.8987 7.89329 14.8987 6.63996C14.8987 5.38663 13.8854 4.37329 12.632 4.37329V4.37996ZM12.632 7.67996V5.61996C13.1987 5.61996 13.6587 6.07996 13.6587 6.64663C13.6587 7.21329 13.1987 7.67329 12.632 7.67329V7.67996Z" fill="#FC7521"/>
<path d="M8.5174 4.17324H4.00407C3.75073 4.1599 3.53073 4.3599 3.52407 4.6199C3.51073 4.87324 3.71073 5.09324 3.97073 5.0999C3.98407 5.0999 3.9974 5.0999 4.01073 5.0999H8.52407C8.7774 5.11324 8.9974 4.91324 9.00407 4.65324C9.0174 4.3999 8.8174 4.1799 8.5574 4.17324C8.54407 4.17324 8.53073 4.17324 8.5174 4.17324Z" fill="white"/>
<path d="M7.29906 6.02661H4.00573C3.7524 6.02661 3.53906 6.23328 3.53906 6.49328C3.53906 6.75328 3.74573 6.95994 4.00573 6.95994H7.29906C7.5524 6.95994 7.76573 6.75328 7.76573 6.49328C7.76573 6.23328 7.55906 6.02661 7.29906 6.02661Z" fill="white"/>
</g>
<defs>
<clipPath id="clip0_949_22448">
<rect width="16" height="16" rx="4" fill="white"/>
</clipPath>
</defs>
</svg>
