<svg width="56" height="56" viewBox="0 0 56 56" fill="none" xmlns="http://www.w3.org/2000/svg">
<circle cx="28" cy="28" r="28" fill="#FFF7E0"/>
<mask id="mask0_929_5890" style="mask-type:alpha" maskUnits="userSpaceOnUse" x="0" y="0" width="56" height="56">
<circle cx="28" cy="28" r="28" fill="#EFEFEF"/>
</mask>
<g mask="url(#mask0_929_5890)">
<g clip-path="url(#clip0_929_5890)">
<path d="M10.7276 12.4684C8.36718 14.12 10.6954 20.4852 12.1369 21.9851C13.5784 23.485 18.9408 15.5279 18.9408 15.5279C18.9408 15.5279 13.6404 10.4287 10.7276 12.4684Z" fill="white"/>
<path d="M45.2696 12.431C47.63 14.0827 45.3018 20.4479 43.8603 21.9478C42.4187 23.4476 37.0564 15.4905 37.0564 15.4905C37.0564 15.4905 42.3568 10.3914 45.2696 12.431Z" fill="white"/>
<path d="M21.1231 35.6881C12.3229 38.7277 10.8096 50.1895 11.1538 55.5423H44.8462C45.4432 43.297 40.1279 37.2054 37.3959 35.6881C35.6398 34.422 29.9233 32.6485 21.1231 35.6881Z" fill="#776F66"/>
<path d="M44.8462 56H11.1538C10.9135 56 10.7129 55.8134 10.6981 55.5722C10.334 49.8985 12.0133 38.352 20.9769 35.2553C24.9052 33.8996 28.5932 33.3474 31.9394 33.6186C35.402 33.8972 37.1556 34.9568 37.6411 35.3C40.5662 36.9417 45.9013 43.2621 45.3019 55.5647C45.2895 55.8085 45.0889 56 44.8462 56ZM11.5848 55.0846H44.4103C44.8462 43.491 39.8925 37.5959 37.1779 36.091C37.163 36.0811 37.1482 36.0736 37.1333 36.0612C35.3772 34.7951 29.7994 33.1783 21.2741 36.1234C13.0461 38.9615 11.3445 49.5204 11.5848 55.0846Z" fill="#776F66"/>
<path d="M11.1687 56C10.9309 56 10.7303 55.8134 10.713 55.5722C10.3489 49.8985 12.0282 38.3496 20.9893 35.2553C24.9176 33.8996 28.6081 33.3474 31.9518 33.6186C35.4144 33.8972 37.168 34.9568 37.6535 35.3C40.5786 36.9417 45.9137 43.2621 45.3143 55.5647C45.302 55.8184 45.0865 56.005 44.8363 56C44.5837 55.9876 44.3905 55.7736 44.4029 55.5199C44.98 43.6377 39.9371 37.6158 37.1878 36.091C37.173 36.0811 37.1581 36.0736 37.1433 36.0612C35.3872 34.7951 29.8093 33.1783 21.2841 36.1234C12.8455 39.0361 11.2752 50.08 11.6244 55.5125C11.6418 55.7637 11.451 55.9826 11.1984 56C11.1885 56 11.1786 56 11.1687 56Z" fill="#515151"/>
<path d="M12.8157 23.6517C12.8157 23.6517 12.7934 23.6517 12.7835 23.6517C12.6572 23.6418 12.5432 23.5796 12.4689 23.4776C10.6485 21.0176 9.89302 18.8063 9.58094 17.3835C9.52892 17.1497 9.67753 16.9159 9.91035 16.8661C10.1432 16.8139 10.376 16.9631 10.428 17.197C10.7054 18.4581 11.3519 20.3808 12.8702 22.5473L19.0746 16.3637C15.7334 12.7794 12.1346 11.859 10.9704 12.8067C10.4875 13.1997 10.2076 14.0703 10.2001 15.1971C10.2001 15.4359 10.0045 15.6299 9.7667 15.6299H9.76422C9.52397 15.6274 9.33325 15.4309 9.33325 15.1896C9.34316 13.7818 9.72955 12.6948 10.4255 12.1302C12.1197 10.7522 16.3724 12.0133 19.9985 16.0901C20.1521 16.2617 20.1446 16.5254 19.9812 16.6895L13.1203 23.5249C13.0386 23.6069 12.9296 23.6517 12.8157 23.6517Z" fill="#515151"/>
<path d="M12.9346 14.9558C13.6183 14.4185 15.4561 15.0205 16.9496 16.8561C16.4418 17.2143 15.8895 17.6422 15.3223 18.1546C14.713 18.7018 14.1978 19.2415 13.7619 19.744C12.2709 17.6521 12.2287 15.513 12.9346 14.9583V14.9558Z" fill="#515151"/>
<path d="M43.1867 23.6517C43.0728 23.6517 42.9638 23.6069 42.8821 23.5249L36.0237 16.6895C35.8603 16.5254 35.8528 16.2642 36.0064 16.0901C39.63 12.0133 43.8803 10.7522 45.5769 12.1302C46.2729 12.6948 46.6593 13.7818 46.6692 15.1896C46.6692 15.4309 46.4785 15.6249 46.2382 15.6274H46.2357C45.998 15.6274 45.8048 15.4334 45.8023 15.1946C45.7948 14.0678 45.515 13.1973 45.032 12.8042C43.8679 11.8566 40.269 12.7769 36.9303 16.3637L43.1347 22.5473C44.6506 20.3783 45.2995 18.4556 45.5769 17.197C45.6289 16.9631 45.8592 16.8139 46.0945 16.8661C46.3298 16.9184 46.476 17.1497 46.424 17.3835C46.1119 18.8063 45.3589 21.0176 43.5385 23.4751C43.4641 23.5771 43.3477 23.6393 43.2239 23.6492C43.214 23.6492 43.2016 23.6492 43.1917 23.6492L43.1867 23.6517Z" fill="#515151"/>
<path d="M43.0679 14.9558C42.3843 14.4185 40.5465 15.0205 39.053 16.8561C39.5607 17.2143 40.1131 17.6422 40.6803 18.1546C41.2896 18.7018 41.8047 19.2415 42.2407 19.744C43.7317 17.6521 43.7738 15.513 43.0679 14.9583V14.9558Z" fill="#515151"/>
<path d="M45.4156 26.0819C45.4404 29.6015 43.5778 32.855 40.4471 35.2628C37.3164 37.6681 32.9547 39.1929 28.1026 39.2327C23.2504 39.2725 18.8664 37.8198 15.7035 35.4668C12.5381 33.1112 10.631 29.8876 10.6062 26.3704C10.5814 22.8508 12.444 19.5973 15.5747 17.1895C18.7055 14.7842 23.0672 13.2595 27.9193 13.2197C32.7714 13.1799 37.1554 14.6325 40.3183 16.9856C43.4837 19.3411 45.3909 22.5648 45.4156 26.0819Z" fill="#EEB070"/>
<path d="M26.4234 13.9087C26.3318 13.9087 26.2377 13.8838 26.1535 13.8291C25.9206 13.6798 25.8538 13.3689 26.0024 13.1376C26.4854 12.3839 27.4909 11.4113 28.13 10.976C28.3578 10.8193 28.6674 10.879 28.8235 11.1104C28.977 11.3392 28.9201 11.6501 28.6922 11.8068C28.1473 12.1774 27.2433 13.058 26.8445 13.6798C26.7504 13.8291 26.5894 13.9111 26.4234 13.9111V13.9087Z" fill="#515151"/>
<path d="M28.4247 13.8739C28.3108 13.8739 28.1944 13.8341 28.1003 13.752C27.8922 13.5729 27.8674 13.2545 28.0482 13.0456C28.6303 12.3665 29.7622 11.5432 30.4532 11.2024C30.6985 11.0806 30.9981 11.1825 31.122 11.4313C31.2434 11.68 31.1418 11.981 30.8941 12.1029C30.3046 12.3939 29.2867 13.1401 28.8062 13.6998C28.7071 13.8142 28.5684 13.8739 28.4272 13.8739H28.4247Z" fill="#515151"/>
<path d="M27.8847 39.7152C23.1713 39.7152 18.7402 38.3472 15.3866 35.8498C11.9958 33.3276 10.1134 29.9548 10.0862 26.3555C10.0614 22.7613 11.8893 19.3635 15.238 16.7841C17.482 14.8066 21.3484 13.2918 25.0958 12.9262C25.3707 12.8963 25.6135 13.1003 25.6407 13.3764C25.668 13.6525 25.4673 13.8962 25.1924 13.9236C21.6877 14.2669 17.9477 15.7245 15.8845 17.5477C15.877 17.5552 15.8671 17.5626 15.8572 17.5701C12.7562 19.953 11.0621 23.0722 11.0844 26.3481C11.1066 29.6239 12.8454 32.7133 15.9811 35.0464C19.2108 37.4492 23.5156 38.7476 28.0779 38.7128C32.6502 38.6755 36.9276 37.3025 40.1228 34.8449C43.2238 32.462 44.9179 29.3429 44.8956 26.067C44.8733 22.7911 43.1346 19.7018 39.9989 17.3686C37.4948 15.5056 33.4948 14.048 30.2724 13.8216C29.9975 13.8017 29.7894 13.5629 29.8092 13.2868C29.829 13.0107 30.0643 12.8068 30.3417 12.8217C33.735 13.0605 37.9506 14.5977 40.5934 16.5627C43.9841 19.0874 45.8665 22.4578 45.8938 26.057C45.9186 29.6563 44.0857 33.059 40.7296 35.6384C37.3636 38.2253 32.8731 39.673 28.0878 39.7127C28.021 39.7127 27.9541 39.7127 27.8872 39.7127L27.8847 39.7152Z" fill="#515151"/>
<path d="M23.4661 25.96C23.315 25.96 23.1713 25.8655 23.1168 25.7137C23.0475 25.5197 23.1466 25.3058 23.3398 25.2362L24.3305 24.8755L23.3398 24.5123C23.1466 24.4427 23.0475 24.2288 23.1168 24.0348C23.1862 23.8408 23.3992 23.7413 23.5924 23.8109L25.5441 24.5248C25.6903 24.5795 25.7893 24.7188 25.7893 24.8755C25.7893 25.0322 25.6927 25.1715 25.5441 25.2262L23.5924 25.9376C23.5503 25.9525 23.5082 25.96 23.4661 25.96Z" fill="#515151"/>
<path d="M31.3672 25.96C31.3251 25.96 31.283 25.9525 31.2409 25.9376L29.2892 25.2262C29.143 25.1715 29.0439 25.0322 29.0439 24.8755C29.0439 24.7188 29.1405 24.5795 29.2892 24.5248L31.2409 23.8109C31.4341 23.7413 31.6471 23.8408 31.7165 24.0348C31.7858 24.2288 31.6867 24.4427 31.4935 24.5123L30.5028 24.8755L31.4935 25.2362C31.6867 25.3058 31.7858 25.5197 31.7165 25.7137C31.662 25.8655 31.5183 25.96 31.3672 25.96Z" fill="#515151"/>
<path d="M27.7615 34.7556C29.1484 34.7305 30.2485 33.3618 30.2187 31.6985C30.1889 30.0352 29.0405 28.7071 27.6537 28.7321C26.2668 28.7572 25.1667 30.1259 25.1965 31.7892C25.2263 33.4525 26.3747 34.7806 27.7615 34.7556Z" fill="#515151"/>
<path d="M34.0569 28.3877C33.7201 27.7385 32.4494 27.8404 30.406 28.0618C29.5565 28.1539 28.7515 28.2409 28.224 28.2086C27.8128 28.1837 27.414 28.1588 27.0301 28.134C23.5452 27.9126 21.2442 27.7658 20.6473 29.313C20.4838 29.7358 20.6102 30.0318 20.7464 30.2035C21.1006 30.6562 21.9972 30.8178 23.1811 30.8178C24.365 30.8178 25.814 30.6562 27.3026 30.4572C27.5626 30.4223 27.7707 30.395 27.9044 30.3801C28.2983 30.3378 29.071 30.4447 29.8884 30.5592C31.5503 30.788 32.6823 30.9173 33.2569 30.6064C34.3789 29.997 34.4037 29.0617 34.0544 28.3877H34.0569Z" fill="white"/>
<path d="M27.716 28.7305C28.4273 28.725 29.0013 28.3731 28.998 27.9445C28.9947 27.5159 28.4155 27.1729 27.7042 27.1784C26.9929 27.1839 26.4189 27.5358 26.4222 27.9644C26.4255 28.393 27.0047 28.736 27.716 28.7305Z" fill="#515151"/>
<path d="M18.2646 43.3417C19.3272 43.3989 20.6622 43.4611 21.5737 43.3094C22.1929 43.2049 21.5886 40.2151 23.4561 40.3693C25.2741 40.5185 25.0264 42.3468 25.0264 43.4387C26.884 43.5432 28.6698 43.7123 28.6674 46.9758C28.6624 51.6247 22.9409 50.8635 18.2646 50.5949" fill="white"/>
<path d="M22.7676 51.3163C21.658 51.3163 20.4914 51.2417 19.3372 51.167C18.9657 51.1422 18.5991 51.1198 18.2375 51.0974C17.9601 51.0825 17.7496 50.8437 17.7644 50.5651C17.7793 50.2865 18.017 50.0776 18.2945 50.09C18.6585 50.1099 19.0276 50.1348 19.4016 50.1597C22.4308 50.3562 25.8612 50.5775 27.3473 49.1796C27.8971 48.6623 28.1646 47.9409 28.1671 46.9758C28.1696 44.2571 26.9659 44.0531 24.9992 43.9437C24.7342 43.9288 24.5262 43.7074 24.5262 43.4412C24.5262 43.3268 24.5286 43.2025 24.5311 43.0731C24.5633 41.618 24.4098 40.9539 23.4165 40.8743C22.7874 40.827 22.6116 41.2922 22.4357 42.4339C22.3342 43.0905 22.2376 43.7099 21.658 43.8094C20.7292 43.9661 19.461 43.9139 18.24 43.8492C17.9626 43.8343 17.752 43.598 17.7669 43.3194C17.7817 43.0408 18.0146 42.8269 18.2945 42.8443C19.1093 42.8891 20.4419 42.9587 21.341 42.8418C21.3806 42.705 21.4153 42.4687 21.445 42.2821C21.5837 41.3916 21.8363 39.7351 23.5008 39.8743C25.5219 40.041 25.5615 41.8842 25.5392 42.9736C27.2036 43.093 29.1752 43.5159 29.1727 46.9833C29.1727 48.2245 28.7888 49.2145 28.0358 49.9234C26.847 51.0427 24.9175 51.3238 22.7701 51.3238L22.7676 51.3163Z" fill="#515151"/>
</g>
</g>
<defs>
<clipPath id="clip0_929_5890">
<rect width="37.3333" height="45.1111" fill="white" transform="translate(9.33325 10.8889)"/>
</clipPath>
</defs>
</svg>
