<svg width="60" height="82" viewBox="0 0 60 82" fill="none" xmlns="http://www.w3.org/2000/svg">
<path d="M30 56C45.464 56 58 43.464 58 28C58 12.536 45.464 0 30 0C14.536 0 2 12.536 2 28C2 43.464 14.536 56 30 56Z" fill="#F7F7F7"/>
<mask id="mask0_161_5239" style="mask-type:alpha" maskUnits="userSpaceOnUse" x="2" y="0" width="56" height="56">
<path d="M30 56C45.464 56 58 43.464 58 28C58 12.536 45.464 0 30 0C14.536 0 2 12.536 2 28C2 43.464 14.536 56 30 56Z" fill="#EFEFEF"/>
</mask>
<g mask="url(#mask0_161_5239)">
<path d="M12.7333 12.4443C10.3999 14.0776 12.7333 20.4554 14.1333 21.9332C15.5333 23.4109 20.8999 15.4776 20.8999 15.4776C20.8999 15.4776 15.611 10.422 12.7333 12.4443Z" fill="white"/>
<path d="M47.2665 12.4443C49.5999 14.0776 47.2665 20.4554 45.8665 21.9332C44.3887 23.4109 39.0999 15.4776 39.0999 15.4776C39.0999 15.4776 44.3887 10.422 47.2665 12.4443Z" fill="white"/>
<path d="M23.1555 35.6999C14.3666 38.7332 12.811 50.1666 13.1999 55.5332H46.8777C47.4999 43.3221 42.1332 37.1777 39.411 35.6999C37.6221 34.4554 31.9443 32.6666 23.1555 35.6999Z" fill="#707070"/>
<path d="M46.8777 55.9999H13.1222C12.8888 55.9999 12.6555 55.8443 12.6555 55.5332C12.2666 49.8554 13.9777 38.3443 22.9222 35.2332C26.8888 33.911 30.5444 33.2888 33.8888 33.5999C37.3888 33.911 39.0999 34.9221 39.5666 35.311C42.5221 36.9443 47.811 43.2443 47.1888 55.611C47.2666 55.8443 47.111 55.9999 46.8777 55.9999ZM13.5888 55.0666H46.411C46.8777 43.4777 41.8999 37.5666 39.1777 36.0888C39.1777 36.0888 39.1777 36.0888 39.0999 36.0888C37.311 34.8443 31.7888 33.211 23.2333 36.1666C15.0666 38.9666 13.3555 49.5443 13.5888 55.0666Z" fill="#707070"/>
<path d="M13.2 55.9999C12.9667 55.9999 12.7334 55.8443 12.7334 55.5332C12.3445 49.8554 14.0556 38.3443 23 35.2332C26.9667 33.911 30.6223 33.2888 33.9667 33.5999C37.4667 33.911 39.1778 34.9221 39.6445 35.311C42.6 36.9443 47.8889 43.2443 47.2667 55.611C47.2667 55.8443 47.0334 56.0777 46.8 56.0777C46.5667 56.0777 46.3334 55.8443 46.3334 55.611C46.8778 43.711 41.9 37.7221 39.1 36.1666C39.1 36.1666 39.1 36.1666 39.0223 36.1666C37.2334 34.9221 31.7111 33.2888 23.1556 36.2443C14.7556 39.1221 13.1223 50.1666 13.5111 55.611C13.6667 55.7666 13.4334 55.9999 13.2 55.9999Z" fill="#515151"/>
<path d="M14.8333 23.6443C14.8333 23.6443 14.7555 23.6443 14.8333 23.6443C14.6777 23.6443 14.5221 23.5665 14.5221 23.4887C12.7333 20.9998 11.9555 18.8221 11.6444 17.4221C11.5666 17.1887 11.7221 16.9554 11.9555 16.8776C12.1888 16.7998 12.4221 16.9554 12.4999 17.1887C12.811 18.4332 13.4333 20.3776 14.911 22.5554L21.1333 16.3332C17.7888 12.7554 14.211 11.8221 13.0444 12.7554C12.5777 13.1443 12.2666 13.9998 12.2666 15.1665C12.2666 15.3998 12.0333 15.6332 11.7999 15.6332C11.5666 15.6332 11.3333 15.3998 11.3333 15.1665C11.3333 13.7665 11.7221 12.6776 12.4221 12.1332C14.1333 10.7332 18.3333 11.9776 21.9888 16.0998C22.1444 16.2554 22.1444 16.5665 21.9888 16.7221L15.1444 23.5665C15.0666 23.6443 14.911 23.6443 14.8333 23.6443Z" fill="#515151"/>
<path d="M14.9111 14.9332C15.6111 14.3888 17.4 15.011 18.9555 16.7999C18.4111 17.1888 17.8666 17.5777 17.3222 18.1221C16.7 18.6666 16.2333 19.211 15.7666 19.6777C14.2889 17.6555 14.2111 15.4777 14.9111 14.9332Z" fill="#515151"/>
<path d="M45.1665 23.6445C45.0887 23.6445 44.9332 23.5667 44.8554 23.489L38.011 16.6445C37.8554 16.489 37.8554 16.2556 38.011 16.0223C41.6665 11.9778 45.8665 10.6556 47.5776 12.0556C48.2776 12.6001 48.6665 13.689 48.6665 15.089C48.6665 15.3223 48.511 15.5556 48.1998 15.5556C47.9665 15.5556 47.7332 15.4001 47.7332 15.089C47.7332 14.0001 47.4221 13.0667 46.9554 12.6778C45.7887 11.7445 42.211 12.6778 38.8665 16.2556L45.0887 22.4778C46.5665 20.3001 47.2665 18.3556 47.4998 17.1112C47.5776 16.8778 47.811 16.7223 48.0443 16.8001C48.2776 16.8778 48.4332 17.1112 48.3554 17.3445C48.0443 18.7445 47.2665 21.0001 45.4776 23.4112C45.4776 23.5667 45.3221 23.6445 45.1665 23.6445C45.2443 23.6445 45.1665 23.6445 45.1665 23.6445Z" fill="#515151"/>
<path d="M45.0889 14.9332C44.3889 14.3888 42.6 15.011 41.0444 16.7999C41.5889 17.1888 42.1333 17.5777 42.6778 18.1221C43.3 18.6666 43.7667 19.211 44.2333 19.6777C45.7111 17.6555 45.7889 15.4777 45.0889 14.9332Z" fill="#515151"/>
<path d="M47.4221 26.0555C47.4221 29.5555 45.5554 32.8222 42.4443 35.2333C39.3332 37.6444 34.9776 39.1999 30.0776 39.1999C25.2554 39.2777 20.8221 37.7999 17.711 35.4666C14.5221 33.1333 12.6554 29.8666 12.5776 26.3666C12.5776 22.8666 14.4443 19.5999 17.5554 17.1888C20.6665 14.7777 25.0221 13.2222 29.9221 13.2222C34.7443 13.1444 39.1776 14.6222 42.2887 16.9555C45.4776 19.3666 47.4221 22.5555 47.4221 26.0555Z" fill="#BCBCBC"/>
<path d="M28.4444 13.9222C28.3666 13.9222 28.2889 13.9222 28.2111 13.8444C27.9778 13.6889 27.9 13.3778 28.0555 13.1444C28.5222 12.3667 29.5333 11.4333 30.1555 10.9667C30.3889 10.8111 30.7 10.8889 30.8555 11.1222C31.0111 11.3556 30.9333 11.6667 30.7 11.8222C30.1555 12.2111 29.2222 13.0667 28.8333 13.6889C28.7555 13.8444 28.6 13.9222 28.4444 13.9222Z" fill="#515151"/>
<path d="M30.3889 13.8444C30.3111 13.8444 30.1556 13.7666 30.0778 13.6889C29.8445 13.5333 29.8445 13.2222 30 12.9889C30.5445 12.2889 31.7111 11.5111 32.4111 11.1222C32.6445 10.9666 32.9556 11.1222 33.1111 11.3555C33.2667 11.5889 33.1111 11.9 32.8778 12.0555C32.2556 12.3666 31.2445 13.0666 30.7778 13.6889C30.7 13.8444 30.5445 13.8444 30.3889 13.8444Z" fill="#515151"/>
<path d="M29.9222 39.7443C25.1778 39.7443 20.7444 38.3443 17.4 35.8554C13.9777 33.3665 12.1111 29.9443 12.1111 26.3665C12.1111 22.7887 13.9 19.3665 17.2444 16.7998C19.5 14.8554 23.3889 13.2998 27.1222 12.9109C27.4333 12.9109 27.6666 13.0665 27.6666 13.3776C27.6666 13.6887 27.5111 13.922 27.2 13.922C23.7 14.2331 19.9666 15.7109 17.8666 17.5776C14.7555 19.9887 13.0444 23.0998 13.1222 26.3665C13.1222 29.6332 14.9111 32.7443 18.0222 35.0776C21.2889 37.4887 25.5666 38.8109 30.1555 38.7331C34.7444 38.7331 39.0222 37.3331 42.2111 34.8443C45.3222 32.4331 47.0333 29.322 46.9555 26.0554C46.9555 22.7887 45.1666 19.6776 42.0555 17.3443C39.5666 15.4776 35.5222 13.9998 32.3333 13.7665C32.0222 13.7665 31.8666 13.5331 31.8666 13.222C31.8666 12.9109 32.1 12.7554 32.4111 12.7554C35.8333 12.9887 40.0333 14.5443 42.6777 16.4887C46.1 18.9776 47.9666 22.3998 47.9666 25.9776C47.9666 29.5554 46.1777 32.9776 42.8333 35.5443C39.3333 38.1887 34.9 39.6665 30.0777 39.7443C30 39.7443 29.9222 39.7443 29.9222 39.7443Z" fill="#515151"/>
<path d="M25.4889 25.9778C25.3334 25.9778 25.1778 25.9 25.1778 25.7444C25.1 25.5889 25.1778 25.3555 25.4111 25.2778L26.4223 24.8889L25.3334 24.5C25.1778 24.4222 25.0223 24.1889 25.1 24.0333C25.1778 23.8778 25.4111 23.7222 25.5667 23.8L27.5111 24.5C27.6667 24.5778 27.7445 24.6555 27.7445 24.8889C27.7445 25.0444 27.6667 25.2 27.5111 25.2778L25.5667 25.9778H25.4889Z" fill="#515151"/>
<path d="M33.3443 25.9779C33.2665 25.9779 33.2665 25.9779 33.1888 25.9779L31.2443 25.2779C31.0888 25.2002 31.011 25.1224 31.011 24.8891C31.011 24.7335 31.0888 24.5779 31.2443 24.5002L33.1888 23.8002C33.3443 23.7224 33.5777 23.8002 33.6554 24.0335C33.7332 24.1891 33.6554 24.4224 33.4221 24.5002L32.4888 24.8891L33.4999 25.2779C33.6554 25.3557 33.811 25.5891 33.7332 25.7446C33.6554 25.9002 33.4999 25.9779 33.3443 25.9779Z" fill="#515151"/>
<path d="M29.7666 34.7667C31.1666 34.7667 32.2555 33.3667 32.2555 31.7334C32.2555 30.1001 31.0888 28.7778 29.6888 28.7778C28.2888 28.7778 27.2 30.1778 27.2 31.8112C27.2 33.4445 28.3666 34.7667 29.7666 34.7667Z" fill="#515151"/>
<path d="M36.0667 28.3888C35.7555 27.7666 34.4333 27.8443 32.4111 28.0777C31.5555 28.1555 30.7778 28.2332 30.2333 28.2332C29.8444 28.2332 29.4555 28.1555 29.0666 28.1555C25.5666 27.9221 23.3111 27.7666 22.6889 29.3221C22.5333 29.711 22.6889 30.0221 22.7667 30.1777C23.1555 30.6443 24.0111 30.7999 25.1778 30.7999C26.3444 30.7999 27.8222 30.6443 29.3 30.411C29.5333 30.411 29.7667 30.3332 29.9222 30.3332C30.3111 30.2555 31.0889 30.411 31.9444 30.4888C33.5778 30.7221 34.7444 30.8777 35.2889 30.5666C36.3778 30.0221 36.3778 29.0888 36.0667 28.3888Z" fill="white"/>
<path d="M29.6889 28.7001C30.3889 28.7001 31.0111 28.3112 30.9334 27.9223C30.9334 27.4556 30.3889 27.1445 29.6111 27.1445C28.9111 27.1445 28.2889 27.5334 28.3667 27.9223C28.4445 28.389 28.9889 28.7001 29.6889 28.7001Z" fill="#515151"/>
<path d="M20.2776 43.3222C21.3665 43.4 22.6887 43.4777 23.622 43.3222C24.2443 43.2444 23.622 40.2111 25.4887 40.3666C27.2776 40.5222 27.0443 42.3111 27.0443 43.4C28.9109 43.4777 30.6998 43.7111 30.6998 46.9C30.6998 51.5666 24.9443 50.7888 20.2776 50.5555" fill="white"/>
<path d="M24.7888 51.3333C23.6999 51.3333 22.5333 51.2555 21.3666 51.1777C20.9777 51.1777 20.6666 51.0999 20.2777 51.0999C19.9666 51.0999 19.811 50.8666 19.811 50.5555C19.811 50.2444 20.0444 50.0888 20.3555 50.0888C20.7444 50.0888 21.0555 50.1666 21.4444 50.1666C24.4777 50.3999 27.8999 50.5555 29.3777 49.1555C29.9221 48.611 30.2333 47.911 30.2333 46.9777C30.2333 44.2555 29.0666 44.0221 27.0444 43.9444C26.811 43.9444 26.5777 43.711 26.5777 43.4777C26.5777 43.3999 26.5777 43.2444 26.5777 43.0888C26.5777 41.611 26.4221 40.9888 25.4888 40.911C24.8666 40.8333 24.711 41.2999 24.4777 42.4666C24.3999 43.0888 24.2444 43.711 23.6999 43.8666C22.7666 44.0221 21.5221 43.9444 20.2777 43.9444C19.9666 43.9444 19.811 43.711 19.811 43.3999C19.811 43.0888 20.0444 42.9333 20.3555 42.9333C21.1333 43.011 22.5333 43.011 23.3888 42.9333C23.4666 42.7777 23.4666 42.5444 23.4666 42.3888C23.6221 41.5333 23.8555 39.8221 25.4888 39.9777C27.511 40.1333 27.511 41.9999 27.511 43.0888C29.1444 43.2444 31.1666 43.6333 31.1666 47.1333C31.1666 48.3777 30.7777 49.3888 29.9999 50.0888C28.8333 51.0221 26.8888 51.3333 24.7888 51.3333Z" fill="#515151"/>
</g>
<path d="M7.94103 73.501L8.40903 74.554C9.3797 74.424 10.2247 74.1597 10.944 73.761C11.672 73.3623 12.231 72.864 12.621 72.266C13.011 72.864 13.5657 73.3667 14.285 73.774C15.013 74.1727 15.8624 74.4327 16.833 74.554L17.314 73.501C16.742 73.4317 16.2177 73.3103 15.741 73.137C15.2644 72.955 14.8484 72.7383 14.493 72.487C14.1464 72.2357 13.869 71.9583 13.661 71.655C13.453 71.3517 13.336 71.044 13.31 70.732H16.937V69.653H13.297V68.262H11.958V69.653H8.33103V70.732H11.945C11.919 71.044 11.802 71.3517 11.594 71.655C11.386 71.9583 11.1044 72.2357 10.749 72.487C10.4024 72.7383 9.9907 72.955 9.51403 73.137C9.03736 73.3103 8.51303 73.4317 7.94103 73.501ZM17.938 76.426V75.321H7.33003V76.426H11.958V80.027H13.297V76.426H17.938ZM27.284 71.785H25.126V72.89H27.284V76.998H28.623V68.275H27.284V71.785ZM25.23 75.464L25.88 74.411C25.4293 74.2723 25.0263 74.086 24.671 73.852C24.3157 73.618 24.0167 73.3537 23.774 73.059C23.5313 72.7643 23.345 72.448 23.215 72.11C23.0937 71.7633 23.033 71.408 23.033 71.044V70.823H25.503V69.744H23.046V68.327H21.694V69.744H19.224V70.823H21.694V71.044C21.694 71.434 21.629 71.811 21.499 72.175C21.3777 72.539 21.1957 72.877 20.953 73.189C20.719 73.501 20.4243 73.7827 20.069 74.034C19.7223 74.2767 19.3237 74.476 18.873 74.632L19.536 75.672C20.2207 75.4467 20.8013 75.1087 21.278 74.658C21.7633 74.2073 22.136 73.683 22.396 73.085C22.656 73.6397 23.0243 74.125 23.501 74.541C23.9777 74.9483 24.554 75.256 25.23 75.464ZM28.922 78.688H22.357V76.244H21.018V79.78H28.922V78.688ZM40.465 68.262H39.191V73.124H37.943V68.509H36.695V79.455H37.943V74.229H39.191V80.001H40.465V68.262ZM33.991 70.173V68.6H32.665V70.173H30.442V71.252H36.188V70.173H33.991ZM33.328 71.915C32.9553 71.915 32.613 71.98 32.301 72.11C31.989 72.24 31.7203 72.4263 31.495 72.669C31.2697 72.9117 31.092 73.202 30.962 73.54C30.8407 73.8693 30.78 74.2377 30.78 74.645C30.78 75.0437 30.8407 75.412 30.962 75.75C31.092 76.088 31.2697 76.3783 31.495 76.621C31.7203 76.855 31.989 77.0413 32.301 77.18C32.613 77.31 32.9553 77.375 33.328 77.375C33.7007 77.375 34.043 77.31 34.355 77.18C34.667 77.0413 34.9357 76.855 35.161 76.621C35.3863 76.3783 35.5597 76.088 35.681 75.75C35.811 75.412 35.876 75.0437 35.876 74.645C35.876 74.2377 35.811 73.8693 35.681 73.54C35.5597 73.202 35.3863 72.9117 35.161 72.669C34.9357 72.4263 34.667 72.24 34.355 72.11C34.043 71.98 33.7007 71.915 33.328 71.915ZM33.328 76.257C32.9293 76.257 32.6043 76.114 32.353 75.828C32.1017 75.5333 31.976 75.139 31.976 74.645C31.976 74.151 32.1017 73.7567 32.353 73.462C32.6043 73.1673 32.9293 73.02 33.328 73.02C33.7267 73.02 34.0517 73.1673 34.303 73.462C34.5543 73.7567 34.68 74.151 34.68 74.645C34.68 75.139 34.5543 75.5333 34.303 75.828C34.0517 76.114 33.7267 76.257 33.328 76.257ZM52.671 77.466H50.162V74.411C50.63 74.1423 50.994 73.8043 51.254 73.397C51.5227 72.9897 51.657 72.526 51.657 72.006C51.657 71.538 51.5487 71.1177 51.332 70.745C51.1153 70.3637 50.8163 70.0387 50.435 69.77C50.0537 69.5013 49.5987 69.2977 49.07 69.159C48.5413 69.0117 47.965 68.938 47.341 68.938C46.717 68.938 46.1407 69.0117 45.612 69.159C45.0833 69.2977 44.624 69.5013 44.234 69.77C43.8527 70.0387 43.5537 70.3637 43.337 70.745C43.129 71.1177 43.025 71.538 43.025 72.006C43.025 72.526 43.155 72.994 43.415 73.41C43.6837 73.8173 44.052 74.151 44.52 74.411V77.466H42.037V78.558H52.671V77.466ZM47.341 69.991C47.783 69.991 48.186 70.0387 48.55 70.134C48.9227 70.2293 49.239 70.3637 49.499 70.537C49.7677 70.7103 49.9757 70.9227 50.123 71.174C50.2703 71.4167 50.344 71.694 50.344 72.006C50.344 72.318 50.2703 72.5997 50.123 72.851C49.9757 73.1023 49.7677 73.3147 49.499 73.488C49.239 73.6613 48.9227 73.7957 48.55 73.891C48.186 73.9863 47.783 74.034 47.341 74.034C46.899 74.034 46.4917 73.9863 46.119 73.891C45.7463 73.7957 45.4257 73.6613 45.157 73.488C44.897 73.3147 44.6933 73.1023 44.546 72.851C44.3987 72.5997 44.325 72.318 44.325 72.006C44.325 71.694 44.3987 71.4167 44.546 71.174C44.6933 70.9227 44.897 70.7103 45.157 70.537C45.4257 70.3637 45.7463 70.2293 46.119 70.134C46.4917 70.0387 46.899 69.991 47.341 69.991ZM45.859 77.466V74.918C46.3183 75.022 46.8123 75.074 47.341 75.074C47.601 75.074 47.8567 75.061 48.108 75.035C48.3593 75.009 48.5977 74.9657 48.823 74.905V77.466H45.859Z" fill="#ACACAC"/>
</svg>
