<svg width="56" height="56" viewBox="0 0 56 56" fill="none" xmlns="http://www.w3.org/2000/svg">
<path d="M28 56C43.464 56 56 43.464 56 28C56 12.536 43.464 0 28 0C12.536 0 0 12.536 0 28C0 43.464 12.536 56 28 56Z" fill="#F7F7F7"/>
<mask id="mask0_929_5976" style="mask-type:alpha" maskUnits="userSpaceOnUse" x="0" y="0" width="56" height="56">
<path d="M28 56C43.464 56 56 43.464 56 28C56 12.536 43.464 0 28 0C12.536 0 0 12.536 0 28C0 43.464 12.536 56 28 56Z" fill="#EFEFEF"/>
</mask>
<g mask="url(#mask0_929_5976)">
<path d="M10.7333 12.4444C8.39992 14.0778 10.7333 20.4556 12.1333 21.9333C13.5333 23.4111 18.8999 15.4778 18.8999 15.4778C18.8999 15.4778 13.611 10.4222 10.7333 12.4444Z" fill="white"/>
<path d="M45.2665 12.4444C47.5999 14.0778 45.2665 20.4556 43.8665 21.9333C42.3887 23.4111 37.0999 15.4778 37.0999 15.4778C37.0999 15.4778 42.3887 10.4222 45.2665 12.4444Z" fill="white"/>
<path d="M21.1555 35.7C12.3666 38.7333 10.811 50.1667 11.1999 55.5333H44.8777C45.4999 43.3222 40.1332 37.1778 37.411 35.7C35.6221 34.4556 29.9443 32.6667 21.1555 35.7Z" fill="#707070"/>
<path d="M44.8777 56H11.1222C10.8888 56 10.6555 55.8445 10.6555 55.5333C10.2666 49.8556 11.9777 38.3445 20.9222 35.2333C24.8888 33.9111 28.5444 33.2889 31.8888 33.6C35.3888 33.9111 37.0999 34.9222 37.5666 35.3111C40.5221 36.9445 45.811 43.2445 45.1888 55.6111C45.2666 55.8445 45.111 56 44.8777 56ZM11.5888 55.0667H44.411C44.8777 43.4778 39.8999 37.5667 37.1777 36.0889C37.1777 36.0889 37.1777 36.0889 37.0999 36.0889C35.311 34.8445 29.7888 33.2111 21.2333 36.1667C13.0666 38.9667 11.3555 49.5445 11.5888 55.0667Z" fill="#707070"/>
<path d="M11.2 56C10.9667 56 10.7334 55.8445 10.7334 55.5333C10.3445 49.8556 12.0556 38.3445 21 35.2333C24.9667 33.9111 28.6223 33.2889 31.9667 33.6C35.4667 33.9111 37.1778 34.9222 37.6445 35.3111C40.6 36.9445 45.8889 43.2445 45.2667 55.6111C45.2667 55.8445 45.0334 56.0778 44.8 56.0778C44.5667 56.0778 44.3334 55.8445 44.3334 55.6111C44.8778 43.7111 39.9 37.7222 37.1 36.1667C37.1 36.1667 37.1 36.1667 37.0223 36.1667C35.2334 34.9222 29.7111 33.2889 21.1556 36.2445C12.7556 39.1222 11.1223 50.1667 11.5111 55.6111C11.6667 55.7667 11.4334 56 11.2 56Z" fill="#515151"/>
<path d="M12.8333 23.6445C12.8333 23.6445 12.7555 23.6445 12.8333 23.6445C12.6777 23.6445 12.5221 23.5667 12.5221 23.4889C10.7333 21 9.95547 18.8222 9.64436 17.4222C9.56658 17.1889 9.72214 16.9556 9.95547 16.8778C10.1888 16.8 10.4221 16.9556 10.4999 17.1889C10.811 18.4334 11.4333 20.3778 12.911 22.5556L19.1333 16.3334C15.7888 12.7556 12.211 11.8222 11.0444 12.7556C10.5777 13.1445 10.2666 14 10.2666 15.1667C10.2666 15.4 10.0333 15.6334 9.79992 15.6334C9.56659 15.6334 9.33325 15.4 9.33325 15.1667C9.33325 13.7667 9.72214 12.6778 10.4221 12.1334C12.1333 10.7334 16.3333 11.9778 19.9888 16.1C20.1444 16.2556 20.1444 16.5667 19.9888 16.7222L13.1444 23.5667C13.0666 23.6445 12.911 23.6445 12.8333 23.6445Z" fill="#515151"/>
<path d="M12.9111 14.9334C13.6111 14.3889 15.4 15.0111 16.9555 16.8C16.4111 17.1889 15.8666 17.5778 15.3222 18.1222C14.7 18.6667 14.2333 19.2111 13.7666 19.6778C12.2889 17.6556 12.2111 15.4778 12.9111 14.9334Z" fill="#515151"/>
<path d="M43.1665 23.6445C43.0887 23.6445 42.9332 23.5667 42.8554 23.4889L36.011 16.6445C35.8554 16.4889 35.8554 16.2556 36.011 16.0222C39.6665 11.9778 43.8665 10.6556 45.5776 12.0556C46.2776 12.6 46.6665 13.6889 46.6665 15.0889C46.6665 15.3222 46.511 15.5556 46.1998 15.5556C45.9665 15.5556 45.7332 15.4 45.7332 15.0889C45.7332 14 45.4221 13.0667 44.9554 12.6778C43.7887 11.7445 40.211 12.6778 36.8665 16.2556L43.0887 22.4778C44.5665 20.3 45.2665 18.3556 45.4998 17.1111C45.5776 16.8778 45.811 16.7222 46.0443 16.8C46.2776 16.8778 46.4332 17.1111 46.3554 17.3445C46.0443 18.7445 45.2665 21 43.4776 23.4111C43.4776 23.5667 43.3221 23.6445 43.1665 23.6445C43.2443 23.6445 43.1665 23.6445 43.1665 23.6445Z" fill="#515151"/>
<path d="M43.0889 14.9334C42.3889 14.3889 40.6 15.0111 39.0444 16.8C39.5889 17.1889 40.1333 17.5778 40.6778 18.1222C41.3 18.6667 41.7667 19.2111 42.2333 19.6778C43.7111 17.6556 43.7889 15.4778 43.0889 14.9334Z" fill="#515151"/>
<path d="M45.4221 26.0556C45.4221 29.5556 43.5554 32.8222 40.4443 35.2333C37.3332 37.6444 32.9776 39.2 28.0776 39.2C23.2554 39.2778 18.8221 37.8 15.711 35.4667C12.5221 33.1333 10.6554 29.8667 10.5776 26.3667C10.5776 22.8667 12.4443 19.6 15.5554 17.1889C18.6665 14.7778 23.0221 13.2222 27.9221 13.2222C32.7443 13.1444 37.1776 14.6222 40.2887 16.9556C43.4776 19.3667 45.4221 22.5556 45.4221 26.0556Z" fill="#BCBCBC"/>
<path d="M26.4444 13.9222C26.3666 13.9222 26.2889 13.9222 26.2111 13.8444C25.9778 13.6889 25.9 13.3778 26.0555 13.1444C26.5222 12.3667 27.5333 11.4333 28.1555 10.9667C28.3889 10.8111 28.7 10.8889 28.8555 11.1222C29.0111 11.3556 28.9333 11.6667 28.7 11.8222C28.1555 12.2111 27.2222 13.0667 26.8333 13.6889C26.7555 13.8444 26.6 13.9222 26.4444 13.9222Z" fill="#515151"/>
<path d="M28.3889 13.8445C28.3111 13.8445 28.1556 13.7667 28.0778 13.6889C27.8445 13.5334 27.8445 13.2222 28 12.9889C28.5445 12.2889 29.7111 11.5111 30.4111 11.1222C30.6445 10.9667 30.9556 11.1222 31.1111 11.3556C31.2667 11.5889 31.1111 11.9 30.8778 12.0556C30.2556 12.3667 29.2445 13.0667 28.7778 13.6889C28.7 13.8445 28.5445 13.8445 28.3889 13.8445Z" fill="#515151"/>
<path d="M27.9222 39.7444C23.1778 39.7444 18.7444 38.3444 15.4 35.8556C11.9777 33.3667 10.1111 29.9444 10.1111 26.3667C10.1111 22.7889 11.9 19.3667 15.2444 16.8C17.5 14.8556 21.3889 13.3 25.1222 12.9111C25.4333 12.9111 25.6666 13.0667 25.6666 13.3778C25.6666 13.6889 25.5111 13.9222 25.2 13.9222C21.7 14.2333 17.9666 15.7111 15.8666 17.5778C12.7555 19.9889 11.0444 23.1 11.1222 26.3667C11.1222 29.6333 12.9111 32.7444 16.0222 35.0778C19.2889 37.4889 23.5666 38.8111 28.1555 38.7333C32.7444 38.7333 37.0222 37.3333 40.2111 34.8444C43.3222 32.4333 45.0333 29.3222 44.9555 26.0556C44.9555 22.7889 43.1666 19.6778 40.0555 17.3444C37.5666 15.4778 33.5222 14 30.3333 13.7667C30.0222 13.7667 29.8666 13.5333 29.8666 13.2222C29.8666 12.9111 30.1 12.7556 30.4111 12.7556C33.8333 12.9889 38.0333 14.5444 40.6777 16.4889C44.1 18.9778 45.9666 22.4 45.9666 25.9778C45.9666 29.5556 44.1777 32.9778 40.8333 35.5444C37.3333 38.1889 32.9 39.6667 28.0777 39.7444C28 39.7444 27.9222 39.7444 27.9222 39.7444Z" fill="#515151"/>
<path d="M23.4889 25.9778C23.3334 25.9778 23.1778 25.9 23.1778 25.7444C23.1 25.5889 23.1778 25.3555 23.4111 25.2778L24.4223 24.8889L23.3334 24.5C23.1778 24.4222 23.0223 24.1889 23.1 24.0333C23.1778 23.8778 23.4111 23.7222 23.5667 23.8L25.5111 24.5C25.6667 24.5778 25.7445 24.6555 25.7445 24.8889C25.7445 25.0444 25.6667 25.2 25.5111 25.2778L23.5667 25.9778H23.4889Z" fill="#515151"/>
<path d="M31.3443 25.9778C31.2665 25.9778 31.2665 25.9778 31.1888 25.9778L29.2443 25.2778C29.0888 25.2 29.011 25.1222 29.011 24.8889C29.011 24.7333 29.0888 24.5778 29.2443 24.5L31.1888 23.8C31.3443 23.7222 31.5777 23.8 31.6554 24.0333C31.7332 24.1889 31.6554 24.4222 31.4221 24.5L30.4888 24.8889L31.4999 25.2778C31.6554 25.3555 31.811 25.5889 31.7332 25.7444C31.6554 25.9 31.4999 25.9778 31.3443 25.9778Z" fill="#515151"/>
<path d="M27.7666 34.7667C29.1666 34.7667 30.2555 33.3667 30.2555 31.7333C30.2555 30.1 29.0888 28.7778 27.6888 28.7778C26.2888 28.7778 25.2 30.1778 25.2 31.8111C25.2 33.4444 26.3666 34.7667 27.7666 34.7667Z" fill="#515151"/>
<path d="M34.0667 28.3889C33.7555 27.7667 32.4333 27.8445 30.4111 28.0778C29.5555 28.1556 28.7778 28.2334 28.2333 28.2334C27.8444 28.2334 27.4555 28.1556 27.0666 28.1556C23.5666 27.9222 21.3111 27.7667 20.6889 29.3222C20.5333 29.7111 20.6889 30.0222 20.7667 30.1778C21.1555 30.6445 22.0111 30.8 23.1778 30.8C24.3444 30.8 25.8222 30.6445 27.3 30.4111C27.5333 30.4111 27.7667 30.3334 27.9222 30.3334C28.3111 30.2556 29.0889 30.4111 29.9444 30.4889C31.5778 30.7222 32.7444 30.8778 33.2889 30.5667C34.3778 30.0222 34.3778 29.0889 34.0667 28.3889Z" fill="white"/>
<path d="M27.6889 28.7C28.3889 28.7 29.0111 28.3111 28.9334 27.9222C28.9334 27.4556 28.3889 27.1445 27.6111 27.1445C26.9111 27.1445 26.2889 27.5334 26.3667 27.9222C26.4445 28.3889 26.9889 28.7 27.6889 28.7Z" fill="#515151"/>
<path d="M18.2776 43.3222C19.3665 43.4 20.6887 43.4778 21.622 43.3222C22.2443 43.2445 21.622 40.2111 23.4887 40.3667C25.2776 40.5222 25.0443 42.3111 25.0443 43.4C26.9109 43.4778 28.6998 43.7111 28.6998 46.9C28.6998 51.5667 22.9443 50.7889 18.2776 50.5556" fill="white"/>
<path d="M22.7888 51.3333C21.6999 51.3333 20.5333 51.2555 19.3666 51.1778C18.9777 51.1778 18.6666 51.1 18.2777 51.1C17.9666 51.1 17.811 50.8667 17.811 50.5555C17.811 50.2444 18.0444 50.0889 18.3555 50.0889C18.7444 50.0889 19.0555 50.1667 19.4444 50.1667C22.4777 50.4 25.8999 50.5555 27.3777 49.1555C27.9221 48.6111 28.2333 47.9111 28.2333 46.9778C28.2333 44.2555 27.0666 44.0222 25.0444 43.9444C24.811 43.9444 24.5777 43.7111 24.5777 43.4778C24.5777 43.4 24.5777 43.2444 24.5777 43.0889C24.5777 41.6111 24.4221 40.9889 23.4888 40.9111C22.8666 40.8333 22.711 41.3 22.4777 42.4666C22.3999 43.0889 22.2444 43.7111 21.6999 43.8667C20.7666 44.0222 19.5221 43.9444 18.2777 43.9444C17.9666 43.9444 17.811 43.7111 17.811 43.4C17.811 43.0889 18.0444 42.9333 18.3555 42.9333C19.1333 43.0111 20.5333 43.0111 21.3888 42.9333C21.4666 42.7778 21.4666 42.5444 21.4666 42.3889C21.6221 41.5333 21.8555 39.8222 23.4888 39.9778C25.511 40.1333 25.511 42 25.511 43.0889C27.1444 43.2444 29.1666 43.6333 29.1666 47.1333C29.1666 48.3778 28.7777 49.3889 27.9999 50.0889C26.8333 51.0222 24.8888 51.3333 22.7888 51.3333Z" fill="#515151"/>
</g>
</svg>
