<svg width="36" height="36" viewBox="0 0 36 36" fill="none" xmlns="http://www.w3.org/2000/svg">
<circle cx="18" cy="18" r="17.5" fill="white" stroke="#E3E3E3"/>
<path d="M19.3997 23.9002C19.1609 23.8989 18.9317 23.8058 18.7597 23.6402L14.1197 19.0002C13.8606 18.7317 13.7158 18.3732 13.7158 18.0002C13.7158 17.6271 13.8606 17.2686 14.1197 17.0002L18.7097 12.4002C18.7831 12.2886 18.8802 12.1945 18.994 12.1246C19.1079 12.0547 19.2358 12.0108 19.3685 11.9959C19.5013 11.981 19.6357 11.9955 19.7622 12.0384C19.8888 12.0814 20.0043 12.1516 20.1006 12.2442C20.1969 12.3368 20.2717 12.4494 20.3195 12.5741C20.3674 12.6989 20.3872 12.8326 20.3776 12.9658C20.368 13.0991 20.3291 13.2286 20.2638 13.3451C20.1985 13.4617 20.1083 13.5624 19.9997 13.6402L15.6497 18.0002L19.9997 22.3602C20.1682 22.5305 20.2628 22.7605 20.2628 23.0002C20.2628 23.2398 20.1682 23.4698 19.9997 23.6402C19.8377 23.7966 19.6246 23.889 19.3997 23.9002Z" fill="#333333"/>
</svg>
