<svg width="24" height="24" viewBox="0 0 24 24" fill="none" xmlns="http://www.w3.org/2000/svg">
<path d="M12 3.79983C13.6861 3.77845 15.3118 4.42644 16.5209 5.60176C17.7299 6.77709 18.4237 8.38385 18.45 10.0698C18.45 13.6698 16.28 15.8698 12.35 19.8598L12 20.1998L11.66 19.8498C7.73 15.8498 5.56 13.6698 5.56 10.0698C5.58634 8.3856 6.2787 6.78037 7.48559 5.60533C8.69249 4.43029 10.3157 3.78111 12 3.79983ZM12 1.99983C10.9284 1.98794 9.86495 2.18726 8.87038 2.5864C7.87581 2.98553 6.9696 3.57667 6.2035 4.32605C5.43741 5.07543 4.82643 5.96838 4.40545 6.9539C3.98448 7.93943 3.76175 8.99822 3.75 10.0698C3.75 14.5298 6.39 17.0698 10.75 21.4698C11.0929 21.8106 11.5566 22.0018 12.04 22.0018C12.5234 22.0018 12.9871 21.8106 13.33 21.4698C17.56 17.1798 20.33 14.5298 20.33 10.0698C20.3183 8.99138 20.093 7.92595 19.667 6.93512C19.2411 5.9443 18.6229 5.04775 17.8483 4.29732C17.0737 3.54688 16.158 2.95744 15.1541 2.56309C14.1503 2.16874 13.0783 1.9773 12 1.99983Z" fill="#333333"/>
<path d="M12 14.0002C11.2781 14.0002 10.5724 13.7861 9.97217 13.3851C9.37193 12.984 8.9041 12.4139 8.62784 11.747C8.35158 11.08 8.2793 10.3461 8.42013 9.63812C8.56097 8.93009 8.9086 8.27972 9.41906 7.76926C9.92952 7.2588 10.5799 6.91117 11.2879 6.77033C11.996 6.62949 12.7298 6.70178 13.3968 6.97804C14.0637 7.2543 14.6338 7.72213 15.0349 8.32237C15.4359 8.92261 15.65 9.6283 15.65 10.3502C15.6474 11.3174 15.262 12.2443 14.578 12.9282C13.8941 13.6122 12.9672 13.9976 12 14.0002ZM12 8.5002C11.6341 8.5002 11.2764 8.6087 10.9722 8.81198C10.668 9.01526 10.4308 9.30419 10.2908 9.64223C10.1508 9.98028 10.1142 10.3523 10.1855 10.7111C10.2569 11.07 10.4331 11.3996 10.6919 11.6583C10.9506 11.9171 11.2802 12.0933 11.6391 12.1646C11.9979 12.236 12.3699 12.1994 12.708 12.0594C13.046 11.9194 13.3349 11.6822 13.5382 11.378C13.7415 11.0738 13.85 10.7161 13.85 10.3502C13.8567 10.1031 13.8138 9.85712 13.7238 9.62687C13.6338 9.39661 13.4986 9.18673 13.3261 9.00961C13.1537 8.83249 12.9475 8.69173 12.7197 8.59565C12.4919 8.49956 12.2472 8.45011 12 8.4502V8.5002Z" fill="#333333"/>
</svg>
