<svg xmlns="http://www.w3.org/2000/svg" viewBox="0 0 550.94 147.59"><defs><style>.cls-1{fill:#fc6406;}</style></defs><g id="레이어_2" data-name="레이어 2"><g id="레이어_1-2" data-name="레이어 1"><path class="cls-1" d="M27.33,140.76a50.15,50.15,0,0,1-20.11-19A53.22,53.22,0,0,1,0,94.1,52.74,52.74,0,0,1,7.22,66.57a50.64,50.64,0,0,1,20-18.94Q40,40.8,56.42,40.8q15.42,0,27,6.25a40.6,40.6,0,0,1,17.47,18L82.19,75.94A29.85,29.85,0,0,0,71,65.11,30.72,30.72,0,0,0,56.23,61.5q-13.68,0-22.65,8.88t-9,23.72q0,14.84,8.88,23.72t22.75,8.88A30.72,30.72,0,0,0,71,123.09a29.77,29.77,0,0,0,11.22-10.83l18.74,10.93a42.3,42.3,0,0,1-17.67,18.06q-11.61,6.34-26.84,6.34A61.16,61.16,0,0,1,27.33,140.76Z"/><path class="cls-1" d="M218.92,42V146.22H195.69V133.64c-4,5-9,7.77-14.94,10.24a50.47,50.47,0,0,1-19.62,3.71A55.26,55.26,0,0,1,133.9,141a47.19,47.19,0,0,1-18.74-18.74q-6.73-12.1-6.74-28.11t6.74-28A47.39,47.39,0,0,1,133.9,47.44a55.37,55.37,0,0,1,27.23-6.64,48.22,48.22,0,0,1,18.65,3.52,41,41,0,0,1,14.74,10.34V42Zm-32.8,75.75q8.79-9,8.79-23.62t-8.79-23.62q-8.77-9-22.25-9t-22.16,9Q133,79.47,133,94.1t8.69,23.62q8.68,9,22.16,9T186.12,117.72Z"/><path class="cls-1" d="M258,36.51v6.24h28.69V62.28H258.54v83.94h-24.4V36.12q0-16.59,9.76-26.36T271.63,0q13.85,0,21.86,5.66L286.65,24a21.87,21.87,0,0,0-13.27-4.29Q258,19.72,258,36.51Z"/><path class="cls-1" d="M375.93,115.57l12.89,15a42.73,42.73,0,0,1-17.58,12.69,64.7,64.7,0,0,1-24.2,4.29q-17.18,0-30.26-6.83a49.23,49.23,0,0,1-20.21-19,53.73,53.73,0,0,1-7.12-27.62,54.57,54.57,0,0,1,6.93-27.43,49.31,49.31,0,0,1,19.13-19,59.18,59.18,0,0,1,54.27-.48,47.75,47.75,0,0,1,19,18.15q7,11.82,7,27.63L316,108.55a27.21,27.21,0,0,0,11.91,13.66q8.19,4.7,19.71,4.69Q364.62,126.9,375.93,115.57ZM321.37,69.11q-8.31,8.79-8.3,23.62v.2l59-11.32a27.82,27.82,0,0,0-10.25-15.43q-7.71-5.85-18.64-5.86Q329.67,60.32,321.37,69.11Z"/><path class="cls-1" d="M409.56,25.09a13.73,13.73,0,0,1-4.49-10.45,13.75,13.75,0,0,1,4.49-10.45A15.71,15.71,0,0,1,420.69,0a16.13,16.13,0,0,1,11.13,4,12.92,12.92,0,0,1,4.49,10.06,14.68,14.68,0,0,1-4.4,10.83,15.16,15.16,0,0,1-11.22,4.39A15.67,15.67,0,0,1,409.56,25.09Z"/><rect class="cls-1" x="408.4" y="41.97" width="24.4" height="104.25"/><path class="cls-1" d="M539,52.32q11.91,11.52,11.91,34.16v59.74h-24.4V89.61q0-13.67-6.45-20.6t-18.35-6.93q-13.47,0-21.27,8.1t-7.82,23.33v52.71h-24.4V42h23.24V54.56c4-4.82,9.1-7.57,15.22-10.05a54.89,54.89,0,0,1,20.7-3.71Q527.12,40.8,539,52.32Z"/></g></g></svg>