<svg width="80" height="22" viewBox="0 0 80 22" fill="none" xmlns="http://www.w3.org/2000/svg">
<path d="M3.96827 20.5039C2.75557 19.8743 1.74377 18.9153 1.04839 17.7364C0.361128 16.51 0.00012207 15.1268 0.00012207 13.7198C0.00012207 12.3129 0.361128 10.9297 1.04839 9.70332C1.74326 8.53189 2.74852 7.57687 3.9523 6.94455C5.18937 6.28229 6.60212 5.95068 8.19056 5.94971C9.68318 5.94971 10.9899 6.25316 12.1108 6.86007C13.2113 7.44311 14.0994 8.36099 14.6474 9.48192L11.9265 11.074C11.5317 10.4127 10.9697 9.868 10.2974 9.49503C9.63878 9.1436 8.90309 8.96285 8.15717 8.9692C6.83299 8.9692 5.73676 9.40084 4.86849 10.2641C4.00022 11.1274 3.56463 12.279 3.56173 13.7191C3.56173 15.1602 3.99151 16.3113 4.85106 17.1727C5.71062 18.034 6.81169 18.4656 8.15427 18.4676C8.90027 18.4746 9.63612 18.2938 10.2945 17.9418C10.9733 17.5662 11.5393 17.0149 11.9337 16.3453L14.6547 17.9476C14.0846 19.0625 13.1897 19.977 12.0891 20.5694C10.9653 21.186 9.66624 21.4939 8.19202 21.4929C6.72426 21.5185 5.27306 21.1787 3.96827 20.5039V20.5039Z" fill="black"/>
<path d="M31.7862 6.1145V21.2979H28.4133V19.467C27.8325 20.1865 27.1065 20.5988 26.2441 20.9585C25.3398 21.3272 24.3713 21.5109 23.3953 21.4989C22.0165 21.5227 20.6548 21.1896 19.4417 20.5318C18.2931 19.9017 17.3487 18.9544 16.7207 17.8021C16.0683 16.6271 15.7421 15.2623 15.7421 13.7077C15.7421 12.153 16.0683 10.7935 16.7207 9.62923C17.3523 8.48336 18.296 7.5416 19.4417 6.91416C20.6548 6.25628 22.0165 5.92317 23.3953 5.94699C24.3229 5.93625 25.2434 6.11053 26.1032 6.45971C26.9191 6.79646 27.6501 7.3109 28.2434 7.96582V6.1145H31.7862ZM27.0238 17.1481C27.8746 16.2742 28.3 15.1273 28.3 13.7077C28.3 12.288 27.8746 11.1407 27.0238 10.2658C26.1739 9.39181 25.097 8.95484 23.7932 8.95484C22.4893 8.95484 21.4168 9.39181 20.5756 10.2658C19.7345 11.1397 19.3139 12.287 19.3139 13.7077C19.3139 15.1283 19.7345 16.2751 20.5756 17.1481C21.4168 18.0221 22.4893 18.459 23.7932 18.459C25.097 18.459 26.1739 18.0221 27.0238 17.1481Z" fill="black"/>
<path d="M37.4546 5.31896V6.22787H41.6203V9.07257H37.5388V21.2977H33.996V5.2607C33.996 3.65069 34.4684 2.37132 35.4132 1.4226C36.3579 0.473882 37.6995 6.99689e-06 39.438 0.000978052C40.7796 0.000978052 41.8381 0.275786 42.6134 0.825403L41.6203 3.49823C41.0632 3.08459 40.3865 2.86513 39.6935 2.87336C38.2009 2.87336 37.4546 3.68856 37.4546 5.31896Z" fill="black"/>
<path d="M54.5833 16.8349L56.4549 19.0198C55.7774 19.8467 54.898 20.4835 53.9024 20.8682C52.782 21.3009 51.5891 21.5136 50.3886 21.4945C48.7247 21.4945 47.2601 21.1629 45.995 20.4996C44.7727 19.8784 43.7541 18.9177 43.0606 17.7321C42.361 16.509 42.0038 15.119 42.0268 13.7091C42.0061 12.3117 42.3532 10.9335 43.033 9.71365C43.6842 8.54987 44.6461 7.59143 45.8106 6.94614C47.0392 6.27097 48.4217 5.92812 49.8224 5.9513C51.1678 5.93471 52.4966 6.25194 53.6904 6.87477C54.8381 7.48082 55.7937 8.39712 56.4491 9.51992C57.1267 10.6677 57.4655 12.0092 57.4655 13.5445L45.8716 15.8182C46.208 16.6597 46.822 17.3599 47.611 17.8021C48.4038 18.2565 49.3577 18.4837 50.4728 18.4837C52.1174 18.4837 53.4876 17.9341 54.5833 16.8349ZM46.6614 10.0676C45.8571 10.9212 45.4554 12.068 45.4563 13.508V13.5372L54.0229 11.8869C53.7944 10.9905 53.2672 10.1995 52.5288 9.64519C51.7825 9.07712 50.8803 8.7926 49.8224 8.79163C48.5175 8.78872 47.4639 9.21404 46.6614 10.0676Z" fill="black"/>
<path d="M59.4663 3.65419C59.2603 3.45833 59.0962 3.22242 58.9841 2.96085C58.872 2.69928 58.8142 2.41753 58.8142 2.13279C58.8142 1.84806 58.872 1.56631 58.9841 1.30473C59.0962 1.04316 59.2603 0.807247 59.4663 0.611391C59.9044 0.203237 60.4848 -0.0159409 61.0824 0.00108316C61.6752 -0.0169718 62.2527 0.191249 62.6984 0.583716C62.9069 0.763649 63.0735 0.987418 63.1861 1.23915C63.2988 1.49088 63.3548 1.7644 63.3503 2.0403C63.357 2.3333 63.3037 2.62456 63.1939 2.89612C63.084 3.16768 62.9198 3.41378 62.7115 3.61923C62.4978 3.83172 62.243 3.99806 61.9629 4.10803C61.6827 4.21801 61.383 4.26927 61.0824 4.25867C60.4855 4.2779 59.905 4.06077 59.4663 3.65419V3.65419Z" fill="black"/>
<path d="M62.8407 6.11426H59.298V21.2991H62.8407V6.11426Z" fill="black"/>
<path d="M78.2707 7.62185C79.4236 8.7405 80 10.3991 80 12.5975V21.2977H76.4572V13.0534C76.4572 11.726 76.145 10.7258 75.5207 10.0529C74.8964 9.37994 74.0083 9.04347 72.8564 9.04347C71.5525 9.04347 70.5231 9.43675 69.7681 10.2233C69.013 11.0099 68.6346 12.1426 68.6326 13.6215V21.2977H65.0898V6.11428H68.4642V7.94812C69.045 7.24605 69.7855 6.84403 70.6741 6.49154C71.6318 6.11876 72.6524 5.93526 73.6796 5.95114C75.5836 5.94629 77.114 6.50319 78.2707 7.62185Z" fill="black"/>
</svg>
