<svg xmlns="http://www.w3.org/2000/svg" viewBox="0 0 752.8 361.34"><defs><style>.cls-1{fill:#fff;}.cls-2{fill:none;}</style></defs><g id="레이어_2" data-name="레이어 2"><g id="레이어_1-2" data-name="레이어 1"><path class="cls-1" d="M128.26,247.55a50.15,50.15,0,0,1-20.11-19,56.27,56.27,0,0,1,0-55.15,50.57,50.57,0,0,1,20-18.94q12.78-6.82,29.19-6.83,15.42,0,27,6.25a40.55,40.55,0,0,1,17.47,18l-18.74,10.93a30,30,0,0,0-11.22-10.84,30.83,30.83,0,0,0-14.74-3.61q-13.68,0-22.65,8.89t-9,23.72q0,14.84,8.88,23.71t22.75,8.89a30.72,30.72,0,0,0,14.74-3.61A29.87,29.87,0,0,0,183.12,219L201.86,230A42.38,42.38,0,0,1,184.19,248q-11.61,6.35-26.84,6.34A61.16,61.16,0,0,1,128.26,247.55Z"/><path class="cls-1" d="M319.85,148.76V253H296.62V240.43c-4,4.94-9,7.77-14.94,10.24a50.47,50.47,0,0,1-19.62,3.71,55.26,55.26,0,0,1-27.23-6.64A47.13,47.13,0,0,1,216.09,229q-6.74-12.1-6.74-28.11t6.74-28a47.33,47.33,0,0,1,18.74-18.64,55.26,55.26,0,0,1,27.23-6.64,48.22,48.22,0,0,1,18.65,3.52,41,41,0,0,1,14.74,10.34V148.76Zm-32.8,75.75q8.79-9,8.79-23.62t-8.79-23.63q-8.78-9-22.25-9t-22.16,9q-8.69,9-8.69,23.63t8.69,23.62q8.69,9,22.16,9T287.05,224.51Z"/><path class="cls-1" d="M358.89,143.3v6.24h28.69v19.53H359.47V253h-24.4V142.9q0-16.58,9.76-26.35t27.72-9.76q13.86,0,21.87,5.66l-6.84,18.35a21.87,21.87,0,0,0-13.27-4.29Q358.89,126.51,358.89,143.3Z"/><path class="cls-1" d="M476.86,222.36l12.89,15a42.55,42.55,0,0,1-17.58,12.69,64.5,64.5,0,0,1-24.2,4.3q-17.19,0-30.26-6.83a49.23,49.23,0,0,1-20.21-19,53.73,53.73,0,0,1-7.12-27.62,54.55,54.55,0,0,1,6.93-27.43,49.24,49.24,0,0,1,19.13-19,55.6,55.6,0,0,1,27.63-6.83,56.24,56.24,0,0,1,26.64,6.34,47.84,47.84,0,0,1,19,18.16q7,11.82,7,27.63l-79.85,15.61A27.2,27.2,0,0,0,428.84,229q8.19,4.68,19.71,4.68Q465.54,233.68,476.86,222.36ZM422.3,175.9q-8.31,8.79-8.3,23.62v.2l59-11.33A27.83,27.83,0,0,0,462.71,173q-7.71-5.85-18.64-5.86Q430.59,167.11,422.3,175.9Z"/><path class="cls-1" d="M510.49,131.87a14.39,14.39,0,0,1,0-20.89,15.7,15.7,0,0,1,11.13-4.19,16.13,16.13,0,0,1,11.13,4,12.91,12.91,0,0,1,4.49,10,14.73,14.73,0,0,1-4.4,10.84,15.18,15.18,0,0,1-11.22,4.39A15.66,15.66,0,0,1,510.49,131.87Z"/><rect class="cls-1" x="509.33" y="148.76" width="24.4" height="104.25"/><path class="cls-1" d="M640,159.11q11.91,11.52,11.91,34.16V253h-24.4V196.4q0-13.67-6.45-20.6t-18.35-6.93q-13.47,0-21.27,8.1t-7.82,23.33V253h-24.4V148.76h23.24v12.59c4-4.82,9.1-7.58,15.22-10a54.89,54.89,0,0,1,20.7-3.71Q628.05,147.59,640,159.11Z"/><rect class="cls-2" x="100.93" y="106.79" width="550.94" height="147.59"/><rect class="cls-2" width="752.8" height="361.34"/></g></g></svg>