<svg width="16" height="16" viewBox="0 0 16 16" fill="none" xmlns="http://www.w3.org/2000/svg">
<path d="M9.64022 12.6302L13.2002 4.00017C13.2743 3.83225 13.296 3.64584 13.2622 3.46542C13.2285 3.28499 13.141 3.11898 13.0112 2.98919C12.8814 2.8594 12.7154 2.77189 12.535 2.73816C12.3545 2.70442 12.1681 2.72604 12.0002 2.80017L3.37022 6.37017C3.21233 6.4406 3.07837 6.55548 2.98471 6.7008C2.89104 6.84611 2.84173 7.01556 2.84279 7.18844C2.84385 7.36132 2.89524 7.53015 2.99068 7.6743C3.08612 7.81845 3.22148 7.93169 3.38022 8.00017L6.19022 9.16017C6.34276 9.2184 6.48129 9.30819 6.59675 9.42364C6.7122 9.5391 6.80199 9.67763 6.86022 9.83017L8.00022 12.6202C8.07059 12.7783 8.18507 12.9128 8.32993 13.0075C8.4748 13.1023 8.64391 13.1532 8.81699 13.1543C8.99008 13.1553 9.15979 13.1064 9.3058 13.0135C9.45182 12.9205 9.56793 12.7874 9.64022 12.6302Z" fill="#8B8B8B"/>
</svg>
