<svg width="24" height="24" viewBox="0 0 24 24" fill="none" xmlns="http://www.w3.org/2000/svg">
<path d="M13.2698 12L20.1398 5.14003C20.2815 4.96528 20.3535 4.74422 20.3418 4.51951C20.3302 4.2948 20.2356 4.08238 20.0765 3.92327C19.9174 3.76416 19.705 3.66965 19.4803 3.65797C19.2556 3.64629 19.0345 3.71827 18.8598 3.86003L11.9998 10.73L5.13976 3.86003C4.96502 3.71827 4.74395 3.64629 4.51924 3.65797C4.29453 3.66965 4.08211 3.76416 3.92301 3.92327C3.7639 4.08238 3.66938 4.2948 3.6577 4.51951C3.64602 4.74422 3.71801 4.96528 3.85976 5.14003L10.7298 12L3.85976 18.86C3.69122 19.0304 3.59668 19.2604 3.59668 19.5C3.59668 19.7397 3.69122 19.9697 3.85976 20.14C4.03137 20.3062 4.26088 20.3991 4.49976 20.3991C4.73864 20.3991 4.96816 20.3062 5.13976 20.14L11.9998 13.27L18.8598 20.14C19.0314 20.3062 19.2609 20.3991 19.4998 20.3991C19.7386 20.3991 19.9682 20.3062 20.1398 20.14C20.3083 19.9697 20.4028 19.7397 20.4028 19.5C20.4028 19.2604 20.3083 19.0304 20.1398 18.86L13.2698 12Z" fill="#FC7521"/>
</svg>
