<svg width="40" height="40" viewBox="0 0 40 40" fill="none" xmlns="http://www.w3.org/2000/svg">
<circle cx="20" cy="20" r="20" fill="#F7F7F7"/>
<path d="M21.0801 15.2702L24.4301 11.9302" stroke="#C7CACF" stroke-width="2" stroke-linecap="round" stroke-linejoin="round"/>
<path d="M24.73 18.9203L28.07 15.5703" stroke="#C7CACF" stroke-width="2" stroke-linecap="round" stroke-linejoin="round"/>
<path d="M26.55 19.3202L20.68 13.4502C19.71 12.4802 18.12 12.4802 17.14 13.4502L14.38 16.2102C12.86 17.7302 12.56 20.0002 13.46 21.8302C13.58 22.0702 13.55 22.3502 13.36 22.5402L12.6 23.3002C11.69 24.2102 11.69 25.6702 12.6 26.5802L13.42 27.4002C13.87 27.8502 14.47 28.0802 15.06 28.0802C15.65 28.0802 16.25 27.8502 16.7 27.4002L17.46 26.6402C17.65 26.4502 17.93 26.4202 18.17 26.5402C19.29 27.1002 20.61 27.2302 21.95 26.7802C22.56 26.5702 23.42 25.9902 23.88 25.5302L26.55 22.8602C27.02 22.3902 27.28 21.7602 27.28 21.0902C27.28 20.4202 27.02 19.7902 26.55 19.3202Z" fill="#888D95"/>
</svg>
