<svg width="36" height="36" viewBox="0 0 36 36" fill="none" xmlns="http://www.w3.org/2000/svg">
<circle cx="18" cy="18" r="17.5" fill="white" stroke="#E3E3E3"/>
<g clip-path="url(#clip0_440_5372)">
<path d="M16.6004 12.1001C16.8392 12.1014 17.0683 12.1945 17.2404 12.3601L21.8804 17.0001C22.1395 17.2685 22.2842 17.627 22.2842 18.0001C22.2842 18.3732 22.1395 18.7317 21.8804 19.0001L17.2904 23.6001C17.1176 23.7238 16.907 23.7831 16.6951 23.7678C16.4831 23.7525 16.2832 23.6635 16.13 23.5162C15.9769 23.369 15.88 23.1727 15.8563 22.9616C15.8327 22.7504 15.8836 22.5376 16.0004 22.3601L20.3504 18.0001L16.0004 13.6401C15.8318 13.4697 15.7373 13.2398 15.7373 13.0001C15.7373 12.7604 15.8318 12.5305 16.0004 12.3601C16.1623 12.2037 16.3755 12.1113 16.6004 12.1001Z" fill="#333333"/>
</g>
<defs>
<clipPath id="clip0_440_5372">
<rect width="16" height="16" fill="white" transform="translate(11 10)"/>
</clipPath>
</defs>
</svg>
