<svg width="88" height="80" viewBox="0 0 88 80" fill="none" xmlns="http://www.w3.org/2000/svg">
<g clip-path="url(#clip0_962_25290)">
<path d="M42.9066 2.94183C39.5501 0.958618 33.6161 5.98128 32.0803 7.61451C30.5446 9.24774 41.2568 16.5941 41.2568 16.5941C41.2568 16.5941 47.327 5.55248 42.9066 2.94183Z" fill="white"/>
<path d="M18.5923 0.554904C13.9154 -0.173429 7.96875 8.76521 7.96875 8.76521L20.9799 6.23653C20.9799 6.23653 21.4738 1.00262 18.5923 0.554904Z" fill="white"/>
<path d="M40.5747 17.4106C40.429 17.4106 40.2897 17.3538 40.1852 17.2498L31.4172 8.58546C31.2082 8.37736 31.1987 8.0463 31.395 7.8256C36.0308 2.6579 41.4645 1.05935 43.6335 2.80609C44.5202 3.52181 45.0173 4.89965 45.03 6.68423C45.03 6.99006 44.7861 7.23915 44.479 7.23915C44.1877 7.23915 43.9217 6.99637 43.9217 6.69053C43.9122 5.26224 43.5544 4.15871 42.9369 3.66054C41.4487 2.45926 36.8477 3.62586 32.5793 8.17242L40.5114 16.0107C42.4493 13.2613 43.2789 10.8241 43.6335 9.22551C43.7 8.92913 43.9945 8.73995 44.2953 8.80617C44.593 8.87238 44.783 9.1656 44.7165 9.46513C44.3175 11.2686 43.3549 14.0716 41.0275 17.1867C40.9325 17.316 40.7837 17.3948 40.6254 17.4074C40.6127 17.4074 40.5969 17.4074 40.5842 17.4074L40.5747 17.4106Z" fill="#515151"/>
<path d="M40.4219 6.38778C39.548 5.70674 37.1985 6.46976 35.2891 8.79664C35.9382 9.25067 36.6443 9.79297 37.3694 10.4425C38.1484 11.1361 38.807 11.8203 39.3643 12.4572C41.2706 9.80559 41.3244 7.09404 40.4219 6.39093V6.38778Z" fill="#515151"/>
<path d="M18.2794 15.2255C18.1749 15.2255 18.0704 15.1971 17.9818 15.1372L7.9693 8.76509C7.84264 8.68311 7.75398 8.557 7.72548 8.40881C7.69698 8.26062 7.72548 8.10927 7.81414 7.98631C11.7596 2.3299 17.1585 -1.16357 19.5998 0.356151C20.5688 0.958366 21.2274 2.26684 21.4586 4.03881C21.4966 4.34149 21.2844 4.61895 20.9804 4.65679C20.6764 4.69777 20.3978 4.48337 20.3598 4.18069C20.1761 2.76501 19.6853 1.71192 19.014 1.29258C17.3928 0.283633 12.7697 3.05508 9.05858 8.14711L18.0831 13.8918C19.6948 10.9059 20.2236 8.36782 20.3788 6.73143C20.4073 6.42875 20.6764 6.20489 20.9836 6.23326C21.2876 6.26164 21.5124 6.5328 21.4839 6.83548C21.3066 8.67365 20.6923 11.5712 18.7639 14.9449C18.6879 15.0773 18.5612 15.1719 18.4156 15.2066C18.3712 15.216 18.3269 15.2223 18.2826 15.2223L18.2794 15.2255Z" fill="#515151"/>
<path d="M16.8512 4.29724C15.8981 3.72656 13.6594 4.76703 12.0508 7.30832C12.7506 7.68037 13.5169 8.13439 14.318 8.68931C15.1729 9.28207 15.9139 9.88428 16.544 10.4487C18.1114 7.58578 17.836 4.88685 16.8544 4.3004L16.8512 4.29724Z" fill="#515151"/>
<path d="M4.30132 51.6676C3.19621 45.986 6.28987 39.4499 11.4798 36.0794L11.8376 35.4551C23.3034 38.3811 33.813 33.9985 37.6382 31.4414L38.6229 31.7977C44.4999 30.8707 47.0933 34.8151 47.9958 36.896C51.8399 45.7495 45.1047 49.716 43.2872 49.9272C46.3682 54.3508 41.3999 60.3698 38.6229 63.0183C38.6229 63.0183 44.1136 63.198 49.4618 63.0183C54.81 62.8386 58.2837 63.2421 58.5085 65.3389C58.8727 68.722 43.6672 70.4687 30.9252 69.0972C26.7138 73.1992 8.16444 81.5734 6.99917 78.72C6.14422 76.6233 13.8515 68.9585 19.2377 65.7614C16.6855 65.3956 12.4107 59.2883 10.9415 55.6183C7.04983 55.9903 5.2196 54.0134 4.29815 51.6739L4.30132 51.6676Z" fill="#776F66"/>
<path d="M24.1193 5.03515C25.6867 5.16757 27.2921 5.4671 28.9038 5.98103C40.1005 9.55018 44.0428 15.9696 44.312 20.7873C44.5811 25.605 40.0119 30.0633 33.8309 33.541C27.6499 37.0187 7.31468 38.5353 2.21029 28.2787C-1.87448 20.0716 3.43573 12.5518 6.59905 9.81503C6.83021 9.27903 14.8034 4.23745 24.1193 5.03199" fill="#EEB070"/>
<path d="M21.1059 37.0222C17.645 37.0222 14.7761 36.5366 13.1137 36.256C11.5336 35.988 7.49953 35.0358 4.17788 31.9428C1.04305 29.0294 -0.372373 25.1103 0.0836023 20.611C0.691569 14.6236 4.10505 10.9157 6.08411 9.23832C7.54386 8.00236 8.80096 7.34023 9.52292 7.01863C13.3322 5.12686 17.5531 4.20304 22.0686 4.27871C22.2269 4.27871 22.3852 4.28502 22.5435 4.29132C22.9267 4.30394 23.2275 4.62239 23.2148 5.00705C23.2022 5.38855 22.876 5.68178 22.496 5.67547C22.344 5.66917 22.1921 5.66601 22.0401 5.66286C17.854 5.59034 13.9433 6.42272 10.4064 8.12532C10.362 8.15685 10.3145 8.18523 10.2607 8.2073C10.2069 8.22937 10.153 8.25144 10.0992 8.27666H10.0929C9.11761 8.70862 7.9935 9.4338 6.98022 10.2914C5.15949 11.8364 2.01833 15.2447 1.46103 20.7498C1.01138 25.1828 3.00627 33.1503 13.3385 34.8939C17.816 35.6506 31.435 37.9492 40.9947 27.2858C43.5311 23.9752 43.8509 22.2537 43.5785 19.8669C43.0624 15.3235 38.908 11.8427 36.4761 10.1684C35.3805 9.41488 34.2089 8.73384 33.0816 8.19469C33.0753 8.19153 33.0658 8.18838 33.0595 8.18523C33.05 8.18207 33.0405 8.17577 33.0341 8.17262C32.1348 7.67445 30.8904 7.18259 29.5257 6.78216C29.1583 6.67496 28.9462 6.2903 29.0538 5.9214C29.1615 5.55251 29.5478 5.34441 29.9183 5.45161C31.3717 5.87726 32.7143 6.41011 33.6991 6.95242C34.8865 7.51995 36.1183 8.23883 37.2677 9.03022C39.8927 10.8369 44.3797 14.6267 44.9591 19.7093C45.2663 22.4177 44.9053 24.4671 42.0808 28.1466L42.0491 28.1876C35.5642 35.4362 27.3629 37.0222 21.0996 37.0253L21.1059 37.0222Z" fill="#515151"/>
<path d="M38.4971 44.7312C38.1868 44.7312 37.8923 44.5515 37.7593 44.252C36.3914 41.1432 37.2242 31.9365 37.2622 31.5456C37.3034 31.1042 37.696 30.7794 38.1393 30.8204C38.5826 30.8614 38.9088 31.2523 38.8676 31.6938C38.5256 35.3701 38.3451 41.5783 39.2381 43.6056C39.4154 44.0124 39.2317 44.4853 38.8233 44.6619C38.7188 44.7092 38.6079 44.7312 38.5003 44.7312H38.4971Z" fill="#515151"/>
<path d="M12.8903 50.0217C12.6085 50.0217 12.3362 49.8735 12.1873 49.6118C10.7117 47.0043 9.63514 39.1724 11.0981 35.4393C11.2595 35.0262 11.7282 34.8213 12.143 34.9821C12.5578 35.1429 12.7636 35.6095 12.6021 36.0226C11.3324 39.2638 12.3203 46.5787 13.5933 48.8236C13.8117 49.2114 13.6756 49.7001 13.2861 49.9176C13.1594 49.987 13.0265 50.0217 12.8903 50.0217Z" fill="#515151"/>
<path d="M68.7589 30.0413H51.1627C50.7257 30.0413 50.3711 29.6882 50.3711 29.2531C50.3711 28.818 50.7257 28.4648 51.1627 28.4648H68.7589C69.1959 28.4648 69.5505 28.818 69.5505 29.2531C69.5505 29.6882 69.1959 30.0413 68.7589 30.0413Z" fill="#515151"/>
<path d="M78.8683 23.619H61.2721C60.8351 23.619 60.4805 23.2658 60.4805 22.8307C60.4805 22.3956 60.8351 22.0425 61.2721 22.0425H78.8683C79.3053 22.0425 79.6599 22.3956 79.6599 22.8307C79.6599 23.2658 79.3053 23.619 78.8683 23.619Z" fill="#515151"/>
<path d="M87.2088 49.3089H61.2721C60.8351 49.3089 60.4805 48.9558 60.4805 48.5207C60.4805 48.0856 60.8351 47.7324 61.2721 47.7324H87.2088C87.6458 47.7324 88.0005 48.0856 88.0005 48.5207C88.0005 48.9558 87.6458 49.3089 87.2088 49.3089Z" fill="#515151"/>
<path d="M53.3301 62.7564H52.7633C50.17 62.7564 43.818 62.5389 40.0467 62.2646C43.609 58.3549 45.5564 54.2718 44.2549 50.5671C44.2138 50.4473 44.141 50.3495 44.0523 50.2739C44.1441 50.2329 44.2391 50.195 44.3309 50.1509C47.1333 48.8203 50.018 45.6611 49.7076 40.7772C49.5082 37.6305 48.3429 35.1365 46.2403 33.3614C43.7198 31.2331 40.509 30.7098 38.3431 30.9273C37.96 30.9651 37.6813 31.3057 37.7225 31.6872C37.7605 32.0687 38.0993 32.3461 38.4856 32.3052C40.281 32.1223 43.153 32.5669 45.3411 34.4176C47.1428 35.9405 48.1434 38.1066 48.3176 40.8623C48.5835 45.0557 46.12 47.7641 43.7293 48.8992C41.9054 49.7662 40.0435 49.7662 39.0999 48.8992C38.4888 48.3411 37.7985 47.4961 37.9726 46.6448C38.131 45.8723 38.9542 45.2544 39.654 45.0084C39.882 44.9264 40.053 44.731 40.1037 44.4945C40.1512 44.258 40.072 44.0121 39.8947 43.8481C39.616 43.5927 39.4229 43.1166 39.4229 42.6878C39.4229 42.4356 39.4894 42.2275 39.6097 42.1203C39.7205 42.0194 39.8187 41.9847 39.9517 42.0005C40.414 42.0573 41.1296 42.6878 41.6901 43.5328C41.9022 43.8513 42.3329 43.9396 42.6527 43.7283C42.9725 43.5171 43.0612 43.0883 42.849 42.7698C42.4564 42.1771 41.4019 40.7835 40.1163 40.6258C39.578 40.5596 39.0746 40.7236 38.6629 41.1019C38.2544 41.4771 38.0296 42.0415 38.0296 42.6878C38.0296 43.1734 38.1531 43.6653 38.3684 44.0909C37.5768 44.567 36.8169 45.3363 36.6047 46.3673C36.4369 47.1871 36.5699 48.4672 38.1531 49.9176C38.8877 50.5923 39.92 50.9328 41.0821 50.9328C41.6648 50.9328 42.2791 50.8445 42.906 50.6743C42.887 50.7878 42.8902 50.9076 42.9314 51.0243C45.8065 59.222 29.4199 70.3204 18.4164 75.3903C10.8485 78.8775 7.70096 78.868 7.4698 78.4739C7.33998 78.2406 7.03599 76.7839 13.692 71.1906C17.9002 67.653 23.3371 63.7307 27.7069 60.5809C28.4225 60.0669 29.1033 59.5751 29.7429 59.1116C30.0532 58.8877 30.1229 58.4526 29.8949 58.1436C29.6669 57.8347 29.2331 57.7653 28.9228 57.9923C28.2863 58.4558 27.6055 58.9445 26.8899 59.4584C23.8216 61.6718 21.0794 63.6802 18.6665 65.5058C18.6317 65.4648 18.5905 65.427 18.543 65.3923C14.8541 62.8195 12.5584 58.5315 11.6337 56.069C13.5146 55.6843 14.9237 54.5146 15.2752 52.8877C15.5412 51.6486 15.386 50.6428 14.8097 49.8987C14.3411 49.2933 13.6191 48.9023 12.6977 48.751C12.6755 47.9627 12.5489 46.4525 10.9656 46.361C9.49953 46.2728 8.48625 47.4362 8.32159 49.391C8.28993 49.7725 8.57491 50.1068 8.95806 50.1383C9.3412 50.1698 9.67685 49.886 9.70851 49.5045C9.76551 48.8235 9.99033 47.6979 10.8833 47.7452C11.1588 47.761 11.2918 47.8839 11.3108 48.9244C11.3139 49.1199 11.3171 49.3059 11.3393 49.4699C11.3836 49.8041 11.6591 50.0563 11.9979 50.0721C12.5584 50.0973 13.312 50.236 13.7078 50.7468C14.0213 51.1535 14.0909 51.7747 13.9136 52.5976C13.54 54.3349 11.3994 55.0096 9.48053 54.7763C7.22598 54.502 4.63579 52.8908 4.74979 49.2428C4.96511 42.341 8.41975 39.1754 12.2544 36.2873C12.5615 36.0572 12.6217 35.6221 12.3874 35.3162C12.1562 35.0104 11.7192 34.9505 11.4121 35.1838C7.30198 38.2832 3.59085 41.6884 3.3597 49.2019C3.2267 53.4899 6.25387 55.7821 9.3127 56.1541C9.61352 56.192 9.91117 56.2077 10.2025 56.2109C11.0891 58.7332 13.5273 63.4753 17.5329 66.3729C8.98339 72.9184 5.03477 76.929 6.24754 79.1423C6.58635 79.7603 7.34631 80.0063 8.35009 80.0063C10.9498 80.0063 15.1834 78.3478 17.9636 77.1181C22.0103 75.3304 26.7221 72.7797 31.0507 69.8222C33.3844 70.1848 37.4787 70.4812 41.8262 70.4812C42.8427 70.4812 43.8718 70.4654 44.8914 70.4307C49.6253 70.2668 55.762 69.6393 58.1147 67.5741C58.8556 66.9246 59.2166 66.1616 59.1818 65.3135C59.0805 62.747 56.2781 62.7533 53.3111 62.7627L53.3301 62.7564ZM57.2154 66.5305C53.8494 69.4817 39.6794 69.4438 32.7321 68.643C34.955 67.0287 37.0322 65.3166 38.8117 63.5541C42.3836 63.8757 49.7995 64.1406 52.7665 64.1406H53.3364C56.4206 64.1343 57.7695 64.2446 57.8139 65.3608C57.8297 65.7801 57.6365 66.1616 57.2154 66.5274V66.5305Z" fill="#515151"/>
<path d="M27.0889 22.5941C26.6582 21.5726 24.7425 21.8248 22.526 22.118C21.519 22.2505 20.4804 22.3892 19.8313 22.3419C19.3215 22.3041 18.8243 22.2662 18.3493 22.2284C14.1569 21.9005 11.1297 21.664 10.4015 23.9909C10.1925 24.6625 10.4078 25.1007 10.6263 25.3498C11.1266 25.9237 12.181 26.1349 13.5363 26.1349C15.0087 26.1349 16.8358 25.8858 18.6977 25.58C19.0206 25.5264 19.2771 25.4854 19.4418 25.4633C19.9199 25.4003 20.9174 25.5705 21.8832 25.7345C23.6564 26.0372 25.3315 26.3209 26.1199 25.7975C27.2567 25.0408 27.6208 23.8396 27.092 22.591L27.0889 22.5941Z" fill="white"/>
<path d="M16.1008 22.8777C17.0907 22.8777 17.8931 22.3582 17.8931 21.7174C17.8931 21.0766 17.0907 20.5571 16.1008 20.5571C15.111 20.5571 14.3086 21.0766 14.3086 21.7174C14.3086 22.3582 15.111 22.8777 16.1008 22.8777Z" fill="#515151"/>
<path d="M24.3551 5.87695C24.2127 5.87695 24.067 5.82651 23.953 5.72561C23.6965 5.5049 23.6712 5.11709 23.8928 4.8617C24.637 4.0104 26.0841 2.98254 26.9675 2.56004C27.2715 2.41185 27.642 2.54112 27.7876 2.84381C27.9365 3.14649 27.8066 3.51539 27.5026 3.66042C26.7459 4.02301 25.4381 4.95944 24.8206 5.66571C24.7003 5.80444 24.5293 5.87695 24.3583 5.87695H24.3551Z" fill="#515151"/>
<path d="M27.0302 6.22676C26.8592 6.22676 26.6882 6.15424 26.5647 6.01551C26.3431 5.76012 26.3684 5.37231 26.6249 5.1516C27.483 4.41066 29.0567 3.59404 29.9909 3.29451C30.3138 3.19046 30.659 3.36703 30.7635 3.68863C30.868 4.01023 30.6907 4.3539 30.3677 4.45795C29.5697 4.71334 28.1448 5.45744 27.4323 6.07227C27.3152 6.17316 27.1727 6.22046 27.0302 6.22046V6.22676Z" fill="#515151"/>
<path d="M11.3465 15.2037C10.7037 15.21 10.1843 15.7334 10.1875 16.3734C10.1875 16.6856 10.3142 16.9756 10.5358 17.1932C10.7543 17.4076 11.0456 17.5274 11.356 17.5274H11.3655C12.0082 17.5211 12.5276 16.9977 12.5244 16.3577C12.5244 16.0455 12.3977 15.7554 12.1761 15.5379C11.9544 15.3203 11.6599 15.2005 11.3465 15.2037Z" fill="#515151"/>
<path d="M21.0708 15.2036H21.0613C20.4185 15.2099 19.8992 15.7333 19.9024 16.3765C19.9024 16.6855 20.029 16.9787 20.2507 17.1963C20.4692 17.4107 20.7605 17.5305 21.0708 17.5305H21.0803C21.3906 17.5305 21.6851 17.4044 21.9036 17.1837C22.1221 16.963 22.2424 16.6697 22.2392 16.3576C22.2329 15.7207 21.7104 15.2036 21.0708 15.2036Z" fill="#515151"/>
</g>
<defs>
<clipPath id="clip0_962_25290">
<rect width="88" height="80" fill="white"/>
</clipPath>
</defs>
</svg>
