<svg width="20" height="20" viewBox="0 0 20 20" fill="none" xmlns="http://www.w3.org/2000/svg">
<path d="M17.1083 16.0415L12.9416 11.9165C13.8193 10.7611 14.2249 9.3152 14.076 7.87187C13.9272 6.42854 13.235 5.09582 12.1399 4.14391C11.0449 3.19199 9.62878 2.6921 8.17878 2.74559C6.72878 2.79908 5.35338 3.40194 4.33141 4.43196C3.30944 5.46198 2.71738 6.84207 2.67526 8.29244C2.63315 9.74281 3.14412 11.1549 4.1046 12.2425C5.06508 13.3301 6.40319 14.0118 7.84764 14.1493C9.29209 14.2868 10.7348 13.87 11.8833 12.9832L15.9999 17.0999C16.0694 17.1699 16.152 17.2256 16.243 17.2637C16.334 17.3018 16.4317 17.3216 16.5303 17.322C16.629 17.3224 16.7268 17.3033 16.8181 17.2659C16.9094 17.2285 16.9924 17.1735 17.0624 17.104C17.1325 17.0345 17.1881 16.9519 17.2263 16.8609C17.2644 16.7699 17.2842 16.6723 17.2846 16.5736C17.285 16.475 17.2659 16.3772 17.2285 16.2859C17.1911 16.1946 17.1361 16.1116 17.0666 16.0415H17.1083ZM8.42494 12.7082C7.58436 12.7082 6.76267 12.4589 6.06376 11.9919C5.36485 11.5249 4.82012 10.8612 4.49845 10.0846C4.17678 9.30801 4.09261 8.45348 4.2566 7.62906C4.42059 6.80464 4.82536 6.04736 5.41973 5.45299C6.01411 4.85861 6.77138 4.45384 7.5958 4.28985C8.42022 4.12586 9.27475 4.21003 10.0513 4.5317C10.8279 4.85337 11.4917 5.39811 11.9587 6.09702C12.4257 6.79593 12.6749 7.61762 12.6749 8.45819C12.6661 9.57957 12.2145 10.652 11.4184 11.4419C10.6223 12.2317 9.54635 12.6749 8.42494 12.6749V12.7082Z" fill="#333333"/>
</svg>
