<svg width="30" height="30" viewBox="0 0 30 30" fill="none" xmlns="http://www.w3.org/2000/svg">
<path d="M25.6624 24.0625L19.4124 17.875C20.729 16.1419 21.3373 13.973 21.114 11.808C20.8907 9.64306 19.8525 7.64398 18.2099 6.2161C16.5673 4.78822 14.4432 4.03839 12.2682 4.11863C10.0932 4.19886 8.03006 5.10316 6.49711 6.64818C4.96415 8.19321 4.07607 10.2633 4.01289 12.4389C3.94972 14.6145 4.71619 16.7326 6.15691 18.364C7.59762 19.9954 9.60478 21.0179 11.7715 21.2242C13.9381 21.4305 16.1022 20.8052 17.8249 19.475L23.9999 25.65C24.1041 25.7551 24.228 25.8386 24.3646 25.8958C24.5011 25.9529 24.6475 25.9826 24.7955 25.9832C24.9435 25.9838 25.0901 25.9552 25.2271 25.8991C25.364 25.843 25.4886 25.7605 25.5937 25.6563C25.6987 25.552 25.7822 25.4281 25.8394 25.2916C25.8966 25.1551 25.9263 25.0087 25.9269 24.8607C25.9274 24.7127 25.8989 24.566 25.8428 24.4291C25.7867 24.2921 25.7041 24.1676 25.5999 24.0625H25.6624ZM12.6374 19.0625C11.3765 19.0625 10.144 18.6886 9.09564 17.9881C8.04728 17.2877 7.23018 16.292 6.74767 15.1271C6.26516 13.9623 6.13892 12.6805 6.3849 11.4438C6.63088 10.2072 7.23804 9.07128 8.1296 8.17972C9.02116 7.28816 10.1571 6.681 11.3937 6.43502C12.6303 6.18904 13.9121 6.31529 15.077 6.7978C16.2419 7.2803 17.2375 8.0974 17.938 9.14577C18.6385 10.1941 19.0124 11.4267 19.0124 12.6875C18.9992 14.3696 18.3217 15.9783 17.1276 17.163C15.9335 18.3478 14.3195 19.0126 12.6374 19.0125V19.0625Z" fill="#FC7521"/>
</svg>
