<svg width="56" height="56" viewBox="0 0 56 56" fill="none" xmlns="http://www.w3.org/2000/svg">
<circle cx="28" cy="28" r="28" fill="#FFF7E0"/>
<mask id="mask0_929_5854" style="mask-type:alpha" maskUnits="userSpaceOnUse" x="0" y="0" width="56" height="56">
<circle cx="28" cy="28" r="28" fill="#EFEFEF"/>
</mask>
<g mask="url(#mask0_929_5854)">
<g clip-path="url(#clip0_929_5854)">
<path d="M10.8465 12.6581C8.48607 14.3081 10.8143 20.667 12.2558 22.1654C13.6973 23.6638 19.0597 15.7146 19.0597 15.7146C19.0597 15.7146 13.7593 10.6205 10.8465 12.6581Z" fill="white"/>
<path d="M45.1927 12.6209C47.5531 14.2709 45.2249 20.6298 43.7834 22.1282C42.3418 23.6266 36.9795 15.6773 36.9795 15.6773C36.9795 15.6773 42.2799 10.5832 45.1927 12.6209Z" fill="white"/>
<path d="M21.3458 36.3543C12.8305 39.289 11.3667 50.3692 11.7011 55.5428H44.2987C44.8758 43.7072 39.7339 37.8179 37.0911 36.3543C35.392 35.1317 29.8612 33.4171 21.3458 36.3543Z" fill="#776F66"/>
<path d="M44.2987 55.9851H11.7011C11.4683 55.9851 11.2751 55.8037 11.2602 55.5701C10.9085 50.0859 12.5308 38.9237 21.2047 35.9343C25.0067 34.6223 28.5733 34.0905 31.8105 34.3515C35.1617 34.6223 36.8558 35.6436 37.3264 35.9766C40.1575 37.562 45.3192 43.6724 44.7396 55.5627C44.7272 55.7987 44.534 55.9826 44.2987 55.9826V55.9851ZM12.1172 55.1005H43.8752C44.2963 43.8935 39.5036 38.1956 36.8781 36.7419C36.8633 36.7345 36.8484 36.7245 36.8335 36.7146C35.1344 35.492 29.7374 33.929 21.4896 36.7742C13.5315 39.5176 11.8844 49.7231 12.1172 55.103V55.1005Z" fill="#776F66"/>
<path d="M11.8299 56C11.5921 56 11.3915 55.8136 11.3742 55.5726C11.0225 50.0859 12.6473 38.9137 21.3286 35.9219C25.1305 34.6099 28.7021 34.0781 31.9418 34.339C35.293 34.6099 36.9921 35.6336 37.4652 35.9666C40.2987 37.5545 45.4629 43.6698 44.8833 55.5651C44.8709 55.8186 44.6579 56.0074 44.4053 56C44.1526 55.9876 43.9594 55.7739 43.9718 55.5204C44.5316 44.0426 39.6547 38.2254 36.9995 36.7543C36.9847 36.7444 36.9698 36.7369 36.9549 36.7245C35.2558 35.5019 29.8687 33.9414 21.6233 36.7866C13.4646 39.5996 11.9463 50.2673 12.2832 55.5129C12.3005 55.7639 12.1098 55.9826 11.8572 56C11.8473 56 11.8374 56 11.8274 56H11.8299Z" fill="#515151"/>
<path d="M12.8157 23.6389C12.8157 23.6389 12.7934 23.6389 12.7835 23.6389C12.6572 23.629 12.5432 23.5668 12.4689 23.465C10.6485 21.0074 9.89302 18.7983 9.58094 17.3769C9.52892 17.1433 9.67753 16.9098 9.91035 16.8601C10.1457 16.8079 10.376 16.957 10.428 17.1906C10.7054 18.4504 11.3519 20.3712 12.8702 22.5381L19.0746 16.3606C15.7334 12.7773 12.137 11.8579 10.9704 12.8047C10.4875 13.1973 10.2076 14.067 10.2001 15.1927C10.2001 15.4312 10.0045 15.6251 9.7667 15.6251H9.76422C9.52397 15.6226 9.33325 15.4263 9.33325 15.1852C9.34316 13.7788 9.72955 12.6929 10.4255 12.1288C12.1197 10.7521 16.3724 12.012 19.9985 16.0848C20.1521 16.2562 20.1446 16.5196 19.9812 16.6836L13.1203 23.5122C13.0386 23.5942 12.9296 23.6389 12.8157 23.6389Z" fill="#515151"/>
<path d="M12.9346 14.9517C13.6183 14.415 15.4561 15.0163 16.9496 16.8502C16.4418 17.208 15.8895 17.6354 15.3223 18.1473C14.713 18.694 14.1978 19.2332 13.7619 19.7352C12.2709 17.6453 12.2287 15.5083 12.9346 14.9542V14.9517Z" fill="#515151"/>
<path d="M43.1867 23.6389C43.0728 23.6389 42.9638 23.5942 42.8821 23.5122L36.0237 16.6836C35.8603 16.5196 35.8528 16.2587 36.0064 16.0848C39.63 12.012 43.8803 10.7521 45.5769 12.1288C46.2704 12.6929 46.6593 13.7788 46.6692 15.1852C46.6692 15.4263 46.4785 15.6201 46.2382 15.6226H46.2357C45.998 15.6226 45.8048 15.4287 45.8023 15.1902C45.7948 14.0645 45.515 13.1948 45.032 12.8022C43.8654 11.8554 40.269 12.7749 36.9303 16.3581L43.1347 22.5356C44.6506 20.3688 45.2995 18.4479 45.5769 17.1881C45.6289 16.9545 45.8592 16.8054 46.0945 16.8576C46.3274 16.9098 46.476 17.1409 46.424 17.3744C46.1119 18.7958 45.3589 21.0049 43.5385 23.46C43.4641 23.5619 43.3477 23.624 43.2239 23.6339C43.214 23.6339 43.2016 23.6339 43.1917 23.6339L43.1867 23.6389Z" fill="#515151"/>
<path d="M43.0679 14.9517C42.3843 14.415 40.5465 15.0163 39.053 16.8502C39.5607 17.208 40.1131 17.6354 40.6803 18.1473C41.2896 18.694 41.8047 19.2332 42.2407 19.7352C43.7317 17.6453 43.7738 15.5083 43.0679 14.9542V14.9517Z" fill="#515151"/>
<path d="M45.4156 26.0667C45.4404 29.5829 43.5778 32.8331 40.4471 35.2385C37.3164 37.6414 32.9547 39.1647 28.1026 39.2044C23.2504 39.2442 18.8664 37.793 15.7035 35.4423C12.5381 33.0891 10.631 29.8686 10.6062 26.355C10.5814 22.8388 12.444 19.5885 15.5747 17.1831C18.7055 14.7802 23.0672 13.257 27.9193 13.2172C32.7714 13.1775 37.1554 14.6287 40.3183 16.9794C43.4837 19.3326 45.3909 22.553 45.4156 26.0667Z" fill="#EEB070"/>
<path d="M26.4234 13.9055C26.3318 13.9055 26.2377 13.8807 26.1535 13.826C25.9206 13.6769 25.8538 13.3663 26.0024 13.1352C26.4854 12.3823 27.4909 11.4107 28.13 10.9758C28.3578 10.8193 28.6674 10.8789 28.8235 11.11C28.977 11.3386 28.9201 11.6492 28.6922 11.8058C28.1473 12.176 27.2433 13.0557 26.8445 13.6769C26.7504 13.826 26.5894 13.908 26.4234 13.908V13.9055Z" fill="#515151"/>
<path d="M28.4247 13.8707C28.3108 13.8707 28.1944 13.8309 28.1003 13.7489C27.8922 13.57 27.8674 13.252 28.0482 13.0432C28.6303 12.3648 29.7622 11.5423 30.4532 11.2019C30.7009 11.0801 30.9981 11.182 31.122 11.4305C31.2434 11.679 31.1418 11.9797 30.8941 12.1014C30.3046 12.3922 29.2867 13.1377 28.8062 13.6968C28.7071 13.8111 28.5684 13.8707 28.4272 13.8707H28.4247Z" fill="#515151"/>
<path d="M27.8847 39.6865C23.1713 39.6865 18.7402 38.3198 15.3866 35.8249C11.9958 33.3052 10.1134 29.9357 10.0862 26.34C10.0614 22.7493 11.8893 19.3549 15.238 16.7781C17.482 14.8026 21.3484 13.2893 25.0958 12.924C25.3707 12.8942 25.6135 13.0979 25.6407 13.3738C25.668 13.6496 25.4673 13.8931 25.1924 13.9204C21.6877 14.2634 17.9477 15.7195 15.8845 17.541C15.877 17.5484 15.8671 17.5559 15.8572 17.5633C12.7562 19.9439 11.0621 23.0599 11.0844 26.3326C11.1066 29.6052 12.8454 32.6915 15.9811 35.0223C19.2108 37.4227 23.5131 38.7224 28.0779 38.6851C32.6502 38.6478 36.9276 37.2761 40.1228 34.821C43.2238 32.4405 44.9179 29.3244 44.8956 26.0518C44.8733 22.7791 43.1346 19.6929 39.9989 17.362C37.4948 15.5008 33.4948 14.0447 30.2724 13.8186C29.9975 13.7987 29.7894 13.5601 29.8092 13.2843C29.829 13.0085 30.0643 12.8047 30.3417 12.8196C33.735 13.0582 37.9506 14.5938 40.5934 16.5569C43.9841 19.0791 45.8665 22.4462 45.8938 26.0418C45.921 29.6375 44.0857 33.0369 40.7296 35.6137C37.3636 38.198 32.8731 39.6443 28.0878 39.684C28.021 39.684 27.9541 39.684 27.8872 39.684L27.8847 39.6865Z" fill="#515151"/>
<path d="M23.9466 24.5708C23.4809 24.5733 23.1069 24.956 23.1119 25.4232C23.1143 25.8903 23.4958 26.2656 23.9614 26.2606C24.4271 26.2581 24.8011 25.8754 24.7961 25.4083C24.7936 24.9411 24.4122 24.5659 23.9466 24.5708Z" fill="#515151"/>
<path d="M23.954 26.3326C23.7137 26.3326 23.4859 26.2382 23.3125 26.0692C23.1391 25.8978 23.0425 25.6692 23.04 25.4232C23.04 25.1796 23.1317 24.9485 23.3026 24.7721C23.4735 24.5982 23.7014 24.5013 23.9466 24.4988C24.1967 24.4988 24.4196 24.5907 24.5955 24.7622C24.7713 24.9336 24.8655 25.1623 24.8679 25.4083C24.8729 25.9127 24.4642 26.3277 23.9614 26.3302H23.954V26.3326ZM23.954 24.6429H23.949C23.7435 24.6429 23.5503 24.7274 23.4066 24.874C23.263 25.0206 23.1837 25.2169 23.1837 25.4232C23.1837 25.6294 23.2679 25.8232 23.414 25.9674C23.5602 26.1115 23.7509 26.1885 23.954 26.1885H23.9589C24.385 26.186 24.7268 25.8357 24.7243 25.4083C24.7243 25.202 24.6401 25.0082 24.4939 24.8641C24.3478 24.7199 24.1571 24.6429 23.954 24.6429Z" fill="#515151"/>
<path d="M31.2976 24.5708C30.832 24.5733 30.458 24.956 30.4629 25.4232C30.4654 25.8903 30.8468 26.2656 31.3125 26.2606C31.7781 26.2556 32.1521 25.8754 32.1472 25.4083C32.1447 24.9411 31.7633 24.5659 31.2976 24.5708Z" fill="#515151"/>
<path d="M31.3027 26.3326C30.8023 26.3326 30.3937 25.9276 30.3887 25.4232C30.3838 24.9187 30.7924 24.5037 31.2952 24.4988H31.3027C31.803 24.4988 32.2117 24.9063 32.2166 25.4083C32.2166 25.6518 32.125 25.8829 31.9541 26.0593C31.7832 26.2332 31.5553 26.3302 31.3101 26.3326H31.3027ZM31.2977 24.6429C30.8717 24.6454 30.5299 24.9958 30.5324 25.4232C30.5348 25.8481 30.8816 26.191 31.3027 26.191H31.3076C31.5132 26.191 31.7064 26.1065 31.85 25.9599C31.9937 25.8133 32.073 25.617 32.073 25.4107C32.0705 24.9858 31.7237 24.6429 31.3027 24.6429H31.2977Z" fill="#515151"/>
<path d="M34.0694 28.4696C33.7227 27.6421 32.1821 27.8483 30.3988 28.0844C29.5888 28.1912 28.7517 28.3031 28.2315 28.2658C27.8204 28.236 27.4216 28.2037 27.0402 28.1738C23.6692 27.908 21.232 27.7166 20.645 29.6027C20.4766 30.1469 20.6499 30.5022 20.8258 30.706C21.2295 31.1707 22.0766 31.3421 23.1664 31.3421C24.3503 31.3421 25.8216 31.1408 27.3176 30.8923C27.5777 30.8501 27.7832 30.8153 27.917 30.7979C28.3009 30.7457 29.1059 30.8849 29.8811 31.0191C31.3078 31.2626 32.6552 31.4937 33.2892 31.0713C34.2032 30.4575 34.4955 29.4859 34.0694 28.472V28.4696Z" fill="white"/>
<path d="M27.716 28.7126C28.4273 28.7071 29.0013 28.3556 28.998 27.9274C28.9947 27.4993 28.4155 27.1566 27.7042 27.1621C26.9929 27.1676 26.4189 27.5191 26.4222 27.9473C26.4255 28.3754 27.0047 28.7181 27.716 28.7126Z" fill="#515151"/>
</g>
</g>
<defs>
<clipPath id="clip0_929_5854">
<rect width="37.3333" height="45.1111" fill="white" transform="translate(9.33325 10.8889)"/>
</clipPath>
</defs>
</svg>
