<svg width="60" height="82" viewBox="0 0 60 82" fill="none" xmlns="http://www.w3.org/2000/svg">
<path d="M30 56C45.464 56 58 43.464 58 28C58 12.536 45.464 0 30 0C14.536 0 2 12.536 2 28C2 43.464 14.536 56 30 56Z" fill="#F7F7F7"/>
<mask id="mask0_161_5236" style="mask-type:alpha" maskUnits="userSpaceOnUse" x="2" y="0" width="56" height="56">
<path d="M30 56C45.464 56 58 43.464 58 28C58 12.536 45.464 0 30 0C14.536 0 2 12.536 2 28C2 43.464 14.536 56 30 56Z" fill="#EFEFEF"/>
</mask>
<g mask="url(#mask0_161_5236)">
<path d="M12.8111 12.6777C10.4778 14.311 12.8111 20.6888 14.2111 22.1666C15.6111 23.6443 20.9778 15.711 20.9778 15.711C20.9778 15.711 15.7667 10.6554 12.8111 12.6777Z" fill="white"/>
<path d="M47.1889 12.6C49.5222 14.2334 47.1889 20.6111 45.7889 22.0889C44.3111 23.5667 39.0222 15.6334 39.0222 15.6334C39.0222 15.6334 44.3111 10.5778 47.1889 12.6Z" fill="white"/>
<path d="M23.311 36.3221C14.8332 39.2777 13.3555 50.3221 13.6666 55.5332H46.3333C46.8777 43.711 41.7444 37.7999 39.0999 36.3221C37.3888 35.1554 31.8666 33.4443 23.311 36.3221Z" fill="#707070"/>
<path d="M46.3332 56H13.6665C13.4332 56 13.2776 55.8445 13.1998 55.6111C12.8887 50.0889 14.5221 38.8889 23.2332 35.9334C27.0443 34.6111 30.6221 34.0667 33.811 34.3778C37.1554 34.6111 38.8665 35.7 39.3332 36.0111C42.1332 37.5667 47.3443 43.7111 46.7221 55.6111C46.7221 55.7667 46.5665 56 46.3332 56ZM14.1332 55.0667H45.8665C46.2554 43.8667 41.511 38.1889 38.8665 36.7111C38.8665 36.7111 38.8665 36.7111 38.7887 36.7111C37.0776 35.4667 31.711 33.9111 23.4665 36.7889C15.5332 39.5111 13.8998 49.7 14.1332 55.0667Z" fill="#707070"/>
<path d="M13.8221 56C13.5888 56 13.3555 55.8445 13.3555 55.6111C12.9666 50.0889 14.5999 38.9667 23.311 35.9334C27.1221 34.6111 30.6999 34.0667 33.8888 34.3778C37.2333 34.6111 38.9444 35.7 39.411 36.0111C42.211 37.5667 47.4221 43.7111 46.7999 55.6111C46.7999 55.8445 46.5666 56.0778 46.3333 56.0778C46.0999 56.0778 45.8666 55.8445 45.8666 55.6111C46.411 44.1 41.511 38.3445 38.8666 36.8667C38.8666 36.8667 38.8666 36.8667 38.7888 36.8667C37.0777 35.6222 31.711 34.0667 23.4666 36.9445C15.2999 39.7445 13.8221 50.4 14.1333 55.6889C14.2888 55.7667 14.1333 56 13.8221 56Z" fill="#515151"/>
<path d="M14.8333 23.6446C14.8333 23.6446 14.7555 23.6446 14.8333 23.6446C14.6777 23.6446 14.5221 23.5669 14.5221 23.4891C12.7333 21.0002 11.9555 18.8224 11.6444 17.4224C11.5666 17.1891 11.7221 16.9557 11.9555 16.878C12.1888 16.8002 12.4221 16.9557 12.4999 17.1891C12.811 18.4335 13.4333 20.378 14.911 22.5557L21.1333 16.4113C17.7888 12.8335 14.211 11.9002 13.0444 12.8335C12.5777 13.2224 12.2666 14.078 12.2666 15.2446C12.2666 15.478 12.0333 15.7113 11.7999 15.7113C11.5666 15.7113 11.3333 15.478 11.3333 15.2446C11.3333 13.8446 11.7221 12.7557 12.4221 12.2113C14.1333 10.8113 18.3333 12.0557 21.9888 16.178C22.1444 16.3335 22.1444 16.6446 21.9888 16.8002L15.1444 23.6446C15.0666 23.5669 14.911 23.6446 14.8333 23.6446Z" fill="#515151"/>
<path d="M14.9111 14.9332C15.6111 14.3888 17.4 15.011 18.9555 16.7999C18.4111 17.1888 17.8666 17.5777 17.3222 18.1221C16.7 18.6666 16.2333 19.211 15.7666 19.6777C14.2889 17.6555 14.2111 15.4777 14.9111 14.9332Z" fill="#515151"/>
<path d="M45.1665 23.6445C45.0887 23.6445 44.9332 23.5667 44.8554 23.489L38.011 16.6445C37.8554 16.489 37.8554 16.2556 38.011 16.0223C41.6665 11.9778 45.8665 10.6556 47.5776 12.0556C48.2776 12.6001 48.6665 13.689 48.6665 15.089C48.6665 15.3223 48.511 15.5556 48.1998 15.5556C47.9665 15.5556 47.7332 15.4001 47.7332 15.089C47.7332 14.0001 47.4221 13.0667 46.9554 12.6778C45.7887 11.7445 42.211 12.6778 38.8665 16.2556L45.0887 22.4001C46.5665 20.2223 47.2665 18.2778 47.4998 17.0334C47.5776 16.8001 47.811 16.6445 48.0443 16.7223C48.2776 16.8001 48.4332 17.0334 48.3554 17.2667C48.0443 18.6667 47.2665 20.9223 45.4776 23.3334C45.4776 23.5667 45.3221 23.6445 45.1665 23.6445C45.2443 23.6445 45.1665 23.6445 45.1665 23.6445Z" fill="#515151"/>
<path d="M45.0889 14.9332C44.3889 14.3888 42.6 15.011 41.0444 16.7999C41.5889 17.1888 42.1333 17.5777 42.6778 18.1221C43.3 18.6666 43.7667 19.211 44.2333 19.6777C45.7111 17.6555 45.7889 15.4777 45.0889 14.9332Z" fill="#515151"/>
<path d="M47.4221 26.0555C47.4221 29.5555 45.5554 32.8222 42.4443 35.2333C39.3332 37.6444 34.9776 39.1222 30.0776 39.1999C25.2554 39.2777 20.8221 37.7999 17.711 35.4666C14.5221 33.1333 12.6554 29.8666 12.5776 26.3666C12.5776 22.8666 14.4443 19.5999 17.5554 17.1888C20.6665 14.7777 25.0221 13.2999 29.9221 13.2222C34.7443 13.1444 39.1776 14.6222 42.2887 16.9555C45.4776 19.3666 47.4221 22.5555 47.4221 26.0555Z" fill="#BCBCBC"/>
<path d="M28.4444 13.9222C28.3666 13.9222 28.2889 13.9222 28.2111 13.8444C27.9778 13.6889 27.9 13.3778 28.0555 13.1444C28.5222 12.3667 29.5333 11.4333 30.1555 10.9667C30.3889 10.8111 30.7 10.8889 30.8555 11.1222C31.0111 11.3556 30.9333 11.6667 30.7 11.8222C30.1555 12.2111 29.2222 13.0667 28.8333 13.6889C28.7555 13.8444 28.6 13.9222 28.4444 13.9222Z" fill="#515151"/>
<path d="M30.3889 13.8444C30.3111 13.8444 30.1556 13.7666 30.0778 13.6889C29.8445 13.5333 29.8445 13.2222 30 12.9889C30.5445 12.2889 31.7111 11.5111 32.4111 11.1222C32.6445 10.9666 32.9556 11.1222 33.1111 11.3555C33.2667 11.5889 33.1111 11.9 32.8778 12.0555C32.2556 12.3666 31.2445 13.0666 30.7778 13.6889C30.7 13.8444 30.5445 13.8444 30.3889 13.8444Z" fill="#515151"/>
<path d="M29.9222 39.6666C25.1778 39.6666 20.7444 38.2666 17.4 35.7777C13.9777 33.2888 12.1111 29.8666 12.1111 26.2888C12.1111 22.7111 13.9 19.2888 17.2444 16.7222C19.5 14.7777 23.3889 13.2222 27.1222 12.8333C27.4333 12.8333 27.6666 12.9888 27.6666 13.3C27.6666 13.6111 27.5111 13.8444 27.2 13.8444C23.7 14.1555 19.9666 15.6333 17.8666 17.5C14.7555 19.9111 13.0444 23.0222 13.1222 26.2888C13.1222 29.5555 14.9111 32.6666 18.0222 35C21.2889 37.4111 25.5666 38.7333 30.1555 38.6555C34.7444 38.6555 39.0222 37.2555 42.2111 34.7666C45.3222 32.3555 47.0333 29.2444 46.9555 25.9777C46.9555 22.7111 45.1666 19.6 42.0555 17.2666C39.5666 15.4 35.5222 13.9222 32.3333 13.6888C32.0222 13.6888 31.8666 13.4555 31.8666 13.1444C31.8666 12.8333 32.1 12.6777 32.4111 12.6777C35.8333 12.9111 40.0333 14.4666 42.6777 16.4111C46.1 18.9 47.9666 22.3222 47.9666 25.9C47.9666 29.4777 46.1777 32.9 42.8333 35.4666C39.3333 38.1888 34.9 39.6666 30.0777 39.6666C30 39.6666 29.9222 39.6666 29.9222 39.6666Z" fill="#515151"/>
<path d="M25.9554 24.5776C25.4887 24.5776 25.0999 24.9665 25.0999 25.4332C25.0999 25.8999 25.4887 26.2887 25.9554 26.2887C26.4221 26.2887 26.811 25.8999 26.811 25.4332C26.811 24.9665 26.4221 24.5776 25.9554 24.5776Z" fill="#515151"/>
<path d="M25.9555 26.3665C25.7222 26.3665 25.4889 26.2887 25.3333 26.1332C25.1778 25.9776 25.1 25.7443 25.0222 25.511C25.0222 25.2776 25.1 25.0443 25.2555 24.8887C25.4111 24.7332 25.6444 24.6554 25.8778 24.5776C26.1111 24.5776 26.3444 24.6554 26.5 24.811C26.6555 24.9665 26.7333 25.1999 26.8111 25.4332C26.8889 25.8999 26.5 26.2887 25.9555 26.3665ZM25.9555 24.6554C25.7222 24.6554 25.5667 24.7332 25.4111 24.8887C25.2556 25.0443 25.1778 25.1999 25.1778 25.4332C25.1778 25.6665 25.2556 25.8221 25.4111 25.9776C25.5667 26.1332 25.7222 26.211 25.9555 26.211C26.3444 26.211 26.7333 25.8221 26.7333 25.4332C26.7333 25.1999 26.6555 25.0443 26.5 24.8887C26.3444 24.7332 26.1889 24.6554 25.9555 24.6554Z" fill="#515151"/>
<path d="M33.2667 24.5776C32.8 24.5776 32.4111 24.9665 32.4111 25.4332C32.4111 25.8999 32.8 26.2887 33.2667 26.2887C33.7334 26.2887 34.1222 25.8999 34.1222 25.4332C34.1222 24.9665 33.7334 24.5776 33.2667 24.5776Z" fill="#515151"/>
<path d="M33.2666 26.3667C32.7999 26.3667 32.3333 25.9778 32.3333 25.4333C32.3333 24.9667 32.7221 24.5 33.2666 24.5C33.7333 24.5 34.1999 24.8889 34.1999 25.4333C34.1999 25.6667 34.1221 25.9 33.9666 26.0556C33.811 26.2111 33.5777 26.3667 33.2666 26.3667ZM33.2666 24.6556C32.8777 24.6556 32.4888 25.0444 32.4888 25.4333C32.4888 25.8222 32.7999 26.2111 33.2666 26.2111C33.4999 26.2111 33.6555 26.1333 33.811 25.9778C33.9666 25.8222 34.0444 25.6667 34.0444 25.4333C34.0444 24.9667 33.7333 24.6556 33.2666 24.6556Z" fill="#515151"/>
<path d="M36.0665 28.4667C35.7554 27.6112 34.1998 27.8445 32.4109 28.0778C31.6331 28.1556 30.7776 28.3112 30.2331 28.2334C29.8443 28.2334 29.4554 28.1556 29.0665 28.1556C25.722 27.9223 23.2331 27.689 22.6887 29.5556C22.5331 30.1001 22.6887 30.489 22.8443 30.6445C23.2331 31.1112 24.0887 31.2667 25.1776 31.2667C26.3443 31.2667 27.822 31.0334 29.2998 30.8001C29.5331 30.7223 29.7665 30.7223 29.922 30.7223C30.3109 30.6445 31.0887 30.8001 31.8665 30.9556C33.2665 31.189 34.6665 31.4223 35.2887 31.0334C36.222 30.489 36.5331 29.4778 36.0665 28.4667Z" fill="white"/>
<path d="M29.6889 28.7001C30.3889 28.7001 31.0111 28.3112 30.9334 27.9223C30.9334 27.4556 30.3889 27.1445 29.6111 27.1445C28.9111 27.1445 28.2889 27.5334 28.3667 27.9223C28.4445 28.3112 28.9889 28.7001 29.6889 28.7001Z" fill="#515151"/>
</g>
<path d="M9.46254 70.511V70.693C9.46254 71.0743 9.45821 71.473 9.44954 71.889C9.44954 72.2963 9.43221 72.7297 9.39754 73.189C9.37154 73.6397 9.32821 74.1207 9.26754 74.632C9.20687 75.1347 9.12021 75.6763 9.00754 76.257L10.3595 76.4C10.4722 75.776 10.5589 75.204 10.6195 74.684C10.6802 74.1553 10.7235 73.6613 10.7495 73.202C10.7755 72.7427 10.7885 72.3093 10.7885 71.902C10.7972 71.486 10.8015 71.083 10.8015 70.693V69.432H2.67654V70.511H9.46254ZM12.1665 77.258H1.54554V78.363H12.1665V77.258ZM22.8515 68.249H21.5125V72.448H19.1985V73.553H21.5125V80.014H22.8515V68.249ZM17.3265 71.473V70.524H19.8745V69.432H13.4395V70.524H15.9745V71.473C15.9745 72.0017 15.9009 72.5303 15.7535 73.059C15.6149 73.5877 15.4155 74.086 15.1555 74.554C14.8955 75.022 14.5792 75.4423 14.2065 75.815C13.8425 76.1877 13.4352 76.4823 12.9845 76.699L13.7775 77.765C14.4622 77.401 15.0515 76.8897 15.5455 76.231C16.0395 75.5637 16.4165 74.8097 16.6765 73.969C16.9365 74.7577 17.3092 75.464 17.7945 76.088C18.2799 76.712 18.8605 77.1887 19.5365 77.518L20.3165 76.465C19.8659 76.257 19.4542 75.9753 19.0815 75.62C18.7175 75.256 18.4055 74.8487 18.1455 74.398C17.8855 73.9473 17.6819 73.4707 17.5345 72.968C17.3959 72.4653 17.3265 71.967 17.3265 71.473ZM32.6005 70.511V70.693C32.6005 71.0743 32.5962 71.473 32.5875 71.889C32.5875 72.2963 32.5702 72.7297 32.5355 73.189C32.5095 73.6397 32.4662 74.1207 32.4055 74.632C32.3448 75.1347 32.2582 75.6763 32.1455 76.257L33.4975 76.4C33.6102 75.776 33.6968 75.204 33.7575 74.684C33.8182 74.1553 33.8615 73.6613 33.8875 73.202C33.9135 72.7427 33.9265 72.3093 33.9265 71.902C33.9352 71.486 33.9395 71.083 33.9395 70.693V69.432H25.8145V70.511H32.6005ZM35.3045 77.258H24.6835V78.363H35.3045V77.258ZM46.2625 68.262H44.9885V72.799H43.5975V68.496H42.3365V79.416H43.5975V73.891H44.9885V79.988H46.2625V68.262ZM37.9035 76.179V73.787H40.9975V69.471H36.5905V70.563H39.7105V72.708H36.6165V77.284H37.4095C38.1288 77.284 38.8308 77.2667 39.5155 77.232C40.2002 77.1973 40.9368 77.1107 41.7255 76.972L41.6085 75.88C40.9325 75.9927 40.2998 76.0707 39.7105 76.114C39.1212 76.1487 38.5188 76.1703 37.9035 76.179ZM58.4555 77.466H55.9465V74.411C56.4145 74.1423 56.7785 73.8043 57.0385 73.397C57.3071 72.9897 57.4415 72.526 57.4415 72.006C57.4415 71.538 57.3331 71.1177 57.1165 70.745C56.8998 70.3637 56.6008 70.0387 56.2195 69.77C55.8381 69.5013 55.3831 69.2977 54.8545 69.159C54.3258 69.0117 53.7495 68.938 53.1255 68.938C52.5015 68.938 51.9251 69.0117 51.3965 69.159C50.8678 69.2977 50.4085 69.5013 50.0185 69.77C49.6371 70.0387 49.3381 70.3637 49.1215 70.745C48.9135 71.1177 48.8095 71.538 48.8095 72.006C48.8095 72.526 48.9395 72.994 49.1995 73.41C49.4681 73.8173 49.8365 74.151 50.3045 74.411V77.466H47.8215V78.558H58.4555V77.466ZM53.1255 69.991C53.5675 69.991 53.9705 70.0387 54.3345 70.134C54.7071 70.2293 55.0235 70.3637 55.2835 70.537C55.5521 70.7103 55.7601 70.9227 55.9075 71.174C56.0548 71.4167 56.1285 71.694 56.1285 72.006C56.1285 72.318 56.0548 72.5997 55.9075 72.851C55.7601 73.1023 55.5521 73.3147 55.2835 73.488C55.0235 73.6613 54.7071 73.7957 54.3345 73.891C53.9705 73.9863 53.5675 74.034 53.1255 74.034C52.6835 74.034 52.2761 73.9863 51.9035 73.891C51.5308 73.7957 51.2101 73.6613 50.9415 73.488C50.6815 73.3147 50.4778 73.1023 50.3305 72.851C50.1831 72.5997 50.1095 72.318 50.1095 72.006C50.1095 71.694 50.1831 71.4167 50.3305 71.174C50.4778 70.9227 50.6815 70.7103 50.9415 70.537C51.2101 70.3637 51.5308 70.2293 51.9035 70.134C52.2761 70.0387 52.6835 69.991 53.1255 69.991ZM51.6435 77.466V74.918C52.1028 75.022 52.5968 75.074 53.1255 75.074C53.3855 75.074 53.6411 75.061 53.8925 75.035C54.1438 75.009 54.3821 74.9657 54.6075 74.905V77.466H51.6435Z" fill="#ACACAC"/>
</svg>
