<svg width="56" height="56" viewBox="0 0 56 56" fill="none" xmlns="http://www.w3.org/2000/svg">
<path d="M28 56C43.464 56 56 43.464 56 28C56 12.536 43.464 0 28 0C12.536 0 0 12.536 0 28C0 43.464 12.536 56 28 56Z" fill="#F7F7F7"/>
<mask id="mask0_929_5950" style="mask-type:alpha" maskUnits="userSpaceOnUse" x="0" y="0" width="56" height="56">
<path d="M28 56C43.464 56 56 43.464 56 28C56 12.536 43.464 0 28 0C12.536 0 0 12.536 0 28C0 43.464 12.536 56 28 56Z" fill="#EFEFEF"/>
</mask>
<g mask="url(#mask0_929_5950)">
<path d="M10.8111 12.6778C8.4778 14.3111 10.8111 20.6889 12.2111 22.1667C13.6111 23.6445 18.9778 15.7111 18.9778 15.7111C18.9778 15.7111 13.7667 10.6556 10.8111 12.6778Z" fill="white"/>
<path d="M45.1889 12.6C47.5222 14.2334 45.1889 20.6111 43.7889 22.0889C42.3111 23.5667 37.0222 15.6334 37.0222 15.6334C37.0222 15.6334 42.3111 10.5778 45.1889 12.6Z" fill="white"/>
<path d="M21.311 36.3222C12.8332 39.2778 11.3555 50.3222 11.6666 55.5333H44.3333C44.8777 43.7111 39.7444 37.8 37.0999 36.3222C35.3888 35.1556 29.8666 33.4445 21.311 36.3222Z" fill="#707070"/>
<path d="M44.3332 56H11.6665C11.4332 56 11.2776 55.8445 11.1998 55.6111C10.8887 50.0889 12.5221 38.8889 21.2332 35.9334C25.0443 34.6111 28.6221 34.0667 31.811 34.3778C35.1554 34.6111 36.8665 35.7 37.3332 36.0111C40.1332 37.5667 45.3443 43.7111 44.7221 55.6111C44.7221 55.7667 44.5665 56 44.3332 56ZM12.1332 55.0667H43.8665C44.2554 43.8667 39.511 38.1889 36.8665 36.7111C36.8665 36.7111 36.8665 36.7111 36.7887 36.7111C35.0776 35.4667 29.711 33.9111 21.4665 36.7889C13.5332 39.5111 11.8998 49.7 12.1332 55.0667Z" fill="#707070"/>
<path d="M11.8221 56C11.5888 56 11.3555 55.8445 11.3555 55.6111C10.9666 50.0889 12.5999 38.9667 21.311 35.9334C25.1221 34.6111 28.6999 34.0667 31.8888 34.3778C35.2333 34.6111 36.9444 35.7 37.411 36.0111C40.211 37.5667 45.4221 43.7111 44.7999 55.6111C44.7999 55.8445 44.5666 56.0778 44.3333 56.0778C44.0999 56.0778 43.8666 55.8445 43.8666 55.6111C44.411 44.1 39.511 38.3445 36.8666 36.8667C36.8666 36.8667 36.8666 36.8667 36.7888 36.8667C35.0777 35.6222 29.711 34.0667 21.4666 36.9445C13.2999 39.7445 11.8221 50.4 12.1333 55.6889C12.2888 55.7667 12.1333 56 11.8221 56Z" fill="#515151"/>
<path d="M12.8333 23.6444C12.8333 23.6444 12.7555 23.6444 12.8333 23.6444C12.6777 23.6444 12.5221 23.5667 12.5221 23.4889C10.7333 21 9.95547 18.8222 9.64436 17.4222C9.56658 17.1889 9.72214 16.9556 9.95547 16.8778C10.1888 16.8 10.4221 16.9556 10.4999 17.1889C10.811 18.4333 11.4333 20.3778 12.911 22.5556L19.1333 16.4111C15.7888 12.8333 12.211 11.9 11.0444 12.8333C10.5777 13.2222 10.2666 14.0778 10.2666 15.2444C10.2666 15.4778 10.0333 15.7111 9.79992 15.7111C9.56659 15.7111 9.33325 15.4778 9.33325 15.2444C9.33325 13.8444 9.72214 12.7556 10.4221 12.2111C12.1333 10.8111 16.3333 12.0556 19.9888 16.1778C20.1444 16.3333 20.1444 16.6444 19.9888 16.8L13.1444 23.6444C13.0666 23.5667 12.911 23.6444 12.8333 23.6444Z" fill="#515151"/>
<path d="M12.9111 14.9334C13.6111 14.3889 15.4 15.0111 16.9555 16.8C16.4111 17.1889 15.8666 17.5778 15.3222 18.1222C14.7 18.6667 14.2333 19.2111 13.7666 19.6778C12.2889 17.6556 12.2111 15.4778 12.9111 14.9334Z" fill="#515151"/>
<path d="M43.1665 23.6445C43.0887 23.6445 42.9332 23.5667 42.8554 23.4889L36.011 16.6445C35.8554 16.4889 35.8554 16.2556 36.011 16.0222C39.6665 11.9778 43.8665 10.6556 45.5776 12.0556C46.2776 12.6 46.6665 13.6889 46.6665 15.0889C46.6665 15.3222 46.511 15.5556 46.1998 15.5556C45.9665 15.5556 45.7332 15.4 45.7332 15.0889C45.7332 14 45.4221 13.0667 44.9554 12.6778C43.7887 11.7445 40.211 12.6778 36.8665 16.2556L43.0887 22.4C44.5665 20.2222 45.2665 18.2778 45.4998 17.0333C45.5776 16.8 45.811 16.6445 46.0443 16.7222C46.2776 16.8 46.4332 17.0333 46.3554 17.2667C46.0443 18.6667 45.2665 20.9222 43.4776 23.3333C43.4776 23.5667 43.3221 23.6445 43.1665 23.6445C43.2443 23.6445 43.1665 23.6445 43.1665 23.6445Z" fill="#515151"/>
<path d="M43.0889 14.9334C42.3889 14.3889 40.6 15.0111 39.0444 16.8C39.5889 17.1889 40.1333 17.5778 40.6778 18.1222C41.3 18.6667 41.7667 19.2111 42.2333 19.6778C43.7111 17.6556 43.7889 15.4778 43.0889 14.9334Z" fill="#515151"/>
<path d="M45.4221 26.0556C45.4221 29.5556 43.5554 32.8222 40.4443 35.2333C37.3332 37.6444 32.9776 39.1222 28.0776 39.2C23.2554 39.2778 18.8221 37.8 15.711 35.4667C12.5221 33.1333 10.6554 29.8667 10.5776 26.3667C10.5776 22.8667 12.4443 19.6 15.5554 17.1889C18.6665 14.7778 23.0221 13.3 27.9221 13.2222C32.7443 13.1444 37.1776 14.6222 40.2887 16.9556C43.4776 19.3667 45.4221 22.5556 45.4221 26.0556Z" fill="#BCBCBC"/>
<path d="M26.4444 13.9222C26.3666 13.9222 26.2889 13.9222 26.2111 13.8444C25.9778 13.6889 25.9 13.3778 26.0555 13.1444C26.5222 12.3667 27.5333 11.4333 28.1555 10.9667C28.3889 10.8111 28.7 10.8889 28.8555 11.1222C29.0111 11.3556 28.9333 11.6667 28.7 11.8222C28.1555 12.2111 27.2222 13.0667 26.8333 13.6889C26.7555 13.8444 26.6 13.9222 26.4444 13.9222Z" fill="#515151"/>
<path d="M28.3889 13.8445C28.3111 13.8445 28.1556 13.7667 28.0778 13.6889C27.8445 13.5334 27.8445 13.2222 28 12.9889C28.5445 12.2889 29.7111 11.5111 30.4111 11.1222C30.6445 10.9667 30.9556 11.1222 31.1111 11.3556C31.2667 11.5889 31.1111 11.9 30.8778 12.0556C30.2556 12.3667 29.2445 13.0667 28.7778 13.6889C28.7 13.8445 28.5445 13.8445 28.3889 13.8445Z" fill="#515151"/>
<path d="M27.9222 39.6667C23.1778 39.6667 18.7444 38.2667 15.4 35.7778C11.9777 33.2889 10.1111 29.8667 10.1111 26.2889C10.1111 22.7111 11.9 19.2889 15.2444 16.7222C17.5 14.7778 21.3889 13.2222 25.1222 12.8334C25.4333 12.8334 25.6666 12.9889 25.6666 13.3C25.6666 13.6111 25.5111 13.8445 25.2 13.8445C21.7 14.1556 17.9666 15.6334 15.8666 17.5C12.7555 19.9111 11.0444 23.0222 11.1222 26.2889C11.1222 29.5556 12.9111 32.6667 16.0222 35C19.2889 37.4111 23.5666 38.7334 28.1555 38.6556C32.7444 38.6556 37.0222 37.2556 40.2111 34.7667C43.3222 32.3556 45.0333 29.2445 44.9555 25.9778C44.9555 22.7111 43.1666 19.6 40.0555 17.2667C37.5666 15.4 33.5222 13.9222 30.3333 13.6889C30.0222 13.6889 29.8666 13.4556 29.8666 13.1445C29.8666 12.8334 30.1 12.6778 30.4111 12.6778C33.8333 12.9111 38.0333 14.4667 40.6777 16.4111C44.1 18.9 45.9666 22.3222 45.9666 25.9C45.9666 29.4778 44.1777 32.9 40.8333 35.4667C37.3333 38.1889 32.9 39.6667 28.0777 39.6667C28 39.6667 27.9222 39.6667 27.9222 39.6667Z" fill="#515151"/>
<path d="M23.9554 24.5778C23.4887 24.5778 23.0999 24.9666 23.0999 25.4333C23.0999 25.9 23.4887 26.2889 23.9554 26.2889C24.4221 26.2889 24.811 25.9 24.811 25.4333C24.811 24.9666 24.4221 24.5778 23.9554 24.5778Z" fill="#515151"/>
<path d="M23.9555 26.3666C23.7222 26.3666 23.4889 26.2889 23.3333 26.1333C23.1778 25.9778 23.1 25.7444 23.0222 25.5111C23.0222 25.2778 23.1 25.0444 23.2555 24.8889C23.4111 24.7333 23.6444 24.6555 23.8778 24.5778C24.1111 24.5778 24.3444 24.6555 24.5 24.8111C24.6555 24.9666 24.7333 25.2 24.8111 25.4333C24.8889 25.9 24.5 26.2889 23.9555 26.3666ZM23.9555 24.6555C23.7222 24.6555 23.5667 24.7333 23.4111 24.8889C23.2556 25.0444 23.1778 25.2 23.1778 25.4333C23.1778 25.6666 23.2556 25.8222 23.4111 25.9778C23.5667 26.1333 23.7222 26.2111 23.9555 26.2111C24.3444 26.2111 24.7333 25.8222 24.7333 25.4333C24.7333 25.2 24.6555 25.0444 24.5 24.8889C24.3444 24.7333 24.1889 24.6555 23.9555 24.6555Z" fill="#515151"/>
<path d="M31.2667 24.5778C30.8 24.5778 30.4111 24.9666 30.4111 25.4333C30.4111 25.9 30.8 26.2889 31.2667 26.2889C31.7334 26.2889 32.1222 25.9 32.1222 25.4333C32.1222 24.9666 31.7334 24.5778 31.2667 24.5778Z" fill="#515151"/>
<path d="M31.2666 26.3667C30.7999 26.3667 30.3333 25.9778 30.3333 25.4333C30.3333 24.9667 30.7221 24.5 31.2666 24.5C31.7333 24.5 32.1999 24.8889 32.1999 25.4333C32.1999 25.6667 32.1221 25.9 31.9666 26.0556C31.811 26.2111 31.5777 26.3667 31.2666 26.3667ZM31.2666 24.6556C30.8777 24.6556 30.4888 25.0444 30.4888 25.4333C30.4888 25.8222 30.7999 26.2111 31.2666 26.2111C31.4999 26.2111 31.6555 26.1333 31.811 25.9778C31.9666 25.8222 32.0444 25.6667 32.0444 25.4333C32.0444 24.9667 31.7333 24.6556 31.2666 24.6556Z" fill="#515151"/>
<path d="M34.0665 28.4667C33.7554 27.6111 32.1998 27.8444 30.4109 28.0778C29.6331 28.1556 28.7776 28.3111 28.2331 28.2333C27.8443 28.2333 27.4554 28.1556 27.0665 28.1556C23.722 27.9222 21.2331 27.6889 20.6887 29.5556C20.5331 30.1 20.6887 30.4889 20.8443 30.6444C21.2331 31.1111 22.0887 31.2667 23.1776 31.2667C24.3443 31.2667 25.822 31.0333 27.2998 30.8C27.5331 30.7222 27.7665 30.7222 27.922 30.7222C28.3109 30.6444 29.0887 30.8 29.8665 30.9556C31.2665 31.1889 32.6665 31.4222 33.2887 31.0333C34.222 30.4889 34.5331 29.4778 34.0665 28.4667Z" fill="white"/>
<path d="M27.6889 28.7C28.3889 28.7 29.0111 28.3111 28.9334 27.9222C28.9334 27.4556 28.3889 27.1445 27.6111 27.1445C26.9111 27.1445 26.2889 27.5334 26.3667 27.9222C26.4445 28.3111 26.9889 28.7 27.6889 28.7Z" fill="#515151"/>
</g>
</svg>
