<svg width="20" height="20" viewBox="0 0 20 20" fill="none" xmlns="http://www.w3.org/2000/svg">
<path d="M11.2833 1.77484C11.075 1.7415 10.8666 1.7165 10.65 1.69984C10.4333 1.68317 10.2166 1.6665 9.99996 1.6665C9.78329 1.6665 9.56663 1.68317 9.34996 1.69984C9.13329 1.7165 8.92496 1.7415 8.71663 1.77484C4.72496 2.3915 1.66663 5.83317 1.66663 9.99984C1.66663 14.1665 4.72496 17.6082 8.71663 18.2248C8.92496 18.2582 9.13329 18.2832 9.34996 18.2998C9.56663 18.3165 9.78329 18.3332 9.99996 18.3332C10.2166 18.3332 10.4333 18.3165 10.65 18.2998C10.8666 18.2832 11.075 18.2582 11.2833 18.2248C15.275 17.6082 18.3333 14.1665 18.3333 9.99984C18.3333 5.83317 15.275 2.3915 11.2833 1.77484ZM15.9583 6.6665H13.1333C12.8333 5.5165 12.3916 4.42484 11.8166 3.4165C13.5916 3.90817 15.075 5.0915 15.9583 6.6665ZM16.8333 9.99984C16.8333 10.6332 16.7416 11.2498 16.575 11.8332H13.425C13.5083 11.2332 13.55 10.6248 13.55 9.99984C13.55 9.37484 13.5083 8.7665 13.425 8.1665H16.575C16.7416 8.74984 16.8333 9.3665 16.8333 9.99984ZM3.16663 9.99984C3.16663 9.3665 3.25829 8.74984 3.42496 8.1665H6.57496C6.49163 8.7665 6.44996 9.37484 6.44996 9.99984C6.44996 10.6248 6.49163 11.2332 6.57496 11.8332H3.42496C3.25829 11.2498 3.16663 10.6332 3.16663 9.99984V9.99984ZM7.94163 9.99984C7.94163 9.37484 7.99163 8.7665 8.08329 8.1665H11.9166C12.0083 8.7665 12.0583 9.37484 12.0583 9.99984C12.0583 10.6248 12.0083 11.2332 11.9166 11.8332H8.08329C7.99163 11.2332 7.94163 10.6248 7.94163 9.99984ZM9.99996 3.3415C10.6916 4.34984 11.225 5.47484 11.575 6.6665H8.42496C8.77496 5.4665 9.30829 4.34984 9.99996 3.3415V3.3415ZM8.18329 3.42484C7.60829 4.43317 7.16663 5.52484 6.86663 6.67484H4.04163C4.92496 5.10817 6.40829 3.9165 8.18329 3.42484V3.42484ZM4.04163 13.3332H6.86663C7.16663 14.4832 7.60829 15.5748 8.18329 16.5832C6.40829 16.0915 4.92496 14.9082 4.04163 13.3332V13.3332ZM9.99996 16.6582C9.30829 15.6498 8.77496 14.5248 8.42496 13.3332H11.575C11.225 14.5332 10.6916 15.6498 9.99996 16.6582V16.6582ZM11.8166 16.5748C12.3916 15.5665 12.8333 14.4748 13.1333 13.3248H15.9583C15.075 14.8915 13.5916 16.0832 11.8166 16.5748Z" fill="#ACACAC"/>
</svg>
