<svg width="49" height="16" viewBox="0 0 49 16" fill="none" xmlns="http://www.w3.org/2000/svg">
<path d="M4.23196 13.443C3.54985 13.0916 2.98075 12.5564 2.58962 11.8984C2.20305 11.2139 2 10.4419 2 9.65662C2 8.87137 2.20305 8.09935 2.58962 7.41485C2.98046 6.76103 3.54589 6.228 4.22298 5.87508C4.91879 5.50545 5.71342 5.32037 6.60687 5.31982C7.44642 5.31982 8.18143 5.48919 8.81191 5.82793C9.4309 6.15335 9.93039 6.66565 10.2386 7.29128L8.70819 8.17986C8.48617 7.8108 8.17004 7.50677 7.79187 7.2986C7.42144 7.10245 7.00765 7.00157 6.58809 7.00511C5.84327 7.00511 5.22668 7.24602 4.73831 7.72785C4.24993 8.20967 4.00493 8.85246 4.00329 9.65621C4.00329 10.4605 4.24503 11.103 4.7285 11.5838C5.21198 12.0645 5.8313 12.3054 6.58645 12.3065C7.00606 12.3104 7.41995 12.2095 7.79024 12.013C8.17206 11.8034 8.49045 11.4957 8.71227 11.122L10.2427 12.0163C9.92206 12.6385 9.41873 13.1489 8.79966 13.4796C8.16755 13.8238 7.43689 13.9956 6.60769 13.995C5.78212 14.0093 4.96586 13.8197 4.23196 13.443Z" fill="white"/>
<path d="M4.16327 13.5764L4.16347 13.5765C4.91898 13.9642 5.75918 14.1595 6.60897 14.145C7.45862 14.1454 8.21404 13.9691 8.87086 13.6116C9.51648 13.2667 10.0415 12.7342 10.3761 12.085L10.4412 11.9585L10.3184 11.8868L8.78795 10.9925L8.65932 10.9173L8.58328 11.0454C8.37536 11.3957 8.07693 11.6843 7.71896 11.881C7.37101 12.0655 6.98213 12.1602 6.58786 12.1565L6.58667 12.1565C5.86641 12.1555 5.28655 11.9271 4.83427 11.4774C4.38417 11.0299 4.15331 10.4283 4.15329 9.65629C4.15491 8.88525 4.3887 8.28348 4.84365 7.83463C5.30142 7.383 5.87899 7.15511 6.58809 7.15512L6.58935 7.15511C6.98363 7.15178 7.37248 7.24648 7.7206 7.43059C8.07518 7.62602 8.37151 7.9112 8.57966 8.25718L8.65579 8.38373L8.7835 8.30958L10.314 7.421L10.4351 7.35066L10.3732 7.22498C10.051 6.57102 9.529 6.03561 8.88229 5.69547C8.22663 5.34335 7.46663 5.16982 6.60687 5.16982L6.60678 5.16982C5.69236 5.17038 4.87321 5.35993 4.15313 5.74234C3.45172 6.10806 2.86588 6.66036 2.46087 7.33789L2.46083 7.33786L2.45901 7.34109C2.05975 8.04807 1.85 8.8455 1.85 9.65662C1.85 10.4677 2.05975 11.2652 2.45901 11.9722L2.45898 11.9722L2.46068 11.975C2.86621 12.6573 3.45622 13.2121 4.16327 13.5764Z" stroke="black" stroke-opacity="0.4" stroke-width="0.3"/>
<path d="M19.8837 5.41301V13.8874H17.9865V12.8655C17.6599 13.2671 17.2515 13.4972 16.7664 13.698C16.2578 13.9038 15.7131 14.0063 15.1641 13.9996C14.3885 14.0129 13.6226 13.827 12.9403 13.4598C12.2942 13.1081 11.7631 12.5794 11.4098 11.9363C11.0429 11.2805 10.8594 10.5187 10.8594 9.65103C10.8594 8.78331 11.0429 8.02454 11.4098 7.37471C11.7651 6.73515 12.2959 6.20952 12.9403 5.85933C13.6226 5.49214 14.3885 5.30622 15.1641 5.31951C15.6858 5.31352 16.2036 5.41079 16.6872 5.60568C17.1461 5.79363 17.5573 6.08076 17.891 6.44629V5.41301H19.8837ZM17.205 11.5713C17.6836 11.0835 17.9228 10.4434 17.9228 9.65103C17.9228 8.85865 17.6836 8.2183 17.205 7.72997C16.727 7.24219 16.1212 6.9983 15.3879 6.9983C14.6545 6.9983 14.0512 7.24219 13.5781 7.72997C13.105 8.21776 12.8684 8.85811 12.8684 9.65103C12.8684 10.4439 13.105 11.084 13.5781 11.5713C14.0512 12.059 14.6545 12.3029 15.3879 12.3029C16.1212 12.3029 16.727 12.059 17.205 11.5713Z" fill="white"/>
<path d="M20.0337 5.41301V5.26301H19.8837H17.891H17.741V5.41301V6.08803C17.4469 5.82701 17.11 5.61675 16.7441 5.46687L16.7433 5.46655C16.2419 5.26453 15.7053 5.16357 15.1645 5.1695C14.364 5.15614 13.5736 5.3482 12.8692 5.72724L12.8686 5.72753C12.1995 6.09121 11.648 6.63709 11.2789 7.30141C10.8975 7.97707 10.7094 8.76191 10.7094 9.65103C10.7094 10.5402 10.8975 11.3277 11.2786 12.009C11.6457 12.6771 12.1976 13.2263 12.8686 13.5915L12.8692 13.5919C13.5735 13.9709 14.364 14.163 15.1645 14.1496C15.7326 14.1563 16.2963 14.05 16.8227 13.8371L16.8238 13.8366C17.1997 13.681 17.541 13.5039 17.8365 13.2395V13.8874V14.0374H17.9865H19.8837H20.0337V13.8874V5.41301ZM17.0979 11.4662L17.0978 11.4663C16.6503 11.923 16.0842 12.1529 15.3879 12.1529C14.6915 12.1529 14.1283 11.923 13.6858 11.4668L13.6857 11.4668C13.2443 11.0122 13.0184 10.4119 13.0184 9.65103C13.0184 8.89011 13.2443 8.28956 13.6858 7.83441C14.1283 7.37822 14.6915 7.1483 15.3879 7.1483C16.0842 7.1483 16.6503 7.37824 17.0978 7.83496L17.205 7.72997L17.0979 7.83497C17.5446 8.29079 17.7728 8.89118 17.7728 9.65103C17.7728 10.4109 17.5446 11.011 17.0979 11.4662Z" stroke="black" stroke-opacity="0.4" stroke-width="0.3"/>
<path d="M23.0625 4.96865V5.47594H25.4056V7.06368H23.1099V13.8869H21.1172V4.93613C21.1172 4.03752 21.3829 3.32347 21.9143 2.79395C22.4457 2.26443 23.2003 1.99995 24.1781 2.00049C24.9327 2.00049 25.5281 2.15387 25.9642 2.46063L25.4056 3.95243C25.0922 3.72156 24.7116 3.59908 24.3218 3.60367C23.4823 3.60367 23.0625 4.05866 23.0625 4.96865Z" fill="white"/>
<path d="M23.2599 13.8869V7.21368L24.1781 1.85049C23.1731 1.84995 22.3757 2.1224 21.8084 2.6877C21.2433 3.25081 20.9672 4.0061 20.9672 4.93613V13.8869V14.0369H21.1172H23.1099H23.2599V13.8869Z" stroke="black" stroke-opacity="0.4" stroke-width="0.3"/>
<path d="M32.7 11.3964L33.7527 12.6159C33.3716 13.0774 32.877 13.4328 32.3169 13.6475C31.6867 13.8891 31.0158 14.0078 30.3406 13.9971C29.4047 13.9971 28.5809 13.812 27.8693 13.4419C27.1818 13.0951 26.6088 12.5589 26.2188 11.8972C25.8253 11.2146 25.6244 10.4387 25.6373 9.65179C25.6257 8.87185 25.8209 8.10266 26.2033 7.42181C26.5695 6.77226 27.1106 6.23732 27.7656 5.87716C28.4566 5.50032 29.2342 5.30897 30.0221 5.3219C30.7789 5.31265 31.5262 5.4897 32.1977 5.83733C32.8432 6.17559 33.3808 6.68701 33.7494 7.31369C34.1305 7.95431 34.3211 8.70305 34.3211 9.55993L27.7999 10.829C27.9891 11.2986 28.3345 11.6895 28.7783 11.9362C29.2242 12.1899 29.7607 12.3167 30.3879 12.3167C31.313 12.3167 32.0836 12.01 32.7 11.3964ZM28.2441 7.61936C27.7917 8.09576 27.5658 8.73584 27.5663 9.5396V9.55586L32.3847 8.63476C32.2562 8.13446 31.9597 7.69297 31.5444 7.3836C31.1246 7.06654 30.6172 6.90774 30.0221 6.9072C29.2881 6.90557 28.6955 7.14296 28.2441 7.61936Z" fill="white"/>
<path d="M32.7982 11.5102L33.7527 12.6159C33.3716 13.0774 32.877 13.4328 32.3169 13.6475C31.6867 13.8891 31.0158 14.0078 30.3406 13.9971C29.4047 13.9971 28.5809 13.812 27.8693 13.4419C27.1818 13.0951 26.6088 12.5589 26.2188 11.8972C25.8253 11.2146 25.6244 10.4387 25.6373 9.65179L32.7982 11.5102ZM32.7982 11.5102C32.8007 11.5078 32.8033 11.5052 32.8058 11.5027L32.7 11.3964M32.7982 11.5102L32.7 11.3964M32.7 11.3964L32.5864 11.4944L32.5912 11.5L32.7 11.3964ZM32.8135 11.2984L32.7083 11.1765L32.5941 11.2901C32.0078 11.8737 31.2761 12.1667 30.3879 12.1667C29.781 12.1667 29.2712 12.0441 28.8524 11.8059L28.8512 11.8051C28.4911 11.605 28.2007 11.3032 28.0151 10.9399L34.3497 9.70716L34.4711 9.68355V9.55993C34.4711 8.6803 34.2752 7.90435 33.8785 7.23731C33.4956 6.58658 32.9375 6.05563 32.2673 5.70446L32.2667 5.70412C31.5739 5.34549 30.803 5.16269 30.0224 5.17189C29.2094 5.15891 28.4069 5.35655 27.6938 5.74547L27.6933 5.74572C27.0139 6.1193 26.4526 6.67421 26.0726 7.34814L26.0725 7.34836C25.6775 8.05159 25.4757 8.84603 25.4873 9.65168C25.4743 10.465 25.6822 11.2667 26.0888 11.9721L26.0888 11.9721L26.0896 11.9734C26.4941 12.6597 27.0881 13.2157 27.8009 13.5754C28.5367 13.9579 29.3842 14.147 30.3393 14.1471C31.0333 14.1579 31.7229 14.0359 32.3706 13.7876L32.3706 13.7876C32.9548 13.5637 33.4708 13.1929 33.8683 12.7114L33.949 12.6137L33.8662 12.5179L32.8135 11.2984ZM28.3529 7.72266L28.353 7.72253C28.7725 7.27981 29.3237 7.05565 30.0217 7.0572L30.0219 7.0572C30.5889 7.05772 31.0635 7.20841 31.4539 7.5033L31.4548 7.5039C31.7996 7.76074 32.0566 8.11501 32.1937 8.51856L27.7196 9.37384C27.7483 8.67899 27.9631 8.13313 28.3529 7.72266Z" stroke="black" stroke-opacity="0.4" stroke-width="0.3"/>
<path d="M35.4411 4.03954C35.3252 3.93022 35.2329 3.79855 35.1698 3.65256C35.1067 3.50657 35.0742 3.34931 35.0742 3.19039C35.0742 3.03147 35.1067 2.87421 35.1698 2.72822C35.2329 2.58222 35.3252 2.45055 35.4411 2.34124C35.6874 2.11343 36.0139 1.9911 36.35 2.0006C36.6834 1.99053 37.0083 2.10674 37.259 2.32579C37.3763 2.42622 37.4699 2.55111 37.5333 2.69161C37.5967 2.83211 37.6282 2.98477 37.6257 3.13877C37.6294 3.3023 37.5995 3.46486 37.5377 3.61643C37.4759 3.768 37.3835 3.90535 37.2663 4.02003C37.1462 4.13862 37.0029 4.23147 36.8453 4.29284C36.6877 4.35422 36.5191 4.38284 36.35 4.37692C36.0143 4.38765 35.6878 4.26646 35.4411 4.03954Z" fill="white"/>
<path d="M35.3381 4.14865L35.3381 4.14866L35.3395 4.14994C35.614 4.40238 35.9767 4.53762 36.3498 4.527C36.5376 4.53289 36.7247 4.50079 36.8997 4.43262C37.0762 4.36387 37.2368 4.25988 37.3715 4.12702C37.5032 3.99806 37.607 3.84357 37.6766 3.67307C37.7458 3.50337 37.7795 3.3214 37.7757 3.13828C37.7782 2.96318 37.7421 2.78967 37.67 2.62994C37.5977 2.46954 37.4909 2.327 37.3571 2.21235C37.079 1.96961 36.7193 1.84048 36.3499 1.85055C35.9762 1.84112 35.6134 1.9776 35.3392 2.2311L35.3392 2.2311L35.3381 2.23213C35.2074 2.35542 35.1033 2.50397 35.0321 2.66873C34.9609 2.83349 34.9242 3.01099 34.9242 3.19039C34.9242 3.36979 34.9609 3.54728 35.0321 3.71205C35.1033 3.87681 35.2074 4.02535 35.3381 4.14865Z" stroke="black" stroke-opacity="0.4" stroke-width="0.3"/>
<path d="M37.3482 5.41309H35.3555V13.8883H37.3482V5.41309Z" fill="white"/>
<path d="M37.4982 5.41309V5.26309H37.3482H35.3555H35.2055V5.41309V13.8883V14.0383H35.3555H37.3482H37.4982V13.8883V5.41309Z" stroke="black" stroke-opacity="0.4" stroke-width="0.3"/>
<path d="M46.0271 6.2543C46.6756 6.87866 46.9998 7.80436 46.9998 9.03141V13.8873H45.0071V9.28587C45.0071 8.54498 44.8315 7.98674 44.4803 7.61115C44.1291 7.23555 43.6296 7.04776 42.9817 7.04776C42.2483 7.04776 41.6693 7.26726 41.2446 7.70627C40.82 8.14527 40.6071 8.77749 40.606 9.60293V13.8873H38.6133V5.41287H40.5113V6.4364C40.8379 6.04455 41.2544 5.82017 41.7542 5.62343C42.293 5.41537 42.867 5.31295 43.4448 5.32182C44.5157 5.31911 45.3765 5.62994 46.0271 6.2543Z" fill="white"/>
<path d="M46.1311 6.14624L46.131 6.14607C45.4474 5.49013 44.5471 5.16929 43.4457 5.17182C42.8492 5.16284 42.2565 5.26867 41.7002 5.48351L41.7002 5.4835L41.6993 5.48386C41.3114 5.63654 40.9611 5.80992 40.6613 6.07001V5.41287V5.26287H40.5113H38.6133H38.4633V5.41287V13.8873V14.0373H38.6133H40.606H40.756V13.8873L40.756 9.60313C40.756 9.60307 40.756 9.60301 40.756 9.60295C40.7571 8.80249 40.9632 8.21297 41.3524 7.81056C41.7433 7.40652 42.2802 7.19776 42.9817 7.19776C43.5996 7.19776 44.0549 7.37582 44.3707 7.71359C44.6864 8.05124 44.8571 8.56635 44.8571 9.28587V13.8873V14.0373H45.0071H46.9998H47.1498V13.8873V9.03141C47.1498 7.77886 46.8184 6.80796 46.1311 6.14624Z" stroke="black" stroke-opacity="0.4" stroke-width="0.3"/>
</svg>
