<svg width="46" height="46" viewBox="0 0 46 46" fill="none" xmlns="http://www.w3.org/2000/svg">
<path d="M1 0.6H0.6V1V45V45.4H1H37C41.6392 45.4 45.4 41.6392 45.4 37V9C45.4 4.36081 41.6392 0.6 37 0.6H1Z" fill="white" stroke="#E3E3E3" stroke-width="0.8"/>
<path d="M24.2698 23L31.1398 16.14C31.2815 15.9653 31.3535 15.7442 31.3418 15.5195C31.3302 15.2948 31.2356 15.0824 31.0765 14.9233C30.9174 14.7642 30.705 14.6696 30.4803 14.658C30.2556 14.6463 30.0345 14.7183 29.8598 14.86L22.9998 21.73L16.1398 14.86C15.965 14.7183 15.7439 14.6463 15.5192 14.658C15.2945 14.6696 15.0821 14.7642 14.923 14.9233C14.7639 15.0824 14.6694 15.2948 14.6577 15.5195C14.646 15.7442 14.718 15.9653 14.8598 16.14L21.7298 23L14.8598 29.86C14.6912 30.0304 14.5967 30.2604 14.5967 30.5C14.5967 30.7397 14.6912 30.9697 14.8598 31.14C15.0314 31.3062 15.2609 31.3991 15.4998 31.3991C15.7386 31.3991 15.9682 31.3062 16.1398 31.14L22.9998 24.27L29.8598 31.14C30.0314 31.3062 30.2609 31.3991 30.4998 31.3991C30.7386 31.3991 30.9682 31.3062 31.1398 31.14C31.3083 30.9697 31.4028 30.7397 31.4028 30.5C31.4028 30.2604 31.3083 30.0304 31.1398 29.86L24.2698 23Z" fill="#515151"/>
</svg>
