<svg width="36" height="36" viewBox="0 0 36 36" fill="none" xmlns="http://www.w3.org/2000/svg">
<circle cx="18" cy="18" r="18" fill="white"/>
<path d="M19.2698 17.9999L24.6398 12.6399C24.7387 12.5596 24.8198 12.4594 24.8776 12.3458C24.9353 12.2322 24.9686 12.1077 24.9752 11.9804C24.9819 11.8531 24.9617 11.7259 24.916 11.6069C24.8703 11.4879 24.8001 11.3799 24.7099 11.2897C24.6198 11.1996 24.5118 11.1294 24.3928 11.0837C24.2738 11.038 24.1465 11.0178 24.0192 11.0244C23.8919 11.031 23.7675 11.0643 23.6539 11.1221C23.5403 11.1799 23.4401 11.2609 23.3598 11.3599L17.9998 16.7299L12.6398 11.3599C12.465 11.2181 12.2439 11.1462 12.0192 11.1578C11.7945 11.1695 11.5821 11.264 11.423 11.4231C11.2639 11.5823 11.1694 11.7947 11.1577 12.0194C11.146 12.2441 11.218 12.4652 11.3598 12.6399L16.7298 17.9999L11.3598 23.3599C11.1912 23.5303 11.0967 23.7602 11.0967 23.9999C11.0967 24.2396 11.1912 24.4695 11.3598 24.6399C11.5314 24.8061 11.7609 24.899 11.9998 24.899C12.2386 24.899 12.4682 24.8061 12.6398 24.6399L17.9998 19.2699L23.3598 24.6399C23.5314 24.8061 23.7609 24.899 23.9998 24.899C24.2386 24.899 24.4682 24.8061 24.6398 24.6399C24.8083 24.4695 24.9028 24.2396 24.9028 23.9999C24.9028 23.7602 24.8083 23.5303 24.6398 23.3599L19.2698 17.9999Z" fill="#333333"/>
</svg>
